<ttFont>
<head>
    <!-- Most of this table will be recalculated by the compiler -->
    <tableVersion value="1.0"/>
    <fontRevision value="2.004"/>
    <checkSumAdjustment value="0xb7d2a022"/>
    <magicNumber value="0x5f0f3cf5"/>
    <flags value="00000000 00000011"/>
    <unitsPerEm value="1000"/>
    <created value="Thu Oct  8 10:00:38 2009"/>
    <modified value="Thu Oct  8 10:00:38 2009"/>
    <xMin value="-496"/>
    <yMin value="-297"/>
    <xMax value="1801"/>
    <yMax value="1134"/>
    <macStyle value="00000000 00000011"/>
    <lowestRecPPEM value="3"/>
    <fontDirectionHint value="2"/>
    <indexToLocFormat value="0"/>
    <glyphDataFormat value="0"/>
  </head>
          <CharString index="0">
            696 27 rmoveto
            1 5 0 2 -2 13 -83 604 rcurveline
            43 -5 -29 0 -20 hhcurveto
            -88 hlineto
            -20 -29 0 -43 -25 hvcurveto
            -339 -604 -8 -13 0 -2 -1 -5 rlinecurve
            -27 -6 25 0 14 hhcurveto
            36 hlineto
            18 31 0 40 23 hvcurveto
            62 111 rlineto
            277 hlineto
            14 -96 rlineto
            -35 4 3 -20 48 hhcurveto
            54 hlineto
            14 25 0 27 6 hvcurveto
            -180 210 rmoveto
            -217 hlineto
            117 212 25 44 21 38 16 36 rlinecurve
            1 hlineto
            -1 -24 0 -2 3 -23 rrcurveto
            return
          </CharString>
          <CharString index="1">
            534 260 rmoveto
            129 28 -42 86 -149 hhcurveto
            -160 -98 -90 -152 -32 hvcurveto
            -164 -35 78 -80 157 hhcurveto
            38 58 5 33 73 hvcurveto
            24 11 8 3 2 12 74 callsubr
            -4 -2 0 -10 -13 hvcurveto
            -51 -70 -61 -7 -32 hhcurveto
            -113 7 89 64 10 hvcurveto
            272 hlineto
            23 26 1 45 9 hvcurveto
            -109 7 rmoveto
            -208 hlineto
            61 16 36 75 87 hhcurveto
            80 2 -58 -78 -13 hvcurveto
            return
          </CharString>
          <CharString index="2">
            rmoveto
            -86 102 rlineto
            2 -2 -3 1 -3 hhcurveto
            -111 hlineto
            -3 -3 -1 -2 -2 hvcurveto
            -132 -104 rlineto
            -7 -10 2 -13 11 hhcurveto
            47 hlineto
            6 1 129 81 95 -81 4 -1 rlineto
            47 hlineto
            11 10 15 7 -7 hvcurveto
            return
          </CharString>
          <CharString index="3">
            hlineto
            38 13 13 35 7 hvcurveto
            return
          </CharString>
          <CharString index="4">
            805 342 rmoveto
            201 42 -36 173 -262 hhcurveto
            -277 -99 -191 -183 -39 hvcurveto
            -187 -40 27 -177 270 hhcurveto
            258 112 159 205 44 hvcurveto
            -88 callsubr
            return
          </CharString>
          <CharString index="5">
            23 112 -65 84 -95 23 -91 22 rcurveline
            -21 5 -57 23 12 57 rrcurveto
            85 18 85 2 34 hhcurveto
            56 48 -13 -48 38 hvcurveto
            -15 13 1 -1 4 hhcurveto
            6 6 3 15 6 hvcurveto
            33 87 4 8 0 2 1 3 rlinecurve
            2 8 -1 1 -22 13 rrcurveto
            35 -64 -58 5 -51 hhcurveto
            -89 -159 -21 -187 -40 hvcurveto
            -15 -71 27 -46 15 -20 40 -52 45 -10 74 -18 53 -13 21 -5 18 -20 8 -10 16 -21 -8 -38 rrcurveto
            -94 -20 -87 -3 -33 hhcurveto
            -84 -65 34 45 -41 hvcurveto
            12 -9 -2 0 -4 hhcurveto
            -6 -6 -3 -15 -6 hvcurveto
            -33 -87 rlineto
            -4 -8 -1 -2 -3 vvcurveto
            -5 -21 97 -36 4 -2 rrcurveto
            -21 63 53 -2 26 hhcurveto
            150 109 67 155 33 hvcurveto
            return
          </CharString>
          <CharString index="6">
            hintmask 11000000
            -103 callsubr
            return
          </CharString>
          <CharString index="7">
            rmoveto
            1 4 0 24 10 vvcurveto
            24 1 1 2 -18 hhcurveto
            -31 -53 -12 -23 -43 hvcurveto
            31 -40 -51 4 -43 hhcurveto
            -42 -159 0 -165 -35 hvcurveto
            -9 -40 0 -50 31 -33 -34 -37 -9 -39 -1 -5 -4 -19 -1 -33 15 -27 -16 -6 -56 -18 -13 -64 -7 -31 4 -52 57 -29 rrcurveto
            -26 51 67 -1 47 hhcurveto
            59 191 0 142 30 hvcurveto
            156 34 -141 0 -135 hhcurveto
            -48 hlineto
            -36 -14 0 12 -12 hvcurveto
            -3 4 -14 15 6 26 1 7 2 2 2 6 rrcurveto
            hintmask 11011001
            -26 41 59 0 21 hhcurveto
            42 159 0 165 35 hvcurveto
            13 58 -15 35 -6 11 rrcurveto
            17 35 0 -11 38 hvcurveto
            -2 4 6 -2 3 hhcurveto
            8 7 6 7 1 hvcurveto
            -238 -101 rmoveto
            -55 -12 -11 -39 -70 hhcurveto
            -70 5 38 55 11 hvcurveto
            55 12 11 39 70 hhcurveto
            70 -5 -38 -55 -11 hvcurveto
            25 -371 rmoveto
            -67 -14 -114 0 -32 hhcurveto
            -40 -107 0 70 14 hvcurveto
            47 10 31 0 23 hhcurveto
            116 hlineto
            81 39 -14 -36 -7 hvcurveto
            return
          </CharString>
          <CharString index="8">
            4 19 rlineto
            32 7 -4 43 callgsubr
            return
          </CharString>
          <CharString index="9">
            rlineto
            -94 callgsubr
            return
          </CharString>
          <CharString index="10">
            426 141 rmoveto
            12 56 -23 35 -14 16 -33 36 -33 6 -41 8 -53 10 -38 8 8 39 rrcurveto
            41 9 35 8 39 hhcurveto
            67 31 -25 -22 21 hvcurveto
            -10 8 71 callsubr
            3 8 22 56 1 5 4 16 -50 14 -11 4 rrcurveto
            11 -37 -32 1 -26 hhcurveto
            -45 -134 0 -143 -30 hvcurveto
            -11 -49 16 -30 22 -24 28 -32 37 -7 55 -11 28 -5 49 -9 -9 -44 rrcurveto
            -47 -10 -41 -7 -39 hhcurveto
            -44 -53 13 56 -35 hvcurveto
            5 -4 -2 3 -6 hhcurveto
            -10 -4 -9 -6 -3 hvcurveto
            -5 -14 -24 -57 -2 -10 rrcurveto
            -4 -18 70 -24 0 vvcurveto
            -17 52 41 0 17 hhcurveto
            51 127 4 148 31 hvcurveto
            return
          </CharString>
          <CharString index="11">
            13 3 -11 0 -16 hhcurveto
            -82 221 callsubr
            -11 -11 hvcurveto
            -111 -117 rlineto
            -11 -11 -1 -4 0 vvcurveto
            -13 58 callsubr
            37 hlineto
            187 129 return
          </CharString>
          <CharString index="12">
            -11 callsubr
            -11 hvcurveto
            -13 -28 -41 0 -49 hhcurveto
            -51 -40 0 13 -24 hvcurveto
            34 5 -27 2 -6 hhcurveto
            -16 -23 -12 -26 -5 -77 callsubr
            return
          </CharString>
          <CharString index="13">
            rmoveto
            7 10 -3 13 -11 hhcurveto
            -47 hlineto
            -5 -1 -129 -81 -95 81 -5 1 rlineto
            -47 hlineto
            -11 -9 -15 -7 7 hvcurveto
            86 -102 rlineto
            -2 2 2 -1 3 hhcurveto
            111 hlineto
            3 4 1 2 2 hvcurveto
            endchar
          </CharString>
          <CharString index="14">
            565 431 rmoveto
            27 5 -27 0 -13 hhcurveto
            -22 hlineto
            -16 -22 0 -23 -20 hvcurveto
            -4 -5 -128 -221 -19 -67 rrcurveto
            -1 hlineto
            6 49 -22 93 -22 96 rrcurveto
            63 -15 -4 15 -50 hhcurveto
            -26 hlineto
            -14 -25 0 -26 -5 hvcurveto
            -1 -4 1 -7 1 -5 101 -416 rcurveline
            -12 -21 -6 -11 -5 -10 rrcurveto
            -33 -19 -27 -45 -54 hhcurveto
            -33 -20 14 7 -9 hvcurveto
            3 -4 220 callsubr
            -5 -9 -3 -12 -2 hvcurveto
            -2 -8 -9 -69 2 -4 rrcurveto
            -12 7 53 -2 16 hhcurveto
            124 75 118 24 13 hvcurveto
            263 474 8 13 1 2 1 5 rlinecurve
            return
          </CharString>
          <CharString index="15">
            7 16 -2 63 callgsubr
            11 -8 14 hhcurveto
            67 hlineto
            endchar
          </CharString>
          <CharString index="16">
            rmoveto
            -86 102 rlineto
            2 -2 220 callsubr
            -111 hlineto
            -3 -4 -1 -2 -2 hvcurveto
            -132 -104 rlineto
            -7 -10 3 -13 11 hhcurveto
            47 hlineto
            5 1 129 81 95 -81 5 -1 rlineto
            47 hlineto
            11 9 15 7 -7 hvcurveto
            return
          </CharString>
          <CharString index="17">
            rmoveto
            8 7 -3 11 -10 hhcurveto
            -47 hlineto
            0 -4 -1 -2 -1 vhcurveto
            -120 -101 -76 101 rlineto
            -2 1 -4 1 0 vvcurveto
            -47 hlineto
            -10 -9 -13 -8 4 hvcurveto
            67 -137 rlineto
            -3 1 3 -1 4 hhcurveto
            111 hlineto
            4 3 1 3 3 hvcurveto
            endchar
          </CharString>
          <CharString index="18">
            1155 665 rmoveto
            29 7 -27 0 -14 hhcurveto
            -21 hlineto
            -20 -28 0 -44 -22 hvcurveto
            -190 -394 -24 -51 -16 -33 -19 -44 rlinecurve
            -1 hlineto
            1 27 0 2 -5 88 -22 405 rcurveline
            39 -3 -18 5 -29 hhcurveto
            -66 hlineto
            -21 -28 0 -44 -22 hvcurveto
            -158 -328 -46 -99 -21 -47 -14 -32 -6 -16 rlinecurve
            -1 hlineto
            3 52 -5 88 -4 63 -18 320 rcurveline
            43 -2 -29 0 -19 hhcurveto
            -34 hlineto
            -14 -27 0 -29 -7 hvcurveto
            0 -1 -5 1 -14 vhcurveto
            36 -604 rlineto
            -42 2 28 0 21 hhcurveto
            66 hlineto
            21 28 0 46 22 hvcurveto
            188 391 26 54 13 28 21 48 rlinecurve
            1 hlineto
            -1 -58 1 -25 4 -65 22 -377 rcurveline
            -42 2 28 0 20 hhcurveto
            72 hlineto
            21 28 0 42 20 hvcurveto
            292 604 rlineto
            7 14 1 5 0 vvcurveto
            return
          </CharString>
          <CharString index="19">
            -144 16 rmoveto
            -89 -19 -45 -211 -188 hhcurveto
            -189 45 209 91 19 hvcurveto
            88 19 41 192 188 hhcurveto
            189 -41 -190 -90 -19 hvcurveto
            return
          </CharString>
          <CharString index="20">
            rmoveto
            -57 callgsubr
            5 -12 vhcurveto
            50 -114 rlineto
            -13 6 1 -1 20 hhcurveto
            18 hlineto
            16 11 0 14 3 hvcurveto
            -183 hmoveto
            -57 callgsubr
            5 -12 vhcurveto
            50 -114 rlineto
            -13 6 1 -1 20 hhcurveto
            18 hlineto
            16 11 0 14 3 hvcurveto
            endchar
          </CharString>
          <CharString index="21">
            -82 callgsubr
            286 hmoveto
            3 -88 callgsubr
            -11 -12 -31 -7 hvcurveto
            return
          </CharString>
          <CharString index="22">
            658 58 rmoveto
            11 86 rlineto
            6 1 -5 5 -6 hhcurveto
            -3 -2 -1 -1 -3 hvcurveto
            -32 -21 -33 -20 -36 -11 rrcurveto
            -11 -35 -35 -1 -34 hhcurveto
            -62 -58 17 46 -31 hvcurveto
            -33 53 5 72 15 70 15 70 25 72 56 53 rrcurveto
            47 50 66 17 62 hhcurveto
            30 30 -4 -11 27 hvcurveto
            26 -11 22 -17 18 -21 rrcurveto
            -2 2 3 -1 3 hhcurveto
            7 6 5 5 2 hvcurveto
            41 107 2 8 -3 4 -4 2 rlinecurve
            -29 12 -31 10 -32 6 rrcurveto
            6 -32 -34 2 -33 hhcurveto
            -100 -107 -21 -69 -86 hvcurveto
            -85 -69 -43 -101 -21 -99 -21 -98 0 -101 56 -69 rrcurveto
            -70 56 99 -20 100 hhcurveto
            37 38 1 10 38 hvcurveto
            38 10 37 17 37 19 3 2 4 4 1 6 rrcurveto
            return
          </CharString>
          <CharString index="23">
            -105 callsubr
            endchar
          </CharString>
          <CharString index="24">
            122 rlineto
            21 2 -4 0 -22 hhcurveto
            -82 hlineto
            -16 -11 0 -13 -3 hvcurveto
            0 -1 -4 return
          </CharString>
          <CharString index="25">
            -105 callsubr
            99 267 83 callgsubr
            -39 159 callgsubr
            -3 vvcurveto
            -4 vlineto
            6 128 callsubr
            4 129 callgsubr
            4 3 4 116 callsubr
            5 -1 -4 4 175 callgsubr
            -2 -7 -3 -5 -3 -3 -32 104 callgsubr
            -4 -17 rcurveline
            -6 -1 5 -6 7 hhcurveto
            19 hlineto
            7 6 99 callgsubr
            4 18 15 9 37 200 callgsubr
            5 142 callgsubr
          </CharString>
          <CharString index="26">
            hlineto
            -79 callgsubr
            return
          </CharString>
          <CharString index="27">
            468 50 rmoveto
            2 11 6 46 1 13 rrcurveto
            3 0 10 -10 -4 -2 0 -10 -12 vhcurveto
            -15 -20 -56 -41 -82 hhcurveto
            -104 22 101 64 13 hvcurveto
            81 18 22 84 102 hhcurveto
            65 24 -16 -30 30 hvcurveto
            -11 9 71 callsubr
            4 8 22 56 1 5 2 9 -7 4 -15 8 rrcurveto
            22 -43 -28 10 -70 hhcurveto
            -149 -108 -70 -175 -37 hvcurveto
            -166 -35 70 -75 151 hhcurveto
            27 60 1 34 74 hvcurveto
            31 15 2 1 2 10 rrcurveto
            return
          </CharString>
          <CharString index="28">
            103 22 -35 41 -102 hhcurveto
            -105 -61 -76 -27 -19 hvcurveto
            -1 hlineto
            10 50 67 callgsubr
            -78 -368 -6 callgsubr
            87 19 66 41 52 hhcurveto
            48 5 -23 -51 -10 hvcurveto
            return
          </CharString>
          <CharString index="29">
            -36 -15 -76 callsubr
            return
          </CharString>
          <CharString index="30">
            hvcurveto
            -104 -22 143 0 45 hhcurveto
            47 142 0 104 22 hvcurveto
            return
          </CharString>
          <CharString index="31">
            -11 -42 callsubr
            return
          </CharString>
          <CharString index="32">
            810 430 rmoveto
            28 3 -18 0 -31 hhcurveto
            -47 -12 -3 -52 -25 hvcurveto
            -143 -290 -21 300 rlineto
            22 -2 -2 23 -46 hhcurveto
            -15 -23 0 -23 -19 hvcurveto
            -12 -15 -80 -173 -60 -117 -20 283 rcurveline
            34 -3 -9 11 -41 hhcurveto
            -20 hlineto
            -19 -21 0 -28 -9 hvcurveto
            25 -384 rlineto
            -46 3 26 0 25 hhcurveto
            28 hlineto
            47 11 15 40 20 hvcurveto
            40 83 63 126 15 52 1 1 rcurveline
            -6 -57 11 -158 3 -47 rrcurveto
            -36 3 1 -19 50 hhcurveto
            68 hlineto
            43 13 12 34 17 hvcurveto
            return
          </CharString>
          <CharString index="33">
            rmoveto
            0 1 4 -7 11 vhcurveto
            -61 117 rlineto
            11 -7 0 1 -20 hhcurveto
            -82 hlineto
            -16 -11 0 -13 -3 hvcurveto
            -2 -6 5 -5 5 -4 131 -129 rcurveline
            37 52 callgsubr
          </CharString>
          <CharString index="34">
            -91 callgsubr
            -51 hlineto
            -78 callsubr
            return
          </CharString>
          <CharString index="35">
            221 callgsubr
            -17 -77 119 callgsubr
            33 hhcurveto
            -47 -80 -2 -3 -3 -6 -1 -4 rlinecurve
            -13 -3 10 0 16 hhcurveto
            12 hlineto
            20 1 1 12 11 hvcurveto
            return
          </CharString>
          <CharString index="36">
            383 47 rmoveto
            1 3 -1 7 -1 21 rrcurveto
            20 -1 -1 6 -9 hhcurveto
            -5 -1 -1 -6 -7 hvcurveto
            -8 -13 -32 -22 -42 hhcurveto
            -24 -11 17 66 14 hvcurveto
            50 236 rlineto
            89 hlineto
            12 36 0 36 8 hvcurveto
            36 7 -36 0 -12 hhcurveto
            -89 hlineto
            18 83 rlineto
            return
          </CharString>
          <CharString index="37">
            -19 43 hhcurveto
            51 hlineto
            42 10 18 30 return
          </CharString>
          <CharString index="38">
            32 7 -4 -58 callgsubr
            return
          </CharString>
          <CharString index="39">
            -54 callsubr
            -7 hvcurveto
            return
          </CharString>
          <CharString index="40">
            -3 -58 callgsubr
            return
          </CharString>
          <CharString index="41">
            4 -1 4 1 rlineto
            1 hlineto
            5 3 3 5 rlineto
            1 hlineto
            31 16 27 21 26 hhcurveto
            14 6 -1 -4 3 hvcurveto
            2 -2 -1 -32 callsubr
            return
          </CharString>
          <CharString index="42">
            -20 194 callsubr
            -73 136 169 136 16 130 -108 130 hintmask 0001000001000000
            21 callsubr
            hintmask 1100010110000000
            -43 callsubr
            hintmask 0000001000000000
            34 callgsubr
            hintmask 1100010010000000
            -45 callgsubr
            hintmask 0010100000000000
            return
          </CharString>
          <CharString index="43">
            102 callgsubr
            -33 hhcurveto
            47 80 2 3 3 6 1 4 rlinecurve
            200 callsubr
            -12 221 callsubr
            -12 -10 hvcurveto
            -85 -102 -20 -95 -33 callgsubr
            return
          </CharString>
          <CharString index="44">
            48 -61 callgsubr
            return
          </CharString>
          <CharString index="45">
            768 347 rmoveto
            192 41 -122 155 -192 hhcurveto
            -192 -188 -155 -192 -41 hvcurveto
            -192 -41 122 -155 192 hhcurveto
            192 188 155 192 41 hvcurveto
            -74 hmoveto
            -151 -32 -148 -122 -151 hhcurveto
            -151 -96 122 151 32 hvcurveto
            151 32 148 122 151 hhcurveto
            151 96 -122 -151 -32 hvcurveto
            return
          </CharString>
          <CharString index="46">
            rmoveto
            -104 109 rlineto
            -161 hlineto
            -18 -8 -16 -7 12 hvcurveto
            196 -106 rlineto
            67 hlineto
            14 13 8 12 -11 hvcurveto
            endchar
          </CharString>
          <CharString index="47">
            626 48 rmoveto
            2 9 rlineto
            48 10 -23 0 -34 hhcurveto
            -320 -4 468 506 13 13 0 2 5 22 rlinecurve
            27 6 4 23 -47 hhcurveto
            -438 hlineto
            -42 -10 -17 -32 -7 hvcurveto
            -49 -10 21 0 40 hhcurveto
            261 3 rlineto
            35 hlineto
            -470 -508 -12 -13 -1 -2 -4 -20 rlinecurve
            return
          </CharString>
          <CharString index="48">
            rmoveto
            17 3 -72 callgsubr
            return
          </CharString>
          <CharString index="49">
            4 2 2 4 1 4 rrcurveto
            -238 -346 rmoveto
            -17 -79 -21 -83 -57 -67 rrcurveto
            -49 -41 -64 -25 -59 hhcurveto
            -59 -51 25 49 -22 hvcurveto
            -29 67 16 83 17 79 15 73 20 77 54 60 rrcurveto
            47 43 62 21 58 hhcurveto
            58 52 -21 -47 23 hvcurveto
            30 -60 -13 -77 -15 -73 rrcurveto
            return
          </CharString>
          <CharString index="50">
            rmoveto
            104 22 -143 0 -45 hhcurveto
            -47 -142 0 -104 -22 hvcurveto
            -27 -6 19 -11 15 hhcurveto
            6 27 2 34 10 hvcurveto
            13 29 41 0 49 hhcurveto
            51 40 0 -13 23 hvcurveto
            -34 -4 27 -2 6 hhcurveto
            16 22 12 26 6 hvcurveto
            endchar
          </CharString>
          <CharString index="51">
            -39 callsubr
            hintmask 10000000
            -39 -13 -25 -5 -10 hhcurveto
            -16 -13 161 callgsubr
            hintmask 01000000
            -12 callgsubr
            hintmask 10000000
            -26 callgsubr
            hintmask 01000000
            39 return
          </CharString>
          <CharString index="52">
            57 callsubr
            hintmask 01000100
            204 48 -37 callgsubr
            hintmask 10001000
            -41 callgsubr
            return
          </CharString>
          <CharString index="53">
            hlineto
            -38 -13 -13 -35 return
          </CharString>
          <CharString index="54">
            -15 19 26 -22 45 hhcurveto
            71 53 65 49 return
          </CharString>
          <CharString index="55">
            147 -143 147 return
          </CharString>
          <CharString index="56">
            39 callsubr
            -45 -122 rlineto
            -14 58 callsubr
            18 hlineto
            20 1 1 13 12 hvcurveto
            98 114 rlineto
            11 12 1 4 0 vvcurveto
            return
          </CharString>
          <CharString index="57">
            794 -11 72 -17 53 -44 66 95 131 callsubr
            -66 66 hstemhm
            57 130 184 137 -112 114 -101 114 73 137 hintmask 0000100100000000
            817 261 rmoveto
            130 28 -41 84 -138 hhcurveto
            -30 -67 -3 -38 -61 hvcurveto
            34 -35 -50 7 -60 hhcurveto
            -54 -49 -6 -27 -69 hvcurveto
            -22 -8 -5 -3 -3 -11 rrcurveto
            -1 -7 -7 -58 -8 vvcurveto
            -6 -1 4 -5 7 hhcurveto
            5 4 3 3 4 hvcurveto
            hintmask 1000011010000000
            45 52 55 22 63 hhcurveto
            57 5 -37 -55 -12 hvcurveto
            -13 -64 -89 -3 -212 -8 -25 -119 rlinecurve
            -44 -9 13 -90 115 hhcurveto
            hintmask 0100000001000000
            23 129 0 55 81 hvcurveto
            hintmask 1000000000100000
            -55 56 90 0 22 hhcurveto
            60 51 15 22 45 hvcurveto
            hintmask 0010000000000000
            31 16 1 1 2 10 rrcurveto
            hintmask 0100000000000000
            74 callsubr
            hintmask 0010000000000000
            -6 -2 -2 -8 -10 hvcurveto
            hintmask 1001000010100000
            -46 -55 -60 -12 -36 hhcurveto
            -91 -10 68 85 15 hvcurveto
            249 hlineto
            31 19 7 40 8 hvcurveto
            -112 6 rmoveto
            hintmask 1001101001000000
            -182 hlineto
            49 13 32 87 84 hhcurveto
            76 -13 -80 -56 -10 hvcurveto
            -333 -145 rmoveto
            -20 -4 -49 -41 -74 hhcurveto
            -50 -13 37 26 5 hvcurveto
            15 67 134 6 36 2 rrcurveto
            hintmask 0000000100000000
            -2 -27 -1 -9 2 -29 rrcurveto
            1 -5 0 -7 0 vvcurveto
            endchar
          </CharString>
          <CharString index="58">
            127 598 -73 callsubr
            return
          </CharString>
          <CharString index="59">
            -81 callsubr
            27 -104 callsubr
            return
          </CharString>
          <CharString index="60">
            -69 callgsubr
            57 266 202 callgsubr
            -57 -266 rlineto
            -32 -7 4 -16 41 hhcurveto
            -43 callgsubr
            return
          </CharString>
          <CharString index="61">
            -20 -55 callsubr
            return
          </CharString>
          <CharString index="62">
            rmoveto
            -31 -7 134 callsubr
            7 hvcurveto
            31 6 21 3 35 hhcurveto
            32 22 -3 -31 -6 hvcurveto
            67 17 callgsubr
            -16 hvcurveto
            -80 -17 95 0 28 hhcurveto
            27 96 0 78 16 hvcurveto
            return
          </CharString>
          <CharString index="63">
            109 callsubr
            -30 callgsubr
            91 callsubr
            111 522 rlineto
            128 hlineto
            216 -24 -154 -112 -23 hvcurveto
            return
          </CharString>
          <CharString index="64">
            -22 -105 rlineto
            -7 -1 3 -6 7 hhcurveto
            6 hlineto
            -31 -22 rlineto
            13 -4 -10 9 -15 hhcurveto
            -64 hlineto
            -20 -19 -16 -20 -4 hvcurveto
            -55 -255 rlineto
            -64 -13 -55 -53 -56 hhcurveto
            -32 -17 2 12 -7 hvcurveto
            -7 8 2 19 8 34 rrcurveto
            return
          </CharString>
          <CharString index="65">
            -37 -8 hvcurveto
            return
          </CharString>
          <CharString index="66">
            -59 -275 rlineto
            -32 -7 4 -16 41 9 callgsubr
            return
          </CharString>
          <CharString index="67">
            502 22 rmoveto
            0 2 9 -8 13 vhcurveto
            -125 228 184 143 15 11 3 3 2 8 rlinecurve
            21 4 -20 0 -14 hhcurveto
            -58 hlineto
            -18 -19 0 -21 -27 hvcurveto
            -173 -134 73 343 -91 callgsubr
            -21 -81 callsubr
            18 -104 callsubr
            22 104 19 14 18 15 19 14 rlinecurve
            94 -170 rlineto
            -22 13 6 -3 29 hhcurveto
            48 hlineto
            14 22 0 22 5 hvcurveto
            return
          </CharString>
          <CharString index="68">
            rmoveto
            17 4 -72 callgsubr
            return
          </CharString>
          <CharString index="69">
            19 callgsubr
            307 102 -11 callgsubr
          </CharString>
          <CharString index="70">
            -69 callsubr
            -31 -71 callgsubr
            -18 -83 rlineto
            -23 hlineto
            -11 -37 45 callgsubr
            return
          </CharString>
          <CharString index="71">
            -91 -427 -16 -74 8 -70 45 -46 rlinecurve
            -49 46 70 -14 85 hhcurveto
            83 77 15 48 66 hvcurveto
            62 46 37 70 16 74 78 368 rcurveline
            154 98 4 2 2 4 1 4 rlinecurve
            return
          </CharString>
          <CharString index="72">
            -39 -12 -25 -5 -10 hhcurveto
            -16 -14 11 11 return
          </CharString>
          <CharString index="73">
            794 0 107 537 72 hstemhm
            160 147 242 147 -12 147 hintmask 10001000
            754 48 rmoveto
            3 12 rlineto
            48 10 -22 0 -40 -16 -17 -1 -16 hhcurveto
            -74 hlineto
            -14 -2 0 -1 -6 hvcurveto
            29 43 28 28 56 55 70 69 68 69 20 94 8 41 9 90 -67 60 rrcurveto
            hintmask 11110000
            58 -65 -107 3 -60 hhcurveto
            -74 -84 -6 -44 -82 hvcurveto
            -102 -55 -36 -95 -11 -52 -20 -91 34 -67 43 -70 38 -63 13 -27 11 -40 rrcurveto
            1 -7 -2 0 -13 hhcurveto
            -74 hlineto
            -16 -17 1 -16 hhcurveto
            -41 -21 0 -48 -10 hvcurveto
            -3 -12 -98 callsubr
            198 hlineto
            17 31 0 42 9 hvcurveto
            17 78 -24 84 -18 64 -24 88 -9 50 13 59 rrcurveto
            124 26 69 55 131 hhcurveto
            hintmask 10001000
            128 50 -52 -127 -27 hvcurveto
            -12 -54 -25 -48 -64 -89 -45 -64 -62 -87 -17 -81 rrcurveto
            -42 -9 31 0 17 hhcurveto
            hintmask 10010000
            198 130 callgsubr
          </CharString>
          <CharString index="74">
            1069 -22 72 -50 110 202 94 146 94 -56 104 -50 72 hstemhm
            hintmask 01101000
            1032 48 rmoveto
            3 14 rlineto
            48 10 -23 0 -33 hhcurveto
            -155 -2 -147 -2 43 206 rlineto
            264 hlineto
            31 19 7 40 8 hvcurveto
            37 8 -11 10 -35 hhcurveto
            -264 hlineto
            40 187 rlineto
            50 hlineto
            234 -3 rlineto
            35 23 0 48 11 hvcurveto
            hintmask 00010000
            1 8 rlineto
            hintmask 00001000
            -85 callgsubr
            -367 hlineto
            -19 -20 1 11 -66 hvcurveto
            hintmask 10000100
            10 -53 -20 0 -18 hhcurveto
            -253 -139 -140 -234 -49 hvcurveto
            -230 -49 83 -134 249 hhcurveto
            21 18 0 11 70 hvcurveto
            hintmask 01000000
            7 39 28 4 30 hhcurveto
            382 -104 callsubr
            -463 187 rmoveto
            hintmask 10000100
            -150 -33 -20 -35 -104 hhcurveto
            -221 40 220 89 19 hvcurveto
            85 18 49 200 220 hhcurveto
            hintmask 00010000
            80 21 -20 -72 -6 hvcurveto
            -2 -31 -17 -80 -20 -94 rrcurveto
            endchar
          </CharString>
          <CharString index="75">
            -6 -3 -14 -1 -7 -3 -5 -4 -3 return
          </CharString>
          <CharString index="76">
            10 -24 -27 0 -10 hhcurveto
            -288 -61 -288 -88 -19 hvcurveto
            -103 -22 -55 -259 233 hhcurveto
            77 52 19 46 51 hvcurveto
            64 58 19 57 16 78 rrcurveto
            -140 1 rmoveto
            -98 -20 -15 -67 -85 hhcurveto
            -79 8 90 86 19 hvcurveto
            83 17 41 76 71 hhcurveto
            80 -16 -71 -99 -21 hvcurveto
            endchar
          </CharString>
          <CharString index="77">
            236 rmoveto
            57 12 40 186 -195 hhcurveto
            hintmask 01010000
            -55 -47 -31 -58 -39 hvcurveto
            24 90 6 22 23 40 rrcurveto
            hintmask 00001000
            76 45 68 9 35 hhcurveto
            18 26 -3 -13 21 hvcurveto
            -5 6 2 -2 5 hhcurveto
            hintmask 00010000
            12 3 12 15 3 hvcurveto
            8 37 5 24 0 1 -32 13 rlinecurve
            return
          </CharString>
          <CharString index="78">
            -20 hstemhm
            hintmask 11000000
            -107 callgsubr
            hintmask 00110000
            -18 callsubr
            return
          </CharString>
          <CharString index="79">
            550 -112 -21 122 72 342 72 117 -20 hstemhm
            79 120 247 120 -102 120 hintmask 11111010
            566 225 rmoveto
            18 84 -5 79 -56 46 74 95 rcurveline
            13 16 2 11 0 vvcurveto
            21 5 -14 15 -19 hhcurveto
            -19 -13 -13 -11 -8 hvcurveto
            -80 -104 rlineto
            11 -37 -43 0 -9 hhcurveto
            -169 -94 -93 -157 -33 hvcurveto
            -13 -58 -9 -91 68 -49 -69 -90 rcurveline
            -15 -19 -4 -5 -3 -10 rrcurveto
            -21 -4 14 -15 19 hhcurveto
            21 8 12 21 17 hvcurveto
            77 98 rlineto
            -9 37 43 0 6 hhcurveto
            hintmask 01101100
            157 102 72 164 35 hvcurveto
            -156 170 rmoveto
            -218 -281 -10 31 8 39 9 42 rlinecurve
            74 16 22 103 124 hhcurveto
            25 18 -6 -2 6 hvcurveto
            36 -169 rmoveto
            -75 -16 -19 -90 -124 hhcurveto
            -5 -21 0 6 -22 hvcurveto
            215 278 10 -36 -9 -43 -9 -40 rlinecurve
            endchar
          </CharString>
          <CharString index="80">
            46 callgsubr
            -16 95 callsubr
            -25 2 -36 hhcurveto
            -36 -38 -15 -28 -31 hvcurveto
            return
          </CharString>
          <CharString index="81">
            rlineto
            -26 -6 65 callsubr
            return
          </CharString>
          <CharString index="82">
            -162 rmoveto
            -39 callgsubr
            return
          </CharString>
          <CharString index="83">
            -39 callsubr
            hintmask 00010000
            -39 -13 -25 -5 -10 hhcurveto
            -16 -13 161 callgsubr
            hintmask 00001000
            15 -19 -26 22 -45 hhcurveto
            -71 -53 -65 -49 -10 hvcurveto
            hintmask 00010000
            -17 -4 124 callsubr
            13 hvcurveto
            hintmask 00010000
            -53 callsubr
            10 hvcurveto
            endchar
          </CharString>
          <CharString index="84">
            -61 hlineto
            -20 -20 -16 -20 -4 hvcurveto
            -91 -427 -12 -58 -18 -42 -32 -28 rlinecurve
            -27 -31 -44 -12 -52 hhcurveto
            -51 -39 12 26 -18 hvcurveto
            -19 28 0 42 12 59 return
          </CharString>
          <CharString index="85">
            794 0 86 211 100 211 86 hstemhm
            143 144 -133 144 -123 144 342 144 cntrmask 11100000
            hintmask 11110000
            109 callsubr
            hintmask 11100100
            -53 -249 rlineto
            hintmask 11110000
            -32 76 callsubr
            hintmask 11101010
            32 hlineto
            -53 -249 91 callsubr
            45 211 rlineto
            58 hlineto
            20 20 16 20 4 hvcurveto
            6 28 rlineto
            20 4 -13 16 -20 hhcurveto
            hintmask 11100110
            -58 hlineto
            45 211 170 callgsubr
          </CharString>
          <CharString index="86">
            -20 hstemhm
            371 111 hintmask 11100100
            -106 callsubr
            hintmask 00011000
            60 callsubr
            return
          </CharString>
          <CharString index="87">
            229 rmoveto
            36 7 -36 0 -12 hhcurveto
            -197 185 callsubr
            197 hlineto
            12 36 0 36 8 hvcurveto
            endchar
          </CharString>
          <CharString index="88">
            707 29 rmoveto
            -200 376 316 247 14 11 1 6 1 4 rlinecurve
            21 5 -20 0 -14 hhcurveto
            -61 hlineto
            -17 -20 0 -20 -26 hvcurveto
            -386 -304 58 276 67 callgsubr
            return
          </CharString>
          <CharString index="89">
            201 408 -95 callsubr
            return
          </CharString>
          <CharString index="90">
            -20 157 callsubr
            hintmask 11100100
            -105 callgsubr
            hintmask 00011000
            -14 callsubr
            return
          </CharString>
          <CharString index="91">
            hlineto
            107 callsubr
            return
          </CharString>
          <CharString index="92">
            rmoveto
            27 6 -19 -7 callgsubr
          </CharString>
          <CharString index="93">
            51 18 callsubr
            return
          </CharString>
          <CharString index="94">
            -10 0 -16 hhcurveto
            -18 hlineto
            -21 -1 -1 -20 -17 hvcurveto
            -15 -17 -96 -111 -2 -6 rrcurveto
            -13 -2 86 callsubr
            return
          </CharString>
          <CharString index="95">
            132 -129 132 return
          </CharString>
          <CharString index="96">
            29 callgsubr
            -27 -2 -34 return
          </CharString>
          <CharString index="97">
            rlineto
            -36 -7 8 11 callgsubr
            return
          </CharString>
          <CharString index="98">
            509 48 150 callsubr
            -48 -227 rlineto
            43 -36 -48 7 -31 hhcurveto
            -203 -41 -192 -49 -11 hvcurveto
            -46 -9 -41 -193 198 hhcurveto
            return
          </CharString>
          <CharString index="99">
            -91 callsubr
            72 289 -59 callsubr
            hintmask 00010000
            105 callgsubr
            hintmask 00001000
            69 callsubr
            hintmask 00010000
            -17 -3 124 callsubr
            12 hvcurveto
            hintmask 00010000
            59 callsubr
          </CharString>
          <CharString index="100">
            -115 -539 4 callsubr
            return
          </CharString>
          <CharString index="101">
            203 rmoveto
            19 91 -30 57 -76 23 103 32 27 70 10 45 rrcurveto
            147 31 -84 48 -119 hhcurveto
            -109 -113 -39 -156 -33 hvcurveto
            -12 -53 5 -64 83 -30 -109 -29 -36 -79 -14 -63 rrcurveto
            return
          </CharString>
          <CharString index="102">
            -32 callsubr
            -32 -22 return
          </CharString>
          <CharString index="103">
            733 0 86 239 72 211 86 hstem
            613 136 vstem
            712 194 rmoveto
            30 141 -134 22 -36 6 97 21 64 52 16 78 rrcurveto
            180 39 -213 0 -42 hhcurveto
            -246 -81 callsubr
            274 hlineto
            74 187 13 181 38 hvcurveto
            -99 317 rmoveto
            -114 -25 -131 0 -25 hhcurveto
            -116 hlineto
            45 211 rlineto
            117 hlineto
            39 116 -3 -94 -20 hvcurveto
            -39 -315 rmoveto
            -103 -22 -109 -7 -48 hhcurveto
            -145 hlineto
            51 239 rlineto
            126 hlineto
            35 139 0 -129 -27 hvcurveto
            endchar
          </CharString>
          <CharString index="104">
            -77 1 -65 hhcurveto
            -48 hlineto
            -56 -9 -166 3 -23 -109 rrcurveto
            -11 -2 6 -4 11 hhcurveto
            81 hlineto
            5 6 -1 6 hhcurveto
            25 -3 23 10 25 hvcurveto
            12 31 33 1 33 hhcurveto
            26 hlineto
            37 50 0 -22 21 hvcurveto
            -10 7 -9 -13 23 hhcurveto
            78 hlineto
            5 6 -1 5 hhcurveto
            15 8 6 12 2 hvcurveto
            endchar
          </CharString>
          <CharString index="105">
            356 rmoveto
            107 22 53 253 -227 hhcurveto
            -62 -68 -11 -64 -66 hvcurveto
            -53 -55 -18 -50 -16 -77 -14 -63 -10 -57 31 -57 rrcurveto
            -52 29 43 -15 64 hhcurveto
            hintmask 11110100
            74 47 59 31 20 hvcurveto
            -3 -9 -3 -19 -12 -43 rrcurveto
            -61 -18 -40 -101 -110 hhcurveto
            -31 -27 8 25 -22 hvcurveto
            6 -3 -3 2 -5 173 callsubr
            -26 -32 -18 -23 -2 -6 rrcurveto
            -8 -1 40 -53 98 hhcurveto
            274 62 288 90 19 hvcurveto
            -122 89 rmoveto
            -14 -3 -31 -144 -96 hhcurveto
            -80 15 72 99 21 hvcurveto
            97 21 15 72 91 hhcurveto
            69 0 -77 -105 -22 hvcurveto
            endchar
          </CharString>
          <CharString index="106">
            -20 hstemhm
            hintmask 11000000
            -101 callgsubr
            hintmask 00110000
            61 callsubr
            return
          </CharString>
          <CharString index="107">
            -92 callgsubr
            34 -104 callsubr
            36 168 133 105 160 -300 rlineto
            -21 12 15 0 19 hhcurveto
            60 hlineto
            21 14 0 29 6 hvcurveto
            return
          </CharString>
          <CharString index="108">
            221 rmoveto
            132 28 -34 98 -153 hhcurveto
            -25 -25 -4 -9 -26 hvcurveto
            33 156 rlineto
            196 hlineto
            47 6 23 27 6 hvcurveto
            26 5 6 24 -48 hhcurveto
            -278 hlineto
            -32 -18 -6 -40 -8 hvcurveto
            -65 -306 rlineto
            -45 -10 23 -1 27 hhcurveto
            26 9 0 24 19 hvcurveto
            39 32 39 20 42 hhcurveto
            65 -17 -76 -78 -16 hvcurveto
            -77 -17 -16 -76 -105 hhcurveto
            -31 -66 9 79 -23 hvcurveto
            6 -2 -1 6 -7 hhcurveto
            -8 -4 -5 -8 -7 hvcurveto
            -19 -23 -31 -35 -1 -7 rrcurveto
            hintmask 10000000
            -8 -2 42 -108 143 hhcurveto
            161 106 81 162 34 hvcurveto
            endchar
          </CharString>
          <CharString index="109">
            48 rmoveto
            3 12 3 16 4 19 -19 9 rlinecurve
            4 -6 -32 0 -20 hhcurveto
            -68 -1 rlineto
            -162 hlineto
            158 125 81 58 66 54 66 53 19 89 rlinecurve
            122 26 -65 108 -147 hhcurveto
            -35 -58 -5 -39 -56 hvcurveto
            -11 -7 -53 -36 -33 -67 37 -64 rcurveline
            -8 4 2 -4 7 hhcurveto
            9 4 7 12 5 hvcurveto
            69 35 43 42 64 hhcurveto
            78 17 -71 -61 -13 hvcurveto
            hintmask 10110000
            -14 -64 -52 -67 -74 -64 -234 -204 rcurveline
            -12 -10 0 -2 -4 -17 -2 -8 rcurveline
            -94 callgsubr
            343 130 callgsubr
          </CharString>
          <CharString index="110">
            712 48 rmoveto
            127 598 169 callsubr
            return
          </CharString>
          <CharString index="111">
            -98 callsubr
            -43 callgsubr
            return
          </CharString>
          <CharString index="112">
            250 rmoveto
            16 75 12 78 -36 56 rrcurveto
            51 -33 -67 12 -66 hhcurveto
            -66 -73 -12 -51 -53 hvcurveto
            -60 -56 -22 -78 -16 -75 -16 -75 -11 -78 36 -56 rrcurveto
            -51 32 67 -12 66 hhcurveto
            66 73 12 51 54 hvcurveto
            60 56 21 78 16 75 rrcurveto
            -137 hmoveto
            -11 -53 -12 -55 -32 -46 rrcurveto
            hintmask 11110000
            -28 -19 -32 -18 -31 hhcurveto
            -31 -26 18 28 -7 hvcurveto
            -12 46 12 55 11 53 11 53 12 55 32 46 rrcurveto
            28 19 33 18 31 hhcurveto
            31 25 -18 -28 7 hvcurveto
            12 -46 -12 -55 -11 -53 rrcurveto
            endchar
          </CharString>
          <CharString index="113">
            47 rmoveto
            37 8 -11 10 -35 hhcurveto
            -42 hlineto
            81 380 rlineto
            hintmask 01100001
            36 7 -8 12 -37 hhcurveto
            -73 hlineto
            -19 -15 0 -23 -17 hvcurveto
            -305 -390 -11 -15 -1 -3 -3 -18 rlinecurve
            -6 -25 rlineto
            -32 -7 4 -16 41 hhcurveto
            hintmask 11010100
            225 hlineto
            -31 -146 rlineto
            -32 -7 4 -16 41 hhcurveto
            28 hlineto
            hintmask 00001000
            38 13 13 35 7 hvcurveto
            hintmask 01110100
            31 146 rlineto
            42 hlineto
            31 18 7 40 9 hvcurveto
            -198 47 rmoveto
            -175 hlineto
            222 294 12 12 9 17 rrcurveto
            1 hlineto
            hintmask 01000010
            endchar
          </CharString>
          <CharString index="114">
            -20 hstem
            -18 callgsubr
            return
          </CharString>
          <CharString index="115" raw="1">
            4c0a6606 0b  
          </CharString>
          <CharString index="116">
            44 rmoveto
            3 11 rlineto
            27 5 2 24 -41 hhcurveto
            -236 hlineto
            194 87 100 45 25 47 13 65 rlinecurve
            122 26 -115 50 -111 hhcurveto
            -70 -70 -20 -48 -66 hvcurveto
            -8 -6 -14 -8 -2 -9 rrcurveto
            -18 -4 65 -50 3 hhcurveto
            14 2 24 29 21 11 rrcurveto
            12 24 25 5 25 hhcurveto
            41 59 -12 -52 -4 hvcurveto
            -2 -8 -14 -67 -60 -56 -95 -49 rlinecurve
            -166 -86 -11 -6 -18 -9 -4 -19 rlinecurve
            -5 -25 rlineto
            -31 -7 34 -2 24 hhcurveto
            343 hlineto
            29 18 15 29 6 hvcurveto
            endchar
          </CharString>
          <CharString index="117">
            258 342 rmoveto
            27 5 -18 -96 callgsubr
            return
          </CharString>
          <CharString index="118">
            550 -11 78 336 72 return
          </CharString>
          <CharString index="119">
            484 rmoveto
            -64 callsubr
            return
          </CharString>
          <CharString index="120">
            -45 callsubr
            endchar
          </CharString>
          <CharString index="121">
            7 15 -1 63 callgsubr
            10 -8 14 hhcurveto
            67 hlineto
            endchar
          </CharString>
          <CharString index="122">
            hvcurveto
            68 17 callgsubr
            -17 hvcurveto
            -80 -17 95 0 28 hhcurveto
            27 96 0 78 17 hvcurveto
            return
          </CharString>
          <CharString index="123">
            18 callsubr
            endchar
          </CharString>
          <CharString index="124">
            132 -128 132 return
          </CharString>
          <CharString index="125">
            720 -105 callsubr
            return
          </CharString>
          <CharString index="126">
            1 7 -11 7 -7 -2 rrcurveto
            -5 -23 -23 -7 -21 hhcurveto
            -21 1 -17 9 8 30 return
          </CharString>
          <CharString index="127">
            2 7 3 29 1 8 rrcurveto
            return
          </CharString>
          <CharString index="128">
            736 160 callgsubr
            7 2 159 callsubr
            -7 -6 -6 -7 -2 hvcurveto
            return
          </CharString>
          <CharString index="129">
            525 -11 72 348 66 return
          </CharString>
          <CharString index="130">
            -98 callsubr
            347 -104 callsubr
            return
          </CharString>
          <CharString index="131">
            644 rmoveto
            5 22 5 27 -41 1 rrcurveto
            hintmask 00110000
            -284 1 rlineto
            -63 hlineto
            -48 -20 0 -48 -10 hvcurveto
            -3 -13 -4 -16 -4 -19 19 -9 rlinecurve
            hintmask 01000000
            -4 7 33 0 21 hhcurveto
            hintmask 10110000
            70 1 rlineto
            169 hlineto
            -277 -247 -53 -252 -11 -51 rrcurveto
            -32 -7 4 -16 41 hhcurveto
            46 hlineto
            16 32 0 39 8 hvcurveto
            56 248 125 181 152 151 10 10 2 8 4 18 rrcurveto
            endchar
          </CharString>
          <CharString index="132">
            -38 callgsubr
            13 hvcurveto
            return
          </CharString>
          <CharString index="133">
            rmoveto
            9 3 -6 9 -9 hhcurveto
            -46 hlineto
            -5 -4 -2 -4 -2 hvcurveto
            -162 -237 -2 -3 0 -4 1 -3 rlinecurve
            60 -237 rlineto
            -6 2 4 -4 7 hhcurveto
            46 hlineto
            6 7 6 7 hvcurveto
            3 234 rlineto
            return
          </CharString>
          <CharString index="134">
            -59 callsubr
            hintmask 00010000
            -35 callsubr
            -13 hvcurveto
            hintmask 00001000
            15 -18 -27 73 callsubr
            6 hvcurveto
            hintmask 00001000
            39 12 25 5 10 hhcurveto
            16 14 -11 -11 12 164 callgsubr
          </CharString>
          <CharString index="135">
            36 rmoveto
            36 7 -37 0 -11 hhcurveto
            -70 hlineto
            127 596 rlineto
            19 4 6 29 -44 hhcurveto
            -20 -4 -2 -12 -15 hvcurveto
            -21 -16 -46 -37 -99 -2 rrcurveto
            hintmask 01001000
            -18 -28 -7 -29 -6 hvcurveto
            -36 -8 35 0 13 hhcurveto
            hintmask 00101000
            30 36 5 8 31 hvcurveto
            hintmask 10000100
            -110 -516 rlineto
            -78 hlineto
            -13 85 callgsubr
            35 0 13 hhcurveto
            285 hlineto
            11 37 0 36 8 hvcurveto
            endchar
          </CharString>
          <CharString index="136">
            rmoveto
            2 3 1 4 -1 3 -61 237 rcurveline
            6 -1 -5 4 -6 hhcurveto
            -46 177 callgsubr
            hvcurveto
            -4 -234 -96 -235 rlineto
            -9 -4 6 -9 10 hhcurveto
            46 hlineto
            4 4 2 4 3 hvcurveto
            return
          </CharString>
          <CharString index="137">
            36 rmoveto
            21 4 -12 15 -29 hhcurveto
            hintmask 11101000
            -73 hlineto
            87 406 rlineto
            32 6 -15 12 -26 hhcurveto
            -24 -8 -8 -8 -15 hvcurveto
            -22 -47 -51 -8 -47 hhcurveto
            -21 hlineto
            -18 -2 -16 -15 -4 -19 rrcurveto
            -25 -6 18 -11 26 hhcurveto
            hintmask 10010100
            32 35 3 6 32 hvcurveto
            -73 -341 rlineto
            -87 hlineto
            -27 -17 -16 -20 -4 hvcurveto
            -20 -5 11 -16 26 hhcurveto
            298 hlineto
            27 18 14 22 5 hvcurveto
            endchar
          </CharString>
          <CharString index="138">
            794 -22 80 580 78 return
          </CharString>
          <CharString index="139">
            -65 callgsubr
            6 hvcurveto
            return
          </CharString>
          <CharString index="140">
            36 callgsubr
            hintmask 0000000001000000
            690 160 callgsubr
            return
          </CharString>
          <CharString index="141">
            510 48 rmoveto
            59 277 rlineto
            return
          </CharString>
          <CharString index="142">
            21 -21 386 72 137 72 -34 72 hstemhm
            96 133 -61 133 return
          </CharString>
          <CharString index="143">
            rlineto
            -21 85 callgsubr
            34 0 22 hhcurveto
            return
          </CharString>
          <CharString index="144">
            417 rmoveto
            7 35 -75 callgsubr
            -35 -71 callgsubr
            -7 -35 rlineto
            -32 -7 3 -16 41 hhcurveto
            35 hlineto
            38 13 13 35 8 hvcurveto
            return
          </CharString>
          <CharString index="145">
            11 2 -8 2 -9 hhcurveto
            -77 hlineto
            hintmask 01000000
            -5 127 callsubr
            -8 -3 -3 -7 -2 -7 -16 -45 rcurveline
            -11 -31 -17 -38 -7 -29 rrcurveto
            hintmask 10000000
            -11 -2 7 -4 10 hhcurveto
            33 hlineto
            13 7 3 10 6 hvcurveto
            16 21 32 39 32 40 29 40 rlinecurve
            2 3 2 3 1 4 rrcurveto
            return
          </CharString>
          <CharString index="146">
            13 3 -11 0 -16 hhcurveto
            -82 hlineto
            -22 -4 0 -21 -8 hvcurveto
            return
          </CharString>
          <CharString index="147">
            21 77 callgsubr
            return
          </CharString>
          <CharString index="148">
            -27 callgsubr
            -431 hmoveto
            -27 callgsubr
            return
          </CharString>
          <CharString index="149">
            hstemhm
            70 40 callgsubr
            -77 136 return
          </CharString>
          <CharString index="150">
            561 -11 61 408 -20 return
          </CharString>
          <CharString index="151">
            -51 hlineto
            hintmask 00000100
            -78 callsubr
            return
          </CharString>
          <CharString index="152">
            -5 callgsubr
            100 callsubr
            return
          </CharString>
          <CharString index="153">
            12 1 3 14 -19 hhcurveto
            hintmask 10000000
            -5 -6 -1 -4 hhcurveto
            -63 hlineto
            hintmask 01000000
            -5 -6 1 -6 hhcurveto
            -4 -5 -1 -1 -5 hvcurveto
            -5 -2 -4 -5 -1 -5 -2 -7 5 -8 1 -6 10 -27 rcurveline
            28 -79 6 -21 rlineto
            hintmask 10000000
            -11 6 2 -4 13 hhcurveto
            36 hlineto
            11 7 6 8 1 hvcurveto
            return
          </CharString>
          <CharString index="154">
            150 callgsubr
            28 15 26 22 22 144 6 95 73 33 156 rrcurveto
            -134 12 rmoveto
            -79 -16 -20 -91 -107 hhcurveto
            -108 19 90 80 17 hvcurveto
            77 17 19 89 107 hhcurveto
            108 -19 -88 -78 -17 hvcurveto
            return
          </CharString>
          <CharString index="155">
            83 callsubr
            -49 -230 rmoveto
            25 5 -18 11 -26 hhcurveto
            -171 hlineto
            -9 -8 1 -9 hhcurveto
            -6 -7 -1 -1 -7 132 callsubr
            endchar
          </CharString>
          <CharString index="156">
            331 21 -21 694 191 callsubr
            hintmask 01010000
            -54 callgsubr
            hintmask 10100000
            -69 callgsubr
            endchar
          </CharString>
          <CharString index="157">
            607 rmoveto
            9 40 -4 callgsubr
            -40 -68 callsubr
            -9 -40 rlineto
            -32 -7 4 -16 41 9 callgsubr
            -120 -559 204 callsubr
            -37 33 callgsubr
            return
          </CharString>
          <CharString index="158">
            rmoveto
            42 9 -43 0 -10 hhcurveto
            -627 98 callsubr
            625 hlineto
            12 42 0 42 9 hvcurveto
            return
          </CharString>
          <CharString index="159">
            1 -19 43 hhcurveto
            51 hlineto
            42 return
          </CharString>
          <CharString index="160">
            147 40 callgsubr
            return
          </CharString>
          <CharString index="161">
            561 21 107 callgsubr
            return
          </CharString>
          <CharString index="162">
            66 callsubr
            -391 403 rmoveto
            return
          </CharString>
          <CharString index="163">
            597 624 rmoveto
            27 5 -18 -96 callgsubr
            return
          </CharString>
          <CharString index="164">
            hstemhm
            71 133 -56 133 return
          </CharString>
          <CharString index="165">
            -3 11 0 16 hhcurveto
            return
          </CharString>
          <CharString index="166">
            -15 19 27 -22 45 hhcurveto
            71 52 182 callgsubr
          </CharString>
          <CharString index="167">
            121 290 -91 callsubr
            return
          </CharString>
          <CharString index="168">
            133 320 -91 callsubr
            return
          </CharString>
          <CharString index="169">
            221 250 -105 callsubr
            return
          </CharString>
          <CharString index="170">
            hstemhm
            140 147 -59 147 return
          </CharString>
          <CharString index="171">
            68 callsubr
            endchar
          </CharString>
          <CharString index="172">
            1 -1 26 hhcurveto
            return
          </CharString>
          <CharString index="173">
            -2 callgsubr
            -431 hmoveto
            -2 callgsubr
            return
          </CharString>
          <CharString index="174">
            hlineto
            -10 -43 0 -42 -9 hvcurveto
            -42 -9 43 0 return
          </CharString>
          <CharString index="175">
            rmoveto
            20 95 rlineto
            26 5 0 1 -26 hhcurveto
            -77 hlineto
            -26 -2 -72 callsubr
            return
          </CharString>
          <CharString index="176">
            15 -19 193 callsubr
            -52 -65 -49 -11 hvcurveto
            return
          </CharString>
          <CharString index="177">
            5 10 hhcurveto
            16 13 90 callgsubr
          </CharString>
          <CharString index="178">
            161 callsubr
            10 4 9 4 2 hvcurveto
            return
          </CharString>
          <CharString index="179">
            130 -125 130 15 130 return
          </CharString>
          <CharString index="180">
            -46 callgsubr
            hintmask 00010000
            -65 callgsubr
            return
          </CharString>
          <CharString index="181">
            20 callsubr
            31 2 -1 1 -9 hhcurveto
            return
          </CharString>
          <CharString index="182">
            39 callsubr
            -45 -122 rlineto
            -14 58 callsubr
            18 hlineto
            20 2 1 13 11 hvcurveto
            99 114 rlineto
            10 12 1 4 0 vvcurveto
            return
          </CharString>
          <CharString index="183">
            hlineto
            -20 -19 -16 -20 -4 hvcurveto
            -6 -28 rlineto
            -20 -4 12 -16 20 hhcurveto
            return
          </CharString>
          <CharString index="184">
            -200 80 callsubr
          </CharString>
          <CharString index="185">
            -39 callgsubr
            8 return
          </CharString>
          <CharString index="186">
            -14 -12 -11 -17 -4 -18 rrcurveto
            -38 -8 24 -30 37 hhcurveto
            20 19 8 13 15 hvcurveto
            35 30 86 -21 63 -15 rrcurveto
            -9 33 34 -6 36 hhcurveto
            98 97 78 97 21 hvcurveto
            endchar
          </CharString>
          <CharString index="187">
            rmoveto
            -99 callsubr
            hintmask 00010000
            -89 callgsubr
          </CharString>
          <CharString index="188">
            217 callgsubr
            -159 165 callsubr
            159 172 callgsubr
            endchar
          </CharString>
          <CharString index="189">
            -21 314 94 286 114 callsubr
            return
          </CharString>
          <CharString index="190">
            -22 -5 17 -13 20 hhcurveto
            213 hlineto
            20 23 14 22 5 hvcurveto
            return
          </CharString>
          <CharString index="191">
            8 0 19 hhcurveto
            18 hlineto
            20 5 0 15 5 hvcurveto
            return
          </CharString>
          <CharString index="192">
            256 119 callsubr
            return
          </CharString>
          <CharString index="193">
            10 0 16 hhcurveto
            50 hlineto
            22 1 0 18 return
          </CharString>
          <CharString index="194" raw="1">
            063d0a13 882f1d0b  
          </CharString>
          <CharString index="195">
            3 12 4 20 3 vvcurveto
            8 -2 -6 0 -17 hhcurveto
            -49 hlineto
            -27 -2 221 callgsubr
            -6 -29 -13 -59 -32 -71 -81 -58 rlinecurve
            -49 -35 -14 -55 -5 -24 rrcurveto
            return
          </CharString>
          <CharString index="196">
            125 callsubr
            34 37 20 rrcurveto
            40 -104 callsubr
            return
          </CharString>
          <CharString index="197">
            707 rmoveto
            23 105 rlineto
            return
          </CharString>
          <CharString index="198">
            -98 callsubr
            264 hlineto
            244 116 146 196 42 hvcurveto
            -144 hmoveto
            -113 -24 -42 -143 -213 hhcurveto
            -129 hlineto
            return
          </CharString>
          <CharString index="199">
            111 callgsubr
            -36 144 return
          </CharString>
          <CharString index="200">
            733 40 callsubr
            return
          </CharString>
          <CharString index="201">
            651 rmoveto
            28 25 -12 37 -34 hhcurveto
            -14 -14 101 callsubr
            -24 12 -38 33 hhcurveto
            15 15 7 12 9 hvcurveto
            endchar
          </CharString>
          <CharString index="202">
            12 rrcurveto
            14 -21 return
          </CharString>
          <CharString index="203">
            22 26 3 5 22 hvcurveto
            -66 -310 rlineto
            -56 hlineto
            -10 -25 0 -22 -5 hvcurveto
            -21 -4 25 0 10 hhcurveto
            205 hlineto
            8 27 0 21 4 hvcurveto
            return
          </CharString>
          <CharString index="204">
            -23 callgsubr
            76 -21 return
          </CharString>
          <CharString index="205">
            67 callsubr
            11 hhcurveto
            return
          </CharString>
          <CharString index="206">
            733 21 -21 return
          </CharString>
          <CharString index="207">
            -16 -77 -33 callgsubr
            return
          </CharString>
          <CharString index="208">
            -7 -11 -11 hvcurveto
            -579 -655 rlineto
            -27 return
          </CharString>
          <CharString index="209">
            -21 311 72 225 86 return
          </CharString>
          <CharString index="210">
            148 callgsubr
            hstem
            return
          </CharString>
          <CharString index="211">
            -13 -35 -8 hvcurveto
            return
          </CharString>
          <CharString index="212">
            39 13 25 5 10 hhcurveto
            16 13 -11 -11 13 hvcurveto
            return
          </CharString>
          <CharString index="213">
            -22 94 318 89 -72 72 63 89 -4 89 hstemhm
            return
          </CharString>
          <CharString index="214">
            -38 -13 104 callsubr
            return
          </CharString>
          <CharString index="215">
            hstemhm
            217 17 callsubr
            106 17 callsubr
            return
          </CharString>
          <CharString index="216">
            805 342 rmoveto
            16 79 8 97 -41 71 rrcurveto
            93 -55 -117 12 -65 hhcurveto
            -264 hlineto
            -78 callsubr
            return
          </CharString>
          <CharString index="217">
            96 21 -102 7 -47 hhcurveto
            -99 -60 -58 -5 -1 hvcurveto
            -1 -4 4 -5 0 vvcurveto
            15 -24 rlineto
            4 -7 5 0 0 vvcurveto
            5 return
          </CharString>
          <CharString index="218">
            hstemhm
            71 555 -553 555 return
          </CharString>
          <CharString index="219">
            hvcurveto
            -7 -35 rlineto
            return
          </CharString>
          <CharString index="220">
            rmoveto
            22 4 -8 6 -26 hhcurveto
            -30 hlineto
            51 240 rlineto
            21 5 -7 7 -26 hhcurveto
            -53 hlineto
            -14 -10 0 -13 -11 hvcurveto
            return
          </CharString>
          <CharString index="221">
            -20 hstemhm
            101 55 callgsubr
            190 55 callgsubr
            return
          </CharString>
          <CharString index="222">
            137 callgsubr
            694 -20 return
          </CharString>
          <CharString index="223">
            5 rlineto
            1 hlineto
            31 15 28 21 26 hhcurveto
            14 return
          </CharString>
          <CharString index="224">
            331 40 callsubr
            return
          </CharString>
          <CharString index="225">
            -13 -3 9 -11 13 hhcurveto
            return
          </CharString>
          <CharString index="226">
            21 -21 458 -20 return
          </CharString>
          <CharString index="227">
            hlineto
            15 31 103 201 3 13 rrcurveto
            22 4 -13 20 -24 hhcurveto
            -31 -14 -26 -11 -5 hvcurveto
            -126 -250 rlineto
            return
          </CharString>
          <CharString index="228">
            hlineto
            -16 -31 -103 -201 -2 -13 rrcurveto
            -22 -5 14 -20 24 hhcurveto
            31 13 26 11 6 hvcurveto
            126 250 rlineto
            return
          </CharString>
          <CharString index="229">
            -1 4 -6 7 hhcurveto
            return
          </CharString>
          <CharString index="230">
            72 -13 72 hstemhm
            return
          </CharString>
          <CharString index="231">
            84 callsubr
            hintmask 00001000
            -38 callgsubr
            return
          </CharString>
          <CharString index="232">
            74 callgsubr
            20 return
          </CharString>
          <CharString index="233">
            131 hstemhm
            93 131 -115 131 return
          </CharString>
          <CharString index="234">
            -7 1 -6 hhcurveto
            -5 -4 -1 -1 -5 hvcurveto
            return
          </CharString>
          <CharString index="235">
            -45 rlineto
            1 -2 1 -2 0 vvcurveto
            1 -2 return
          </CharString>
          <CharString index="236">
            94 0 100 207 72 143 100 hstemhm
            return
          </CharString>
          <CharString index="237">
            131 92 131 vstem
            return
          </CharString>
          <CharString index="238">
            53 136 72 return
          </CharString>
          <CharString index="239">
            hvcurveto
            -19 -3 -15 -17 -3 -16 rrcurveto
            83 callsubr
            return
          </CharString>
          <CharString index="240">
            218 callgsubr
            -6 133 return
          </CharString>
          <CharString index="241">
            -21 -3 -35 hhcurveto
            -32 -22 3 31 return
          </CharString>
          <CharString index="242">
            958 90 callsubr
            return
          </CharString>
          <CharString index="243">
            7 1 159 callsubr
            return
          </CharString>
          <CharString index="244">
            794 -22 80 581 77 return
          </CharString>
          <CharString index="245">
            489 -11 78 330 78 return
          </CharString>
          <CharString index="246">
            372 21 -21 369 95 return
          </CharString>
          <CharString index="247">
            39 185 rlineto
            return
          </CharString>
          <CharString index="248">
            hstemhm
            70 132 -131 133 -130 132 -58 133 31 17 callsubr
            return
          </CharString>
          <CharString index="249">
            -37 -8 23 -31 38 hhcurveto
            37 38 31 37 8 hvcurveto
            130 27 -44 124 -118 hhcurveto
            return
          </CharString>
          <CharString index="250">
            -13 -18 -4 -18 -4 hvcurveto
            -21 -5 25 0 9 hhcurveto
            return
          </CharString>
          <CharString index="251">
            115 callsubr
            hstemhm
            return
          </CharString>
          <CharString index="252">
            11 52 rlineto
            13 3 -9 11 -13 hhcurveto
            return
          </CharString>
          <CharString index="253">
            -22 109 526 103 return
          </CharString>
          <CharString index="254">
            36 0 12 hhcurveto
            return
          </CharString>
          <CharString index="255">
            311 rmoveto
            4 19 169 callsubr
            return
          </CharString>
          <CharString index="256">
            107 callgsubr
            225 198 callgsubr
            return
          </CharString>
          <CharString index="257">
            -61 callgsubr
            -37 -16 callsubr
            return
          </CharString>
          <CharString index="258">
            -37 -178 rlineto
            -61 -13 1 -2 61 hhcurveto
            178 hlineto
            61 3 2 61 13 hvcurveto
            return
          </CharString>
          <CharString index="259">
            572 231 rmoveto
            48 10 41 190 -188 hhcurveto
            -82 -60 -46 -10 -11 hvcurveto
            return
          </CharString>
          <CharString index="260">
            947 0 107 85 86 34 94 187 101 return
          </CharString>
          <CharString index="261">
            794 21 -21 314 94 return
          </CharString>
          <CharString index="262">
            457 131 106 -20 hstem
            return
          </CharString>
          <CharString index="263">
            556 -21 162 -20 hstem
            return
          </CharString>
          <CharString index="264">
            hstemhm
            140 callgsubr
            return
          </CharString>
          <CharString index="265">
            6 93 callgsubr
            return
          </CharString>
          <CharString index="266">
            -4 6 -7 hhcurveto
            -106 hlineto
            return
          </CharString>
          <CharString index="267">
            622 -11 61 14 61 return
          </CharString>
          <CharString index="268">
            2 0 4 hhcurveto
            return
          </CharString>
          <CharString index="269">
            -21 325 72 0 198 callsubr
            return
          </CharString>
          <CharString index="270">
            -8 -1 -15 -1 -2 -1 -5 -2 -1 -3 -2 -10 -2 -11 rcurveline
            -15 -4 return
          </CharString>
          <CharString index="271">
            -20 hstemhm
            261 -52 callsubr
            return
          </CharString>
          <CharString index="272">
            28 callgsubr
            -6 hvcurveto
            -7 -31 75 callgsubr
            return
          </CharString>
          <CharString index="273">
            642 -213 87 -87 101 112 106 205 94 185 101 return
          </CharString>
          <CharString index="274">
            511 -213 87 115 72 -61 53 161 131 callsubr
            return
          </CharString>
          <CharString index="275">
            rlineto
            26 5 216 callgsubr
            -5 hvcurveto
            return
          </CharString>
          <CharString index="276">
            -91 callgsubr
            -51 -16 callsubr
            return
          </CharString>
          <CharString index="277">
            -78 callsubr
            hintmask 1000010000000000
            return
          </CharString>
          <CharString index="278">
            561 -11 72 336 72 return
          </CharString>
          <CharString index="279">
            hstemhm
            102 55 callgsubr
            return
          </CharString>
          <CharString index="280">
            hhcurveto
            -8 -3 -5 -8 -7 hvcurveto
            return
          </CharString>
          <CharString index="281">
            581 0 101 593 -20 return
          </CharString>
          <CharString index="282">
            794 40 callsubr
            return
          </CharString>
          <CharString index="283">
            6 -28 -21 0 -15 hhcurveto
            return
          </CharString>
          <CharString index="284">
            550 531 -21 return
          </CharString>
          <CharString index="285">
            703 -22 100 490 100 -52 100 hstemhm
            135 147 return
          </CharString>
          <CharString index="286">
            204 196 callsubr
            return
          </CharString>
          <CharString index="287">
            -17 -3 84 callsubr
            return
          </CharString>
          <CharString index="288">
            -8 5 2 -2 5 93 callgsubr
            endchar
          </CharString>
          <CharString index="289">
            -5 6 -7 hhcurveto
            return
          </CharString>
          <CharString index="290">
            128 -31 139 -1 139 -75 128 hintmask 00110010
            return
          </CharString>
          <CharString index="291">
            197 callgsubr
            72 return
          </CharString>
          <CharString index="292">
            hlineto
            -12 -36 45 callgsubr
            return
          </CharString>
          <CharString index="293">
            rmoveto
            29 6 -14 27 -37 hhcurveto
            -21 -26 -9 -10 -22 hvcurveto
            return
          </CharString>
          <CharString index="294">
            -5 -5 -1 -4 hhcurveto
            -75 hlineto
            -5 -5 0 -1 -5 hvcurveto
            return
          </CharString>
          <CharString index="295">
            -23 callgsubr
            86 -21 return
          </CharString>
          <CharString index="296">
            rmoveto
            200 callsubr
            -18 hlineto
            -21 -1 -1 -20 return
          </CharString>
          <CharString index="297">
            -8 -2 52 -48 94 hhcurveto
            124 61 55 80 17 hvcurveto
            return
          </CharString>
          <CharString index="298">
            -20 172 callsubr
            return
          </CharString>
          <CharString index="299">
            -6 7 hhcurveto
            8 hlineto
            return
          </CharString>
          <CharString index="300">
            -27 22 -45 hhcurveto
            -71 return
          </CharString>
          <CharString index="301">
            hstemhm
            86 136 return
          </CharString>
          <CharString index="302">
            -59 hlineto
            25 114 rlineto
            37 7 12 24 27 hhcurveto
            return
          </CharString>
          <CharString index="303">
            48 204 callsubr
            return
          </CharString>
          <CharString index="304">
            hstemhm
            260 111 -15 128 -113 111 return
          </CharString>
          <CharString index="305">
            72 42 callsubr
            return
          </CharString>
          <CharString index="306">
            rmoveto
            -54 hlineto
            177 832 rlineto
            54 hlineto
            endchar
          </CharString>
          <CharString index="307">
            13 3 -10 0 -16 hhcurveto
            return
          </CharString>
          <CharString index="308">
            73 -21 127 -20 hstemhm
            return
          </CharString>
          <CharString index="309">
            140 110 140 0 140 hintmask 11101000
            return
          </CharString>
          <CharString index="310">
            -34 -46 -10 hvcurveto
            -40 -8 -14 -40 -65 hhcurveto
            -23 return
          </CharString>
          <CharString index="311">
            rmoveto
            77 362 -75 callgsubr
            return
          </CharString>
          <CharString index="312">
            575 -250 36 446 36 446 36 return
          </CharString>
          <CharString index="313">
            -56 72 259 72 0 72 259 72 hstemhm
            return
          </CharString>
          <CharString index="314">
            -229 -21 1000 -20 hstem
            return
          </CharString>
          <CharString index="315">
            794 0 86 522 86 return
          </CharString>
          <CharString index="316">
            256 40 callsubr
            return
          </CharString>
          <CharString index="317">
            136 4 136 return
          </CharString>
          <CharString index="318">
            72 338 rlineto
            return
          </CharString>
          <CharString index="319">
            135 0 135 -62 135 hintmask 10000100
            return
          </CharString>
          <CharString index="320">
            137 53 137 0 137 hintmask 11101000
            return
          </CharString>
          <CharString index="321">
            10 -21 597 108 -107 108 hstemhm
            return
          </CharString>
          <CharString index="322">
            373 319 rmoveto
            23 5 -18 14 -23 return
          </CharString>
          <CharString index="323">
            rmoveto
            6 31 rlineto
            26 6 -1 1 -26 hhcurveto
            return
          </CharString>
          <CharString index="324">
            -216 94 267 74 214 89 hstemhm
            return
          </CharString>
          <CharString index="325">
            46 3 -20 -29 -6 hvcurveto
            -2 -9 -6 -28 return
          </CharString>
          <CharString index="326">
            -25 hhcurveto
            -50 hlineto
            -15 -15 -1 -25 -16 hvcurveto
            return
          </CharString>
          <CharString index="327">
            -2 1 -3 hhcurveto
            return
          </CharString>
          <CharString index="328">
            hlineto
            -20 -2 -1 return
          </CharString>
        <CharString name=".notdef">
          280 endchar
        </CharString>
        <CharString name="A">
          -22 callgsubr
          hstem
          -107 callsubr
          endchar
        </CharString>
        <CharString name="AE">
          153 callsubr
          hstem
          587 146 vstem
          -50 callgsubr
          endchar
        </CharString>
        <CharString name="AE.dup">
          153 callsubr
          hstem
          587 146 vstem
          -50 callgsubr
          endchar
        </CharString>
        <CharString name="AEacute">
          153 callsubr
          131 callgsubr
          587 146 hintmask 11110010
          -50 callgsubr
          hintmask 00001100
          269 268 rmoveto
          -92 callsubr
        </CharString>
        <CharString name="Aacute">
          -22 callgsubr
          103 -21 129 -20 hstemhm
          hintmask 11100000
          -107 callsubr
          hintmask 00011000
          268 344 rmoveto
          -92 callsubr
        </CharString>
        <CharString name="Abreve">
          -22 callgsubr
          82 93 49 -20 hstemhm
          hintmask 11100000
          -107 callsubr
          hintmask 00011000
          10 callsubr
          endchar
        </CharString>
        <CharString name="Abreveacute">
          -22 callgsubr
          82 93 228 -20 hstemhm
          hintmask 11100000
          -107 callsubr
          hintmask 00011000
          10 callsubr
          194 vmoveto
          14 callsubr
        </CharString>
        <CharString name="Abrevedotbelow">
          -22 callgsubr
          82 93 49 164 callsubr
          hintmask 11111000
          -107 callsubr
          10 callsubr
          hintmask 00000010
          -331 -1012 rmoveto
          -99 callsubr
          hintmask 00000100
          -89 callgsubr
        </CharString>
        <CharString name="Abrevegrave">
          -22 callgsubr
          82 93 49 -20 hstemhm
          hintmask 11100000
          -107 callsubr
          hintmask 00011000
          10 callsubr
          -16 108 14 callgsubr
        </CharString>
        <CharString name="Abrevehookabove">
          -22 callgsubr
          82 93 285 -20 hstemhm
          hintmask 11100000
          -107 callsubr
          hintmask 00011000
          10 callsubr
          -39 200 -106 callgsubr
        </CharString>
        <CharString name="Abrevetilde">
          -22 callgsubr
          82 93 119 123 callsubr
          hintmask 11100000
          -107 callsubr
          hintmask 00010100
          10 callsubr
          41 222 -59 callsubr
          hintmask 00001000
          105 callgsubr
          hintmask 00000100
          69 callsubr
          hintmask 00001000
          180 callsubr
          hintmask 00000100
          -32 callgsubr
          hintmask 00001000
          59 callsubr
        </CharString>
        <CharString name="Acaron">
          -22 callgsubr
          93 -21 127 -20 hstemhm
          hintmask 11100000
          -107 callsubr
          hintmask 00011000
          239 335 -94 callsubr
        </CharString>
        <CharString name="Acircumflex">
          -22 callgsubr
          93 -21 127 -20 hstemhm
          hintmask 11100000
          -107 callsubr
          hintmask 00011000
          62 callsubr
          endchar
        </CharString>
        <CharString name="Acircumflexacute">
          -22 callgsubr
          93 -21 306 -20 hstemhm
          hintmask 11100000
          -107 callsubr
          hintmask 00011000
          62 callsubr
          31 261 10 callgsubr
        </CharString>
        <CharString name="Acircumflexdotbelow">
          -22 callgsubr
          93 -21 127 164 callsubr
          hintmask 11111000
          -107 callsubr
          62 callsubr
          hintmask 00000010
          -294 -920 rmoveto
          -99 callsubr
          hintmask 00000100
          -89 callgsubr
        </CharString>
        <CharString name="Acircumflexgrave">
          -22 callgsubr
          93 -21 127 -20 hstemhm
          hintmask 11100000
          -107 callsubr
          hintmask 00011000
          62 callsubr
          14 175 rmoveto
          -12 12 -14 -8 -14 hhcurveto
          -67 hlineto
          -195 106 rlineto
          7 -13 8 16 18 hhcurveto
          161 hlineto
          endchar
        </CharString>
        <CharString name="Acircumflexhookabove">
          -22 callgsubr
          93 -21 363 -20 hstemhm
          hintmask 11100000
          -107 callsubr
          hintmask 00011000
          221 250 -82 callsubr
        </CharString>
        <CharString name="Acircumflextilde">
          -22 callgsubr
          93 -21 197 123 callsubr
          hintmask 11100000
          -107 callsubr
          hintmask 00010100
          62 callsubr
          72 289 -59 callsubr
          hintmask 00001000
          -35 callsubr
          -13 hvcurveto
          hintmask 00000100
          -12 callgsubr
          hintmask 00001000
          -26 callgsubr
          hintmask 00000100
          105 callsubr
          hintmask 00001000
          -53 callsubr
          11 hvcurveto
          endchar
        </CharString>
        <CharString name="Adblgrave">
          -22 callgsubr
          103 148 callgsubr
          hstemhm
          hintmask 11100000
          -107 callsubr
          hintmask 00011000
          177 252 -80 callgsubr
        </CharString>
        <CharString name="Adieresis">
          -22 callgsubr
          72 103 hstemhm
          326 -12 callsubr
          151 -12 callsubr
          hintmask 11100010
          -107 callsubr
          hintmask 00010100
          -23 271 rmoveto
          3 -88 callgsubr
          -11 -12 -31 -7 hvcurveto
          hintmask 00011001
          -86 callsubr
          hintmask 00010010
          -82 callgsubr
          endchar
        </CharString>
        <CharString name="Adotbelow">
          733 21 -21 151 86 457 164 callsubr
          hintmask 11100000
          -107 callsubr
          hintmask 00001000
          -73 -670 80 callsubr
        </CharString>
        <CharString name="Agrave">
          -22 callgsubr
          103 -21 129 -20 hstemhm
          hintmask 11100000
          -107 callsubr
          hintmask 00011000
          149 258 -61 callsubr
        </CharString>
        <CharString name="Ahookabove">
          -22 callgsubr
          93 -21 206 -20 hstemhm
          hintmask 11100000
          -107 callsubr
          hintmask 00011000
          179 360 -102 callgsubr
        </CharString>
        <CharString name="Alpha">
          -22 callgsubr
          hstem
          -107 callsubr
          endchar
        </CharString>
        <CharString name="Amacron">
          -22 callgsubr
          92 85 hstemhm
          hintmask 11100000
          -107 callsubr
          hintmask 00010000
          253 275 -53 callgsubr
        </CharString>
        <CharString name="Aogonek">
          179 callgsubr
          hstem
          702 -25 callsubr
          8 32 21 34 37 20 rrcurveto
          14 26 0 27 6 hvcurveto
          1 5 0 2 -2 13 -83 604 rcurveline
          43 -5 -29 0 -20 hhcurveto
          -88 hlineto
          -20 -29 0 -43 -25 hvcurveto
          -339 -604 -8 -13 0 -2 -1 -5 rlinecurve
          -27 -6 25 0 14 hhcurveto
          36 hlineto
          18 31 0 40 23 hvcurveto
          62 111 rlineto
          277 hlineto
          14 -96 3 -22 1 -17 15 -8 rlinecurve
          -41 -33 -31 -43 -10 -44 rrcurveto
          -48 callgsubr
          rrcurveto
          -186 399 rmoveto
          -217 hlineto
          117 212 25 44 21 38 16 36 rlinecurve
          1 hlineto
          -1 -24 0 -2 3 -23 rrcurveto
          endchar
        </CharString>
        <CharString name="Aogonekacute">
          179 callgsubr
          131 callgsubr
          hintmask 11110000
          702 -25 callsubr
          8 32 21 34 37 20 rrcurveto
          14 26 0 27 6 hvcurveto
          1 5 0 2 -2 13 -83 604 rcurveline
          43 -5 -29 0 -20 hhcurveto
          -88 hlineto
          -20 -29 0 -43 -25 hvcurveto
          -339 -604 -8 -13 0 -2 -1 -5 rlinecurve
          -27 -6 25 0 14 hhcurveto
          36 hlineto
          18 31 0 40 23 hvcurveto
          62 111 rlineto
          277 hlineto
          14 -96 3 -22 1 -17 15 -8 rlinecurve
          -41 -33 -31 -43 -10 -44 rrcurveto
          -48 callgsubr
          rrcurveto
          -186 399 rmoveto
          -217 hlineto
          117 212 25 44 21 38 16 36 rlinecurve
          1 hlineto
          -1 -24 0 -2 3 -23 rrcurveto
          hintmask 00001100
          268 344 rmoveto
          -92 callsubr
        </CharString>
        <CharString name="Aring">
          99 callsubr
          151 86 457 45 68 45 hstemhm
          hintmask 11100000
          -107 callsubr
          hintmask 00110000
          105 255 -36 callgsubr
          endchar
        </CharString>
        <CharString name="Aringacute">
          99 callsubr
          151 86 457 45 68 45 179 -20 hstemhm
          hintmask 11100000
          -107 callsubr
          hintmask 00111000
          105 255 -36 callgsubr
          75 236 rmoveto
          -92 callsubr
        </CharString>
        <CharString name="Atilde">
          -22 callgsubr
          72 123 callsubr
          hintmask 11100000
          -107 callsubr
          hintmask 00001000
          252 342 27 callsubr
        </CharString>
        <CharString name="B">
          -4 callsubr
        </CharString>
        <CharString name="Beta">
          -4 callsubr
        </CharString>
        <CharString name="C">
          154 callgsubr
          hstem
          -85 callsubr
          endchar
        </CharString>
        <CharString name="Cacute">
          154 callgsubr
          71 -21 129 -20 hstemhm
          hintmask 11000000
          -85 callsubr
          hintmask 00110000
          111 804 rmoveto
          -92 callsubr
        </CharString>
        <CharString name="Ccaron">
          154 callgsubr
          61 -21 127 -20 hstemhm
          hintmask 11000000
          -85 callsubr
          hintmask 00110000
          82 795 -94 callsubr
        </CharString>
        <CharString name="Ccedilla">
          178 callsubr
          hintmask 10110000
          133 callgsubr
          -40 -63 -38 -16 -87 hhcurveto
          -182 -16 125 144 31 hvcurveto
          94 20 51 175 206 hhcurveto
          76 38 -23 -36 35 hvcurveto
          -5 5 3 -2 5 hhcurveto
          hintmask 01000000
          6 6 3 15 6 hvcurveto
          33 87 4 8 0 2 1 3 rlinecurve
          2 9 -1 1 -26 9 rrcurveto
          hintmask 10110000
          15 -39 -46 14 -86 hhcurveto
          -255 -142 -135 -234 -49 hvcurveto
          -258 -55 112 -111 233 hhcurveto
          83 43 10 35 73 hvcurveto
          30 15 1 1 2 10 rrcurveto
          -230 -108 rmoveto
          13 3 -13 callsubr
          11 hvcurveto
          77 121 rlineto
          8 13 0 3 0 vvcurveto
          endchar
        </CharString>
        <CharString name="Ccircumflex">
          154 callgsubr
          61 -21 127 -20 hstemhm
          hintmask 11000000
          -85 callsubr
          hintmask 00110000
          64 710 -84 callsubr
        </CharString>
        <CharString name="Cdotaccent">
          154 callgsubr
          40 115 hstemhm
          482 -52 callsubr
          hintmask 11000000
          -85 callsubr
          hintmask 00101000
          -29 736 4 callgsubr
          hintmask 00110000
          2 callgsubr
        </CharString>
        <CharString name="Chi">
          -3 callgsubr
        </CharString>
        <CharString name="D">
          208 callsubr
          hstem
          661 144 vstem
          -44 callsubr
          endchar
        </CharString>
        <CharString name="Dcaron">
          208 callsubr
          201 callsubr
          661 144 hintmask 11001000
          -44 callsubr
          hintmask 00110000
          -9 511 -94 callsubr
        </CharString>
        <CharString name="Dcroat">
          -22 callsubr
        </CharString>
        <CharString name="Ddotbelow">
          208 callsubr
          hstemhm
          193 -52 callsubr
          317 144 hintmask 11001000
          -44 callsubr
          hintmask 00010000
          -321 -494 rmoveto
          -99 callsubr
          hintmask 00100000
          -89 callgsubr
        </CharString>
        <CharString name="Delta">
          917 0 132 562 -20 hstem
          65 796 vstem
          861 25 rmoveto
          1 4 1 2 -4 12 -149 612 rcurveline
          39 -9 -31 0 -19 hhcurveto
          -90 hlineto
          -19 -31 0 -39 -27 hvcurveto
          -407 -610 -10 -14 -1 -2 -1 -4 rlinecurve
          -25 -5 25 0 13 hhcurveto
          720 hlineto
          13 25 0 25 5 hvcurveto
          -185 107 rmoveto
          -402 hlineto
          295 440 rlineto
          endchar
        </CharString>
        <CharString name="Dlinebelow">
          794 -184 85 99 86 522 86 hstemhm
          661 144 hintmask 01110000
          -44 callsubr
          hintmask 10000000
          -196 -499 -87 callgsubr
        </CharString>
        <CharString name="E">
          -23 callgsubr
          hstem
          140 callgsubr
          vstem
          -105 callgsubr
          endchar
        </CharString>
        <CharString name="Eacute">
          188 callsubr
          129 -20 157 callsubr
          hintmask 11100100
          -105 callgsubr
          hintmask 00011000
          98 814 rmoveto
          -92 callsubr
        </CharString>
        <CharString name="Ebreve">
          -23 callgsubr
          65 93 49 -20 157 callsubr
          hintmask 11100100
          -105 callgsubr
          hintmask 00011000
          88 812 rmoveto
          27 5 -18 -7 callgsubr
        </CharString>
        <CharString name="Ecaron">
          97 callsubr
          127 -20 157 callsubr
          hintmask 11100100
          -105 callgsubr
          hintmask 00011000
          69 805 -94 callsubr
        </CharString>
        <CharString name="Ecircumflex">
          97 callsubr
          127 -17 callsubr
          endchar
        </CharString>
        <CharString name="Ecircumflexacute">
          97 callsubr
          306 -17 callsubr
          31 261 10 callgsubr
        </CharString>
        <CharString name="Ecircumflexdotbelow">
          97 callsubr
          127 -20 157 callsubr
          -71 -52 callsubr
          hintmask 11111100
          -105 callgsubr
          -14 callsubr
          hintmask 00000001
          -294 -920 rmoveto
          -99 callsubr
          hintmask 00000010
          -89 callgsubr
        </CharString>
        <CharString name="Ecircumflexgrave">
          97 callsubr
          127 -17 callsubr
          14 175 rmoveto
          -12 12 -14 -8 -14 hhcurveto
          -67 hlineto
          -195 106 rlineto
          7 -13 8 16 18 hhcurveto
          161 hlineto
          endchar
        </CharString>
        <CharString name="Ecircumflexhookabove">
          97 callsubr
          363 -20 hstemhm
          139 147 hintmask 11100100
          605 48 rmoveto
          3 14 rlineto
          48 10 -23 0 -33 hhcurveto
          -155 -2 -146 -2 43 205 rlineto
          263 hlineto
          31 19 7 40 8 hvcurveto
          37 8 -11 10 -35 hhcurveto
          -263 hlineto
          39 185 rlineto
          49 hlineto
          235 -3 rlineto
          35 23 0 48 10 hvcurveto
          2 8 rlineto
          32 6 -3 16 -41 hhcurveto
          -393 hlineto
          -36 -14 -11 -37 -8 hvcurveto
          -127 -595 rlineto
          -36 -7 8 -12 37 hhcurveto
          408 hlineto
          38 13 13 35 7 hvcurveto
          hintmask 00011000
          51 720 -82 callsubr
        </CharString>
        <CharString name="Ecircumflextilde">
          97 callsubr
          197 72 -13 72 157 callsubr
          hintmask 11100010
          -105 callgsubr
          hintmask 00010100
          -14 callsubr
          72 289 -59 callsubr
          hintmask 00001000
          -35 callsubr
          -13 hvcurveto
          hintmask 00000100
          -12 callgsubr
          hintmask 00001000
          -26 callgsubr
          hintmask 00000100
          105 callsubr
          hintmask 00001000
          -53 callsubr
          11 hvcurveto
          endchar
        </CharString>
        <CharString name="Edblgrave">
          188 callsubr
          157 -20 157 callsubr
          hintmask 11100100
          -105 callgsubr
          hintmask 00011000
          38 722 -80 callgsubr
        </CharString>
        <CharString name="Edieresis">
          -23 callgsubr
          55 103 157 callsubr
          -6 -12 callsubr
          151 -12 callsubr
          hintmask 1110010000000000
          605 48 rmoveto
          3 14 rlineto
          48 10 -23 0 -33 hhcurveto
          -155 -2 -146 -2 43 205 rlineto
          263 hlineto
          31 19 7 40 8 hvcurveto
          37 8 -11 10 -35 hhcurveto
          -263 hlineto
          140 callsubr
          49 hlineto
          235 -3 rlineto
          35 23 183 callgsubr
          2 8 -4 callgsubr
          hintmask 1010100000000000
          -393 -71 callgsubr
          -127 -595 -98 callsubr
          408 -104 callsubr
          hintmask 0001001000000000
          -193 59 callgsubr
          hintmask 0001010010000000
          -86 callsubr
          hintmask 0001000100000000
          -82 callgsubr
          endchar
        </CharString>
        <CharString name="Edotaccent">
          -23 callgsubr
          55 115 157 callsubr
          130 -52 callsubr
          hintmask 11101010
          -105 callgsubr
          hintmask 00010010
          -42 746 4 callgsubr
          hintmask 00010100
          2 callgsubr
        </CharString>
        <CharString name="Edotbelow">
          -23 callgsubr
          157 callsubr
          -71 -52 callsubr
          hintmask 11110000
          -105 callgsubr
          hintmask 00000100
          -243 149 callgsubr
          hintmask 00001000
          -89 callgsubr
        </CharString>
        <CharString name="Egrave">
          188 callsubr
          129 -20 157 callsubr
          hintmask 11100100
          -105 callgsubr
          hintmask 00011000
          -21 728 -61 callsubr
        </CharString>
        <CharString name="Ehookabove">
          97 callsubr
          206 -20 157 callsubr
          hintmask 11100100
          -105 callgsubr
          hintmask 00011000
          9 830 -102 callgsubr
        </CharString>
        <CharString name="Emacron">
          -23 callgsubr
          75 85 157 callsubr
          hintmask 11101000
          -105 callgsubr
          hintmask 00010000
          83 745 -53 callgsubr
        </CharString>
        <CharString name="Eng">
          794 21 -21 580 136 hstemhm
          139 148 -97 148 291 148 hintmask 01010000
          777 347 rmoveto
          188 40 -59 181 -169 hhcurveto
          -73 -74 -20 -36 -65 hvcurveto
          23 3 -7 11 -35 hhcurveto
          hintmask 10100000
          -51 -81 callsubr
          hintmask 11011000
          -43 callgsubr
          87 408 rlineto
          76 38 96 48 91 hhcurveto
          96 -3 -121 -112 -24 hvcurveto
          -20 -92 -36 -99 -65 -31 -26 -13 -25 -18 -5 -25 -10 -46 rcurveline
          -5 -25 16 -20 25 5 148 29 115 165 36 170 rrcurveto
          endchar
        </CharString>
        <CharString name="Eogonek">
          166 callsubr
          157 callsubr
          -25 147 0 99 hintmask 00111010
          605 48 rmoveto
          3 14 rlineto
          48 10 -23 0 -33 hhcurveto
          -155 -2 -146 -2 43 205 rlineto
          263 hlineto
          31 19 7 40 8 hvcurveto
          37 8 -11 10 -35 hhcurveto
          -263 hlineto
          140 callsubr
          49 hlineto
          235 -3 rlineto
          35 23 183 callgsubr
          2 8 -4 callgsubr
          hintmask 01101101
          -393 -71 callgsubr
          -127 -595 -98 callsubr
          269 hlineto
          -42 -34 -19 -34 -10 -44 rrcurveto
          -48 callgsubr
          rrcurveto
          hintmask 10100001
          89 callsubr
          endchar
        </CharString>
        <CharString name="Eogonekacute">
          166 callsubr
          86 -21 129 -20 157 callsubr
          -25 147 0 99 hintmask 0011100010000000
          605 48 rmoveto
          3 14 rlineto
          48 10 -23 0 -33 hhcurveto
          -155 -2 -146 -2 43 205 rlineto
          263 hlineto
          31 19 7 40 8 hvcurveto
          37 8 -11 10 -35 hhcurveto
          -263 hlineto
          140 callsubr
          49 hlineto
          235 -3 rlineto
          35 23 183 callgsubr
          2 8 -4 callgsubr
          hintmask 0110100101000000
          -393 -71 callgsubr
          -127 -595 -98 callsubr
          269 hlineto
          -42 -34 -19 -34 -10 -44 rrcurveto
          -48 callgsubr
          rrcurveto
          hintmask 1010000001000000
          89 callsubr
          hintmask 0000011000000000
          98 814 rmoveto
          -92 callsubr
        </CharString>
        <CharString name="Epsilon">
          -23 callgsubr
          hstem
          140 callgsubr
          vstem
          -105 callgsubr
          endchar
        </CharString>
        <CharString name="Ereversed">
          -23 callgsubr
          hstem
          104 147 296 147 vstem
          605 48 rmoveto
          127 595 rlineto
          37 8 -10 11 -36 hhcurveto
          -393 hlineto
          -41 -11 -16 -32 -6 hvcurveto
          -2 -8 rlineto
          -48 -10 23 0 35 hhcurveto
          235 3 rlineto
          49 hlineto
          -39 -185 rlineto
          -263 hlineto
          -35 -15 -10 -42 callsubr
          -40 -8 15 -7 31 hhcurveto
          263 hlineto
          -43 -205 -146 2 -155 2 rlineto
          -33 -23 0 -48 -10 hvcurveto
          -3 -14 rlineto
          -35 -7 7 -13 38 hhcurveto
          408 hlineto
          37 14 12 36 7 hvcurveto
          endchar
        </CharString>
        <CharString name="Eta">
          794 21 82 callsubr
          hintmask 01101010
          3 callsubr
          -50 -238 rlineto
          -317 hlineto
          50 238 -73 callsubr
          hintmask 11010100
          -47 callsubr
          endchar
        </CharString>
        <CharString name="Eth">
          -22 callsubr
        </CharString>
        <CharString name="Etilde">
          -23 callgsubr
          55 72 -13 72 157 callsubr
          hintmask 11100100
          -105 callgsubr
          hintmask 00001000
          82 812 27 callsubr
        </CharString>
        <CharString name="Euro">
          658 222 86 -11 100 -11 86 hstem
          196 148 cntrmask 11100000
          613 48 rmoveto
          11 86 rlineto
          6 1 182 callsubr
          -3 -4 -2 -3 -3 hvcurveto
          -40 -43 -55 -23 -52 hhcurveto
          -50 -42 23 42 -18 hvcurveto
          -10 24 -5 27 28 vvcurveto
          208 hlineto
          6 6 5 6 3 hvcurveto
          23 60 rlineto
          9 2 -4 6 -7 hhcurveto
          -229 hlineto
          8 39 9 39 rlineto
          247 hlineto
          6 6 5 6 3 hvcurveto
          23 60 rlineto
          9 2 -4 6 -8 hhcurveto
          -247 hlineto
          12 28 16 27 21 25 rrcurveto
          42 35 53 22 49 hhcurveto
          45 38 -23 -38 16 hvcurveto
          -3 2 3 -3 5 hhcurveto
          6 7 5 6 2 hvcurveto
          42 107 2 5 -2 6 -4 3 rlinecurve
          23 -41 -48 12 -52 hhcurveto
          -89 -95 -26 -67 -71 hvcurveto
          -46 -44 -32 -52 -22 -55 rrcurveto
          -53 hlineto
          -7 -6 -4 -7 -2 hvcurveto
          -24 -60 rlineto
          -9 -2 5 -6 7 hhcurveto
          54 hlineto
          -9 -39 -8 -39 rlineto
          -43 hlineto
          -7 -6 -4 -7 -2 hvcurveto
          -24 -60 rlineto
          -9 -2 5 -6 7 hhcurveto
          64 hlineto
          -1 -55 9 -52 28 -43 rrcurveto
          -68 42 84 -26 89 hhcurveto
          60 62 21 38 53 hvcurveto
          4 3 3 4 4 vvcurveto
          endchar
        </CharString>
        <CharString name="F">
          611 21 -21 299 94 194 104 191 callgsubr
          268 147 hintmask 00101100
          699 635 rmoveto
          2 8 -4 callgsubr
          -377 -71 callgsubr
          hintmask 00010000
          -127 -595 rlineto
          hintmask 10001000
          -94 callgsubr
          51 hlineto
          hintmask 01110100
          38 13 13 35 7 hvcurveto
          54 251 rlineto
          232 hlineto
          31 18 7 40 9 hvcurveto
          37 7 -10 10 -35 hhcurveto
          -232 hlineto
          41 197 rlineto
          43 hlineto
          226 -3 rlineto
          34 23 183 callgsubr
          endchar
        </CharString>
        <CharString name="G">
          101 callgsubr
          hstem
          -100 callgsubr
          endchar
        </CharString>
        <CharString name="Gacute">
          101 callgsubr
          71 -21 129 -20 hstemhm
          hintmask 11100000
          -100 callgsubr
          hintmask 00011000
          80 812 rmoveto
          -92 callsubr
        </CharString>
        <CharString name="Gamma">
          581 21 -21 587 104 191 callgsubr
          -38 147 hintmask 01010000
          669 635 rmoveto
          2 8 -4 callgsubr
          -347 124 callgsubr
          hintmask 00100000
          38 13 13 35 7 hvcurveto
          115 542 rlineto
          hintmask 01001000
          32 hlineto
          209 -3 rlineto
          32 23 183 callgsubr
          endchar
        </CharString>
        <CharString name="Gbreve">
          101 callgsubr
          50 93 49 -20 hstemhm
          hintmask 11100000
          -100 callgsubr
          hintmask 00011000
          70 810 rmoveto
          27 5 -18 -7 callgsubr
        </CharString>
        <CharString name="Gcaron">
          101 callgsubr
          61 -21 127 -20 hstemhm
          hintmask 11100000
          -100 callgsubr
          hintmask 00011000
          51 803 -94 callsubr
        </CharString>
        <CharString name="Gcedilla">
          733 37 callgsubr
          68 103 callgsubr
          hstem
          -100 callgsubr
          -280 -223 -103 callgsubr
        </CharString>
        <CharString name="Gcircumflex">
          101 callgsubr
          61 -21 127 -20 hstemhm
          hintmask 11100000
          -100 callgsubr
          hintmask 00011000
          33 718 -84 callsubr
        </CharString>
        <CharString name="Gcommaaccent">
          733 37 callgsubr
          68 103 callgsubr
          hstemhm
          hintmask 00111000
          -100 callgsubr
          hintmask 11000000
          -280 -223 -103 callgsubr
        </CharString>
        <CharString name="Gdotaccent">
          101 callgsubr
          40 115 hstemhm
          462 -52 callsubr
          hintmask 11100000
          -100 callgsubr
          hintmask 00010100
          -60 744 4 callgsubr
          hintmask 00011000
          2 callgsubr
        </CharString>
        <CharString name="H">
          794 21 82 callsubr
          hintmask 01101010
          3 callsubr
          -50 -238 rlineto
          -317 hlineto
          50 238 -73 callsubr
          hintmask 11010100
          -47 callsubr
          endchar
        </CharString>
        <CharString name="H_uni0303">
          128 callgsubr
          72 123 callsubr
          101 55 callgsubr
          190 55 callgsubr
          hintmask 0110001010000000
          3 callsubr
          -50 -238 rlineto
          -317 hlineto
          50 238 -73 callsubr
          hintmask 1100010100000000
          -47 callsubr
          hintmask 0000100000000000
          51 812 -59 callsubr
          hintmask 0001000000000000
          -35 callsubr
          -13 hvcurveto
          hintmask 0000100000000000
          44 callgsubr
          hintmask 0001000000000000
          32 callsubr
          hintmask 0000100000000000
          -32 callgsubr
          hintmask 0001000000000000
          -53 callsubr
          11 hvcurveto
          endchar
        </CharString>
        <CharString name="Hbar">
          154 callsubr
          63 100 123 -20 hstemhm
          101 190 callgsubr
          190 190 callgsubr
          hintmask 0010000000100000
          901 507 rmoveto
          6 28 rlineto
          20 4 -13 16 -20 hhcurveto
          -55 hlineto
          hintmask 0000000000010000
          16 75 rlineto
          hintmask 0001000001000000
          -85 callgsubr
          -51 hlineto
          hintmask 0000000000010000
          107 callsubr
          hintmask 0010001000100000
          -16 -75 rlineto
          -317 hlineto
          hintmask 0000000100000000
          16 75 rlineto
          hintmask 0001010000000000
          -85 callgsubr
          -51 hlineto
          hintmask 0000000100000000
          -78 callsubr
          hintmask 0010001000000000
          -16 -75 rlineto
          -55 76 callsubr
          hintmask 0010010000000000
          55 hlineto
          hintmask 1100100010000000
          -90 -423 4 callsubr
          57 266 202 callgsubr
          -57 -266 rlineto
          -32 -7 4 -16 41 hhcurveto
          -43 callgsubr
          hintmask 0110010001000000
          90 423 rlineto
          55 hlineto
          20 20 16 20 4 hvcurveto
          -259 -99 rmoveto
          -317 hlineto
          13 63 202 callgsubr
          endchar
        </CharString>
        <CharString name="Hbrevebelow">
          794 -213 93 49 -20 112 82 callsubr
          hintmask 0001101010000000
          3 callsubr
          -50 -238 rlineto
          -317 hlineto
          50 238 -73 callsubr
          hintmask 0011010100000000
          -47 callsubr
          hintmask 1100000000000000
          -149 -157 -15 callsubr
        </CharString>
        <CharString name="Hcircumflex">
          128 callgsubr
          93 -21 127 114 callsubr
          hintmask 0110001010000000
          3 callsubr
          -50 -238 rlineto
          -317 hlineto
          50 238 -73 callsubr
          hintmask 1100010100000000
          -47 callsubr
          hintmask 0001100000000000
          20 16 callsubr
        </CharString>
        <CharString name="Hdieresis">
          128 callgsubr
          72 103 hstemhm
          101 55 callgsubr
          -19 -12 callsubr
          74 147 -70 -12 callsubr
          -85 147 hintmask 0010000000010000
          3 callsubr
          hintmask 0110010001000000
          -50 -238 rlineto
          -317 hlineto
          50 238 -73 callsubr
          hintmask 1100100010000000
          -47 callsubr
          hintmask 0001000100000000
          -224 59 callgsubr
          hintmask 0001001000100000
          -86 callsubr
          hintmask 0001000001000000
          -82 callgsubr
          endchar
        </CharString>
        <CharString name="Hdotbelow">
          128 callgsubr
          hstemhm
          101 55 callgsubr
          -84 -52 callsubr
          123 55 callgsubr
          hintmask 0110100010000000
          3 callsubr
          -50 -238 rlineto
          -317 hlineto
          50 238 -73 callsubr
          hintmask 1101000100000000
          -47 callsubr
          hintmask 0000001000000000
          -274 -200 6 callgsubr
        </CharString>
        <CharString name="I">
          49 callsubr
        </CharString>
        <CharString name="I_J">
          817 -22 100 616 191 callsubr
          341 144 hintmask 01010000
          -54 callgsubr
          hintmask 11101000
          -69 callgsubr
          507 101 -52 callgsubr
          endchar
        </CharString>
        <CharString name="Iacute">
          117 callsubr
          103 -21 129 -20 hstemhm
          102 -70 callgsubr
          hintmask 00110000
          329 814 rmoveto
          -92 callsubr
        </CharString>
        <CharString name="Ibreve">
          117 callsubr
          82 93 49 -20 hstemhm
          102 -70 callgsubr
          hintmask 00110000
          288 812 rmoveto
          27 5 -18 -7 callgsubr
        </CharString>
        <CharString name="Icaron">
          117 callsubr
          93 -21 127 -20 hstemhm
          102 -70 callgsubr
          hintmask 00110000
          269 805 -94 callsubr
        </CharString>
        <CharString name="Icircumflex">
          117 callsubr
          93 -21 127 -20 hstemhm
          102 -70 callgsubr
          hintmask 00110000
          251 16 callsubr
        </CharString>
        <CharString name="Idblgrave">
          117 callsubr
          103 -21 157 -20 hstemhm
          102 -70 callgsubr
          hintmask 00110100
          238 722 -80 callgsubr
        </CharString>
        <CharString name="Idieresis">
          117 callsubr
          72 103 hstemhm
          102 147 -125 -12 callsubr
          -30 147 34 -12 callsubr
          hintmask 0100001000000000
          -54 callgsubr
          hintmask 1001000000000000
          -69 callgsubr
          hintmask 0010010000000000
          7 59 callgsubr
          hintmask 0010100010000000
          -86 callsubr
          hintmask 0010000100000000
          -82 callgsubr
          endchar
        </CharString>
        <CharString name="Idieresisacute">
          117 callsubr
          72 103 131 callgsubr
          102 147 -125 -12 callsubr
          -30 147 34 -12 callsubr
          hintmask 0100000010000000
          -54 callgsubr
          hintmask 1000010000000000
          -69 callgsubr
          hintmask 0010000100000000
          7 59 callgsubr
          hintmask 0010001000100000
          -86 callsubr
          hintmask 0011100001000000
          -82 callgsubr
          38 228 rmoveto
          -92 callsubr
        </CharString>
        <CharString name="Idotaccent">
          117 callsubr
          72 115 172 callsubr
          -115 -52 callsubr
          hintmask 01001000
          -54 callgsubr
          hintmask 10010000
          -69 callgsubr
          hintmask 00100010
          159 746 4 callgsubr
          hintmask 00100100
          2 callgsubr
        </CharString>
        <CharString name="Idotbelow">
          117 callsubr
          hstemhm
          60 -52 callsubr
          -109 -70 callgsubr
          hintmask 00010000
          -42 149 callgsubr
          hintmask 00100000
          -89 callgsubr
        </CharString>
        <CharString name="Igrave">
          117 callsubr
          103 -21 129 -20 hstemhm
          102 -70 callgsubr
          hintmask 00110000
          149 728 -61 callsubr
        </CharString>
        <CharString name="Ihookabove">
          117 callsubr
          93 -21 206 -20 hstemhm
          102 -70 callgsubr
          hintmask 00111000
          209 830 -102 callgsubr
        </CharString>
        <CharString name="Imacron">
          117 callsubr
          92 85 172 callsubr
          hintmask 01001000
          -54 callgsubr
          hintmask 10010000
          -69 callgsubr
          hintmask 00100000
          283 745 -53 callgsubr
        </CharString>
        <CharString name="Imacron.alt">
          117 callsubr
          92 85 172 callsubr
          hintmask 01001000
          -54 callgsubr
          hintmask 10010000
          -69 callgsubr
          hintmask 00110000
          191 745 81 callsubr
        </CharString>
        <CharString name="Iogonek">
          331 -213 87 147 -21 694 191 callsubr
          hintmask 11010000
          248 -25 callsubr
          8 32 19 31 28 23 rrcurveto
          6 -104 callsubr
          hintmask 00101000
          -49 callsubr
          hintmask 10010000
          -30 callgsubr
          -4 -22 1 -13 9 -7 rlinecurve
          -42 -28 -31 -43 -10 -47 rrcurveto
          -48 callgsubr
          rrcurveto
          endchar
        </CharString>
        <CharString name="Iogonekacute">
          331 -213 87 147 77 callgsubr
          103 -21 129 191 callsubr
          hintmask 11000100
          248 -25 callsubr
          8 32 19 31 28 23 rrcurveto
          6 -104 callsubr
          hintmask 00100010
          -49 callsubr
          hintmask 10000100
          -30 callgsubr
          -4 -22 1 -13 9 -7 rlinecurve
          -42 -28 -31 -43 -10 -47 rrcurveto
          -48 callgsubr
          rrcurveto
          hintmask 00011000
          330 1024 rmoveto
          -92 callsubr
        </CharString>
        <CharString name="Iota">
          49 callsubr
        </CharString>
        <CharString name="Itilde">
          117 callsubr
          72 72 -13 72 hstemhm
          102 -70 callgsubr
          hintmask 00010000
          282 812 -86 callgsubr
        </CharString>
        <CharString name="J">
          208 callgsubr
          hstem
          420 144 vstem
          459 149 -52 callgsubr
          endchar
        </CharString>
        <CharString name="J_uni030C.cap">
          519.44444 -22 100 424 -21 95 118 hstem
          420 144 vstem
          459 149 -52 callgsubr
          255 451 -24 callgsubr
        </CharString>
        <CharString name="Jacute">
          208 callgsubr
          103 -21 129 -20 hstemhm
          420 144 hintmask 11001000
          459 149 -52 callgsubr
          hintmask 00110000
          310 713 rmoveto
          -92 callsubr
        </CharString>
        <CharString name="Jcircumflex">
          208 callgsubr
          93 -21 127 -20 hstemhm
          420 144 hintmask 11001000
          459 149 -52 callgsubr
          hintmask 00110000
          231 619 -84 callsubr
        </CharString>
        <CharString name="K">
          764 21 115 callgsubr
          hintmask 01010000
          -19 callsubr
          hintmask 10100000
          0 callsubr
          endchar
        </CharString>
        <CharString name="Kappa">
          764 21 115 callgsubr
          hintmask 01010000
          -19 callsubr
          hintmask 10100000
          0 callsubr
          endchar
        </CharString>
        <CharString name="Kcedilla">
          764 144 callsubr
          101 130 -3 130 hintmask 00010100
          -19 callsubr
          hintmask 11101000
          0 callsubr
          -303 -202 -103 callgsubr
        </CharString>
        <CharString name="Kcommaaccent">
          764 144 callsubr
          101 130 -3 130 hintmask 00010100
          -19 callsubr
          hintmask 00101000
          0 callsubr
          hintmask 11000000
          -303 -202 -103 callgsubr
        </CharString>
        <CharString name="L">
          174 callsubr
          hstem
          228 147 vstem
          -73 callgsubr
          endchar
        </CharString>
        <CharString name="L_uni0303">
          174 callsubr
          72 123 callsubr
          228 147 hintmask 11001000
          -73 callgsubr
          hintmask 00010000
          -13 812 -86 callgsubr
        </CharString>
        <CharString name="Lacute">
          174 callsubr
          103 -21 129 -20 hstemhm
          228 147 hintmask 11001000
          -73 callgsubr
          hintmask 00110000
          33 814 rmoveto
          -92 callsubr
        </CharString>
        <CharString name="Lambda">
          672 40 callsubr
          hstem
          46 591 vstem
          637 28 rmoveto
          1 3 -1 2 -1 13 -58 605 rcurveline
          39 -3 -20 4 -28 hhcurveto
          -87 hlineto
          -27 -23 -3 -40 -21 hvcurveto
          -314 -605 -7 -13 -1 -2 -1 -3 rlinecurve
          -28 -6 28 0 13 hhcurveto
          35 hlineto
          26 24 3 40 20 hvcurveto
          145 281 67 135 37 76 5 15 4 14 rlinecurve
          1 hlineto
          -2 -16 2 -43 1 -14 1 -30 1 -17 2 -28 33 -373 rcurveline
          -40 4 22 -3 26 hhcurveto
          55 hlineto
          13 28 0 28 6 hvcurveto
          endchar
        </CharString>
        <CharString name="Lcaron">
          581 0 101 401 -21 95 118 hstem
          228 147 vstem
          -73 callgsubr
          1 552 -24 callgsubr
        </CharString>
        <CharString name="Lcedilla">
          581 37 callgsubr
          79 101 593 -20 hstem
          228 147 vstem
          -73 callgsubr
          -232 -221 -103 callgsubr
        </CharString>
        <CharString name="Lcommaaccent">
          581 37 callgsubr
          79 101 593 -20 hstemhm
          228 147 hintmask 00111000
          -73 callgsubr
          hintmask 11000000
          -232 -221 -103 callgsubr
        </CharString>
        <CharString name="Ldot">
          581 0 101 210 115 268 -20 hstemhm
          228 147 82 -52 callsubr
          hintmask 11110100
          -73 callgsubr
          60 148 callsubr
          hintmask 01001000
          95 callgsubr
        </CharString>
        <CharString name="Ldotbelow">
          174 callsubr
          hstemhm
          185 -52 callsubr
          -108 147 hintmask 11001000
          -73 callgsubr
          hintmask 00010000
          -212 149 callgsubr
          hintmask 00100000
          -89 callgsubr
        </CharString>
        <CharString name="Ldotbelowmacron">
          174 callsubr
          92 85 hstemhm
          185 -52 callsubr
          -108 147 hintmask 11000100
          -73 callgsubr
          -212 -200 8 callgsubr
          hintmask 00100000
          200 945 -53 callgsubr
        </CharString>
        <CharString name="Lslash">
          672 0 103 591 -20 hstemhm
          320 147 0 147 hintmask 01010000
          636 48 rmoveto
          2 9 rlineto
          23 5 4 25 -46 hhcurveto
          -250 -4 55 258 208 141 14 10 6 16 -8 12 rlinecurve
          -19 33 -6 12 -16 2 -15 -10 rlinecurve
          -138 -93 35 164 -91 callgsubr
          -51 hlineto
          hintmask 10100000
          -78 callsubr
          -59 -280 -125 -85 -14 -10 -6 -15 8 -12 rlinecurve
          19 -34 7 -12 14 -3 15 10 rlinecurve
          56 38 -42 -195 23 callsubr
          endchar
        </CharString>
        <CharString name="M">
          978 40 callsubr
          hstem
          101 123 145 123 281 123 vstem
          -51 callgsubr
          endchar
        </CharString>
        <CharString name="Mdotbelow">
          978 40 callsubr
          hstemhm
          101 123 145 123 -109 -52 callsubr
          239 123 hintmask 11110010
          -51 callgsubr
          hintmask 00000100
          -366 149 callgsubr
          hintmask 00001000
          -89 callgsubr
        </CharString>
        <CharString name="Mu">
          978 40 callsubr
          hstem
          101 123 145 123 281 123 vstem
          -51 callgsubr
          endchar
        </CharString>
        <CharString name="N">
          175 callsubr
          hstem
          117 callgsubr
          vstem
          -93 callgsubr
          endchar
        </CharString>
        <CharString name="Nacute">
          175 callsubr
          103 -21 129 -20 hstemhm
          117 callgsubr
          hintmask 11001100
          -93 callgsubr
          hintmask 00110000
          67 814 rmoveto
          -92 callsubr
        </CharString>
        <CharString name="Ncaron">
          175 callsubr
          93 -21 127 -20 hstemhm
          117 callgsubr
          hintmask 11001100
          -93 callgsubr
          hintmask 00110000
          38 805 -94 callsubr
        </CharString>
        <CharString name="Ncedilla">
          794 115 callsubr
          hstem
          117 callgsubr
          vstem
          -93 callgsubr
          -293 -221 -103 callgsubr
        </CharString>
        <CharString name="Ncommaaccent">
          794 144 callsubr
          117 callgsubr
          hintmask 00111100
          -93 callgsubr
          hintmask 11000000
          -293 -221 -103 callgsubr
        </CharString>
        <CharString name="Ndotaccent">
          175 callsubr
          72 115 hstemhm
          101 123 269 -52 callsubr
          72 123 hintmask 11010010
          -93 callgsubr
          hintmask 00100100
          -72 746 4 callgsubr
          hintmask 00101000
          2 callgsubr
        </CharString>
        <CharString name="Ndotbelow">
          175 callsubr
          hstemhm
          101 123 67 -52 callsubr
          274 123 hintmask 11101100
          -93 callgsubr
          hintmask 00001000
          -274 77 callsubr
        </CharString>
        <CharString name="Ntilde">
          175 callsubr
          72 123 callsubr
          117 callgsubr
          hintmask 11001100
          -93 callgsubr
          hintmask 00010000
          51 812 -86 callgsubr
        </CharString>
        <CharString name="Nu">
          175 callsubr
          hstem
          117 callgsubr
          vstem
          -93 callgsubr
          endchar
        </CharString>
        <CharString name="O">
          31 callsubr
          hstem
          -103 callsubr
          endchar
        </CharString>
        <CharString name="OE">
          -33 callsubr
        </CharString>
        <CharString name="OE.dup">
          -33 callsubr
        </CharString>
        <CharString name="Oacute">
          31 callsubr
          61 -21 129 -20 hstemhm
          -101 callsubr
          hintmask 00110000
          118 504 rmoveto
          -92 callsubr
        </CharString>
        <CharString name="Obreve">
          31 callsubr
          40 93 49 -20 hstemhm
          -101 callsubr
          hintmask 00110000
          108 502 rmoveto
          27 5 -18 -7 callgsubr
        </CharString>
        <CharString name="Ocaron">
          31 callsubr
          51 -21 127 -20 hstemhm
          -101 callsubr
          hintmask 00110000
          89 495 -94 callsubr
        </CharString>
        <CharString name="Ocircumflex">
          31 callsubr
          51 -21 127 -20 hstemhm
          -101 callsubr
          hintmask 00110000
          64 callgsubr
          endchar
        </CharString>
        <CharString name="Ocircumflexacute">
          31 callsubr
          51 -21 306 -20 hstemhm
          -101 callsubr
          hintmask 00110000
          64 callgsubr
          31 261 10 callgsubr
        </CharString>
        <CharString name="Ocircumflexdotbelow">
          31 callsubr
          51 -21 127 -20 hstemhm
          291 -52 callsubr
          hintmask 11110000
          -103 callsubr
          64 callgsubr
          hintmask 00000100
          -294 -920 rmoveto
          -99 callsubr
          hintmask 00001000
          -89 callgsubr
        </CharString>
        <CharString name="Ocircumflexgrave">
          31 callsubr
          51 -21 127 -20 hstemhm
          -101 callsubr
          hintmask 00110000
          64 callgsubr
          14 175 rmoveto
          -12 12 -14 -8 -14 hhcurveto
          -67 hlineto
          -195 106 rlineto
          7 -13 8 16 18 hhcurveto
          161 hlineto
          endchar
        </CharString>
        <CharString name="Ocircumflexhookabove">
          31 callsubr
          51 -21 363 -20 hstemhm
          -101 callsubr
          hintmask 00110000
          71 410 -82 callsubr
        </CharString>
        <CharString name="Ocircumflextilde">
          31 callsubr
          51 -21 197 123 callsubr
          -101 callsubr
          hintmask 00101000
          64 callgsubr
          72 289 -59 callsubr
          hintmask 00010000
          -35 callsubr
          -13 hvcurveto
          hintmask 00001000
          15 -19 -26 73 callsubr
          5 hvcurveto
          hintmask 00001000
          39 13 25 5 10 hhcurveto
          16 13 -11 -11 13 164 callgsubr
        </CharString>
        <CharString name="Odblgrave">
          31 callsubr
          61 148 callgsubr
          hstemhm
          -101 callsubr
          hintmask 00110000
          58 412 -80 callgsubr
        </CharString>
        <CharString name="Odieresis">
          31 callsubr
          30 103 hstemhm
          356 -12 callsubr
          151 -12 callsubr
          -101 callsubr
          hintmask 00101000
          -173 431 rmoveto
          3 -88 callgsubr
          -11 -12 -31 -7 hvcurveto
          hintmask 00110010
          -86 callsubr
          hintmask 00100100
          -82 callgsubr
          endchar
        </CharString>
        <CharString name="Odotbelow">
          31 callsubr
          hstemhm
          291 -52 callsubr
          -101 callsubr
          hintmask 00010000
          -223 -510 rmoveto
          -99 callsubr
          hintmask 00100000
          -89 callgsubr
        </CharString>
        <CharString name="Ograve">
          31 callsubr
          61 -21 129 -20 hstemhm
          -101 callsubr
          hintmask 00110000
          -1 418 -61 callsubr
        </CharString>
        <CharString name="Ohookabove">
          31 callsubr
          51 -21 206 -20 hstemhm
          -101 callsubr
          hintmask 00110000
          29 520 -102 callgsubr
        </CharString>
        <CharString name="Ohorn">
          137 callsubr
          109 -20 hstem
          391 141 0 131 0 141 cntrmask 00011100
          21 callgsubr
          -23 -105 rlineto
          -7 -1 5 192 callsubr
          -46 -35 rlineto
          42 -51 -73 15 -75 hhcurveto
          -94 -100 -24 -69 -77 hvcurveto
          -84 -76 -38 -104 -21 -101 -21 -99 -5 -102 52 -72 rrcurveto
          -69 48 90 -22 93 hhcurveto
          93 101 22 69 78 hvcurveto
          81 72 39 102 21 99 21 99 7 103 -49 75 115 78 rcurveline
          -58 callsubr
          endchar
        </CharString>
        <CharString name="Ohornacute">
          137 callsubr
          61 -21 69 -20 80 -67 callgsubr
          hintmask 0010100000000000
          82 501 rmoveto
          -92 callsubr
        </CharString>
        <CharString name="Ohorndotbelow">
          137 callsubr
          109 -20 hstemhm
          134 142 1 131 -117 -52 callsubr
          -51 141 0 131 0 141 -30 131 -108 131 hintmask 0010000000010000
          21 callgsubr
          hintmask 0101100000100000
          -23 -105 rlineto
          -7 -1 5 192 callsubr
          -46 -35 rlineto
          42 -51 -73 15 -75 hhcurveto
          -94 -100 -24 -69 -77 hvcurveto
          -84 -76 -38 -104 -21 -101 -21 -99 -5 -102 52 -72 rrcurveto
          hintmask 1000000101000000
          -69 48 90 -22 93 hhcurveto
          93 101 22 69 78 hvcurveto
          81 72 39 102 21 99 21 99 7 103 -49 75 115 78 rcurveline
          hintmask 1101100010100000
          -58 callsubr
          hintmask 0000001000000000
          -229 -513 6 callgsubr
        </CharString>
        <CharString name="Ohorngrave">
          137 callsubr
          61 -21 69 -20 80 -67 callgsubr
          hintmask 0010100000000000
          -7 415 -61 callsubr
        </CharString>
        <CharString name="Ohornhookabove">
          137 callsubr
          51 -21 79 -20 147 -67 callgsubr
          hintmask 0010100010000000
          23 517 -102 callgsubr
        </CharString>
        <CharString name="Ohorntilde">
          137 callsubr
          30 123 callsubr
          134 142 1 131 -17 141 0 131 0 141 -30 131 -108 131 hintmask 0000000000100000
          21 callgsubr
          hintmask 0100110001000000
          -23 -105 rlineto
          -7 -1 5 192 callsubr
          -46 -35 rlineto
          42 -51 -73 15 -75 hhcurveto
          -94 -100 -24 -69 -77 hvcurveto
          -84 -76 -38 -104 -21 -101 -21 -99 -5 -102 52 -72 rrcurveto
          hintmask 1000001010000000
          -69 48 90 -22 93 hhcurveto
          93 101 22 69 78 hvcurveto
          81 72 39 102 21 99 21 99 7 103 -49 75 115 78 rcurveline
          hintmask 1100110101000000
          -58 callsubr
          hintmask 0001000000000000
          96 499 -59 callsubr
          hintmask 0010000000000000
          -35 callsubr
          -13 hvcurveto
          hintmask 0001000000000000
          44 callgsubr
          hintmask 0010000000000000
          32 callsubr
          hintmask 0001000000000000
          -32 callgsubr
          hintmask 0010000000000000
          -53 callsubr
          11 hvcurveto
          endchar
        </CharString>
        <CharString name="Ohungarumlaut">
          31 callsubr
          61 148 callgsubr
          hstemhm
          -101 callsubr
          hintmask 00110000
          -74 542 rmoveto
          -35 callgsubr
          183 hmoveto
          -35 callgsubr
          endchar
        </CharString>
        <CharString name="Omacron">
          31 callsubr
          50 85 hstemhm
          -101 callsubr
          hintmask 00100000
          103 435 -53 callgsubr
        </CharString>
        <CharString name="Omega">
          -34 callsubr
        </CharString>
        <CharString name="Omicron">
          31 callsubr
          hstem
          -103 callsubr
          endchar
        </CharString>
        <CharString name="Oogonek">
          31 callsubr
          hstem
          134 147 vstem
          805 342 rmoveto
          201 42 -36 173 -262 hhcurveto
          -277 -99 -191 -183 -39 hvcurveto
          -37 -173 20 -164 216 -24 -27 -26 -18 -33 -7 -34 rrcurveto
          143 callgsubr
          19 callsubr
          5 23 11 22 18 20 238 11 105 154 42 198 rrcurveto
          -88 callsubr
          endchar
        </CharString>
        <CharString name="Oogonekacute">
          31 callsubr
          61 -21 129 -20 hstemhm
          134 147 hintmask 11001000
          805 342 rmoveto
          201 42 -36 173 -262 hhcurveto
          -277 -99 -191 -183 -39 hvcurveto
          -37 -173 20 -164 216 -24 -27 -26 -18 -33 -7 -34 rrcurveto
          143 callgsubr
          19 callsubr
          5 23 11 22 18 20 238 11 105 154 42 198 rrcurveto
          -88 callsubr
          hintmask 00110000
          118 504 rmoveto
          -92 callsubr
        </CharString>
        <CharString name="Orogate">
          794 805 342 rmoveto
          40 191 -30 166 -229 16 27 130 rcurveline
          28 1 -16 16 -20 hhcurveto
          -17 -14 -12 -17 -4 hvcurveto
          -31 -145 -249 -17 -92 -181 -37 -175 rlinecurve
          -38 -178 23 -170 237 -15 -28 -130 185 callgsubr
          30 145 231 15 103 153 42 195 rlinecurve
          -88 callsubr
          endchar
        </CharString>
        <CharString name="Oslash">
          856 -65 -21 64 72 594 72 64 -20 hstem
          134 130 473 130 vstem
          -63 callgsubr
          endchar
        </CharString>
        <CharString name="Oslash.dup">
          856 -65 -21 64 72 594 72 64 -20 hstem
          134 130 473 130 vstem
          -63 callgsubr
          endchar
        </CharString>
        <CharString name="Oslashacute">
          856 -65 -21 64 72 594 72 61 -21 24 -20 125 -20 hstemhm
          134 130 473 130 hintmask 11101011
          -63 callgsubr
          hintmask 00010100
          73 519 rmoveto
          -92 callsubr
        </CharString>
        <CharString name="Otilde">
          31 callsubr
          30 123 callsubr
          -101 callsubr
          hintmask 00010000
          102 502 -86 callgsubr
        </CharString>
        <CharString name="P">
          12 callgsubr
        </CharString>
        <CharString name="Phi">
          794 21 -21 106 75 332 75 -74 75 105 -20 hstemhm
          135 144 54 141 -128 141 -126 141 -70 141 -125 141 -129 141 61 144 hintmask 0010000000100000
          806 347 rmoveto
          37 174 -122 57 -132 10 rrcurveto
          hintmask 0000100000010000
          12 58 -91 callgsubr
          -45 hlineto
          -78 callsubr
          hintmask 0000010000100000
          -12 -59 -132 -11 -144 -55 -37 -174 rlinecurve
          hintmask 0000000100000000
          -37 -173 120 -56 128 -11 rrcurveto
          hintmask 1000001000000000
          -13 -59 -98 callsubr
          45 -104 callsubr
          hintmask 0100010100001000
          13 58 134 10 148 56 37 175 rlinecurve
          -445 -166 rmoveto
          -106 20 11 84 13 62 rrcurveto
          hintmask 0010000001000000
          13 62 26 84 114 20 rrcurveto
          hintmask 0100000010000000
          230 -166 rmoveto
          -13 -58 -25 -91 -122 -18 rrcurveto
          hintmask 0001000001001000
          71 334 115 -18 -14 -91 -12 -58 rlinecurve
          endchar
        </CharString>
        <CharString name="Pi">
          794 21 -21 597 94 191 callgsubr
          279 147 -58 147 hintmask 01010100
          712 48 rmoveto
          127 595 -4 callgsubr
          -515 124 callgsubr
          hintmask 11101000
          38 13 13 35 7 hvcurveto
          117 549 202 callgsubr
          -117 -549 rlineto
          -32 -7 4 -16 41 hhcurveto
          hintmask 10000100
          51 hlineto
          hintmask 00001000
          38 13 13 35 7 hvcurveto
          endchar
        </CharString>
        <CharString name="Psi">
          856 21 -21 548 71 75 -20 hstemhm
          364 141 -128 141 -124 141 -44 141 57 141 hintmask 01000101
          918 583 rmoveto
          36 8 -36 0 -12 hhcurveto
          -48 hlineto
          -97 -22 -100 -105 -22 hvcurveto
          -18 -86 -33 -112 -103 -29 rrcurveto
          hintmask 00100010
          97 459 -91 callgsubr
          -45 hlineto
          -78 callsubr
          hintmask 01000100
          -97 -459 -93 35 26 123 20 93 rlinecurve
          122 26 -7 59 -77 hhcurveto
          -48 hlineto
          -11 -37 0 -36 -8 hvcurveto
          -1 -6 -4 -27 34 -3 6 -18 0 -27 -15 -69 rrcurveto
          hintmask 00001000
          -19 -89 -43 -206 234 -30 rrcurveto
          hintmask 10010000
          -13 -60 -98 callsubr
          45 -104 callsubr
          hintmask 00001000
          13 60 253 27 45 215 16 72 rlinecurve
          10 50 11 48 20 27 36 3 8 27 1 6 rrcurveto
          endchar
        </CharString>
        <CharString name="Q">
          794 -85 -21 84 78 582 78 hstem
          134 144 238 144 1 144 vstem
          805 342 rmoveto
          201 42 -36 173 -262 hhcurveto
          -277 -99 -191 -183 -39 hvcurveto
          -187 -40 27 -177 270 hhcurveto
          17 23 0 5 33 hvcurveto
          26 -54 rlineto
          -32 14 2 -3 33 hhcurveto
          80 hlineto
          13 23 0 22 5 hvcurveto
          2 8 -2 2 -9 18 -47 84 rcurveline
          143 77 42 165 16 72 rrcurveto
          -144 1 rmoveto
          -13 -63 -23 -104 -69 -64 -40 71 rcurveline
          11 -8 -4 0 -20 hhcurveto
          -61 hlineto
          -14 -22 0 -23 -5 hvcurveto
          -2 -11 22 -45 13 -25 2 -5 12 -24 -1 -3 rrcurveto
          0 -16 -2 -4 -191 42 198 89 19 vhcurveto
          88 19 44 207 191 hhcurveto
          192 -44 -206 -89 -19 hvcurveto
          endchar
        </CharString>
        <CharString name="R">
          65 callgsubr
          92 callsubr
          hintmask 11111000
          -76 callgsubr
          hintmask 11100100
          103 -287 -66 callgsubr
          endchar
        </CharString>
        <CharString name="Racute">
          65 callgsubr
          83 -21 129 -20 92 callsubr
          hintmask 11100110
          -76 callgsubr
          hintmask 11100001
          103 -287 -66 callgsubr
          hintmask 00011000
          127 366 rmoveto
          -92 callsubr
        </CharString>
        <CharString name="Rcaron">
          65 callgsubr
          73 -21 127 -20 92 callsubr
          hintmask 11100110
          -76 callgsubr
          hintmask 11100001
          103 -287 -66 callgsubr
          hintmask 00011000
          98 357 -94 callsubr
        </CharString>
        <CharString name="Rcedilla">
          703 137 callgsubr
          311 72 225 86 92 callsubr
          hintmask 00111110
          -76 callgsubr
          hintmask 11111001
          103 -287 -66 callgsubr
          -234 -669 -103 callgsubr
        </CharString>
        <CharString name="Rcommaaccent">
          703 137 callgsubr
          311 72 225 86 92 callsubr
          hintmask 00111110
          -76 callgsubr
          hintmask 00111001
          103 -287 -66 callgsubr
          hintmask 11000000
          -234 -669 -103 callgsubr
        </CharString>
        <CharString name="Rdblgrave">
          65 callgsubr
          83 148 callgsubr
          92 callsubr
          hintmask 11100110
          -76 callgsubr
          hintmask 11100001
          103 -287 -66 callgsubr
          hintmask 00011010
          36 274 -80 callgsubr
        </CharString>
        <CharString name="Rdotaccent">
          65 callgsubr
          52 115 111 callgsubr
          -104 -52 callsubr
          -83 144 hintmask 1110110000000000
          -76 callgsubr
          hintmask 1110000010000000
          103 -287 -66 callgsubr
          hintmask 0001000100000000
          -13 298 4 callgsubr
          hintmask 0001001000000000
          2 callgsubr
        </CharString>
        <CharString name="Rdotbelow">
          65 callgsubr
          hstemhm
          101 144 1 -52 callsubr
          15 139 -36 144 hintmask 11110010
          -76 callgsubr
          hintmask 11100001
          103 -287 -66 callgsubr
          hintmask 00000100
          -214 -648 rmoveto
          -99 callsubr
          hintmask 00001000
          -89 callgsubr
        </CharString>
        <CharString name="Rdotbelowmacron">
          65 callgsubr
          72 85 hstemhm
          101 144 1 -52 callsubr
          15 139 -36 144 hintmask 1110100100000000
          -76 callgsubr
          hintmask 1110001010000000
          103 -287 -66 callgsubr
          -214 -648 rmoveto
          -99 callsubr
          hintmask 0000010000000000
          -90 callgsubr
          hintmask 0001000000000000
          326 945 -53 callgsubr
        </CharString>
        <CharString name="Rho">
          12 callgsubr
        </CharString>
        <CharString name="S">
          135 callgsubr
          hstem
          592 200 rmoveto
          -102 callsubr
          endchar
        </CharString>
        <CharString name="S_S">
          1222 146 callsubr
          hstem
          592 200 rmoveto
          -102 callsubr
          611 hmoveto
          -102 callsubr
          endchar
        </CharString>
        <CharString name="Sacute">
          135 callgsubr
          61 -21 129 -20 hstemhm
          hintmask 11000000
          592 200 rmoveto
          -102 callsubr
          hintmask 00110000
          96 662 rmoveto
          -92 callsubr
        </CharString>
        <CharString name="Scaron">
          135 callgsubr
          51 -21 127 -20 hstemhm
          hintmask 11000000
          592 200 rmoveto
          -102 callsubr
          hintmask 00110000
          67 653 -94 callsubr
        </CharString>
        <CharString name="Scedilla">
          135 callgsubr
          hstem
          338 125 vstem
          592 200 rmoveto
          -102 callsubr
          -246 -259 rmoveto
          13 3 -13 callsubr
          11 hvcurveto
          77 121 rlineto
          8 13 0 3 0 vvcurveto
          endchar
        </CharString>
        <CharString name="Scircumflex">
          135 callgsubr
          51 -21 127 -20 hstemhm
          hintmask 11000000
          592 200 rmoveto
          -102 callsubr
          hintmask 00110000
          49 568 -84 callsubr
        </CharString>
        <CharString name="Sdotbelow">
          135 callgsubr
          hstemhm
          200 -52 callsubr
          hintmask 11000000
          592 200 rmoveto
          -102 callsubr
          hintmask 00010000
          -245 -352 rmoveto
          -99 callsubr
          hintmask 00100000
          -89 callgsubr
        </CharString>
        <CharString name="Sigma">
          794 0 109 484 101 hstem
          742 48 rmoveto
          4 16 rlineto
          48 10 -20 0 -47 hhcurveto
          -320 -3 rlineto
          -58 hlineto
          220 209 10 9 6 9 3 11 rlinecurve
          3 13 -5 7 -5 8 -142 218 rcurveline
          57 hlineto
          330 -3 rlineto
          50 19 0 48 11 hvcurveto
          1 8 -91 callgsubr
          -575 hlineto
          -46 -7 -22 -28 -6 hvcurveto
          -5 -24 -1 -3 9 -14 173 -266 rcurveline
          -286 -272 -13 -12 -5 -9 -1 -8 rlinecurve
          -36 -8 37 0 11 hhcurveto
          575 130 callgsubr
        </CharString>
        <CharString name="T">
          733 21 84 callgsubr
          hintmask 01010000
          -49 callgsubr
          hintmask 10100000
          -7 callsubr
          hintmask 01010000
          27 callgsubr
          endchar
        </CharString>
        <CharString name="T_uni0303">
          173 callgsubr
          58 72 -13 72 hstemhm
          303 -17 callgsubr
          hintmask 00010000
          -93 228 -86 callgsubr
        </CharString>
        <CharString name="T_uni0308">
          173 callgsubr
          58 103 193 callgsubr
          -124 -12 callsubr
          -43 147 47 -12 callsubr
          hintmask 0100001000000000
          -49 callgsubr
          hintmask 1001000000000000
          -7 callsubr
          hintmask 0100001000000000
          27 callgsubr
          hintmask 0010010000000000
          -368 157 rmoveto
          3 -88 callgsubr
          -11 -12 -31 -7 hvcurveto
          hintmask 0010100010000000
          -86 callsubr
          hintmask 0010000100000000
          -82 callgsubr
          endchar
        </CharString>
        <CharString name="Tau">
          733 21 84 callgsubr
          hintmask 01010000
          -49 callgsubr
          hintmask 10100000
          -7 callsubr
          hintmask 01010000
          27 callgsubr
          endchar
        </CharString>
        <CharString name="Tcaron">
          173 callgsubr
          79 -21 127 -20 hstemhm
          303 -17 callgsubr
          hintmask 00110000
          -106 221 -94 callsubr
        </CharString>
        <CharString name="Tcedilla">
          733 -171 -21 168 -20 65 84 callgsubr
          hintmask 00010100
          -49 callgsubr
          hintmask 00101000
          -7 callsubr
          hintmask 11010100
          27 callgsubr
          -432 -669 rmoveto
          13 2 -13 callsubr
          12 hvcurveto
          76 121 rlineto
          8 13 1 3 0 vvcurveto
          endchar
        </CharString>
        <CharString name="Tdotbelow">
          173 callgsubr
          hstemhm
          261 -52 callsubr
          -109 -17 callgsubr
          hintmask 00010000
          -418 -784 rmoveto
          -99 callsubr
          hintmask 00100000
          -89 callgsubr
        </CharString>
        <CharString name="Theta">
          856 -22 75 229 133 -72 72 229 72 hstemhm
          134 141 451 141 hintmask 10111100
          867 342 rmoveto
          243 51 -88 131 -250 hhcurveto
          -246 -148 -126 -248 -52 hvcurveto
          -237 -51 89 -127 250 hhcurveto
          239 153 115 249 53 hvcurveto
          -141 1 rmoveto
          -91 -19 -45 -199 -224 hhcurveto
          -225 43 203 87 19 hvcurveto
          86 18 46 215 225 hhcurveto
          226 -45 -213 -88 -19 hvcurveto
          -65 -13 rmoveto
          8 37 rlineto
          38 8 -11 10 -39 hhcurveto
          -223 hlineto
          -37 -16 -8 -40 -9 hvcurveto
          -8 -37 rlineto
          hintmask 01000000
          -38 -8 11 -10 39 hhcurveto
          223 hlineto
          37 17 8 40 8 hvcurveto
          endchar
        </CharString>
        <CharString name="Thorn">
          642 21 -21 180 86 239 86 103 -20 hstem
          662 386 rmoveto
          160 34 -95 45 -112 hhcurveto
          -136 hlineto
          11 53 rlineto
          38 8 -7 12 -40 hhcurveto
          -36 hlineto
          -38 -15 -10 -40 -8 hvcurveto
          -126 -594 rlineto
          -38 -8 7 -12 40 hhcurveto
          36 hlineto
          38 14 10 40 9 hvcurveto
          27 130 rlineto
          115 hlineto
          74 165 5 201 43 hvcurveto
          -134 -1 rmoveto
          -119 -25 -93 0 -44 hhcurveto
          -82 hlineto
          50 239 rlineto
          84 hlineto
          81 48 -32 -88 -19 hvcurveto
          endchar
        </CharString>
        <CharString name="Tlinebelow">
          733 -184 85 120 84 callgsubr
          hintmask 00101000
          -49 callgsubr
          hintmask 01010000
          -7 callsubr
          hintmask 00101000
          27 callgsubr
          hintmask 10000000
          -293 -789 -87 callgsubr
        </CharString>
        <CharString name="U">
          764 -22 166 callgsubr
          hintmask 11011000
          -97 callgsubr
          hintmask 01100000
          -51 hlineto
          hintmask 00010000
          -78 callsubr
          hintmask 10100000
          -88 -416 rlineto
          -211 -45 157 -41 127 hhcurveto
          114 182 34 217 46 hvcurveto
          endchar
        </CharString>
        <CharString name="U_uni032F">
          764 -192 -21 49 93 49 166 callgsubr
          hintmask 00110110
          -97 callgsubr
          hintmask 00011000
          44 callsubr
          hintmask 00101000
          -88 -416 rlineto
          -211 -45 157 -41 127 hhcurveto
          114 182 34 217 46 hvcurveto
          hintmask 11000100
          -187 -404 -57 callsubr
        </CharString>
        <CharString name="Uacute">
          58 callgsubr
          103 -21 129 -20 -95 callgsubr
          hintmask 00110000
          43 633 rmoveto
          -92 callsubr
        </CharString>
        <CharString name="Ubreve">
          58 callgsubr
          82 93 49 -20 -95 callgsubr
          hintmask 00110000
          33 631 rmoveto
          27 5 -18 -7 callgsubr
        </CharString>
        <CharString name="Ucaron">
          58 callgsubr
          93 -21 127 -20 -95 callgsubr
          hintmask 00110000
          14 624 -94 callsubr
        </CharString>
        <CharString name="Ucircumflex">
          58 callgsubr
          93 -21 127 -20 -95 callgsubr
          hintmask 00110100
          -4 539 -84 callsubr
        </CharString>
        <CharString name="Udblgrave">
          58 callgsubr
          103 148 callgsubr
          -95 callgsubr
          hintmask 00110000
          -17 541 -80 callgsubr
        </CharString>
        <CharString name="Udieresis">
          58 callgsubr
          72 103 63 callsubr
          -34 -12 callsubr
          151 -12 callsubr
          -89 136 hintmask 1100100001000000
          -97 callgsubr
          hintmask 0101000000000000
          -51 hlineto
          hintmask 0000100000000000
          -78 callsubr
          hintmask 1001000000000000
          -88 -416 rlineto
          -211 -45 157 -41 127 hhcurveto
          114 182 34 217 46 hvcurveto
          hintmask 0010001000000000
          -248 560 rmoveto
          3 -88 callgsubr
          -11 -12 -31 -7 hvcurveto
          hintmask 0010010010000000
          -86 callsubr
          hintmask 0010000100000000
          -82 callgsubr
          endchar
        </CharString>
        <CharString name="Udieresisacute">
          58 callgsubr
          72 103 83 -21 129 -20 63 callsubr
          -34 -12 callsubr
          151 -12 callsubr
          -89 136 hintmask 1100001000010000
          -97 callgsubr
          hintmask 0100010000000000
          -51 hlineto
          hintmask 0000001000000000
          170 callsubr
          -88 -416 rlineto
          -211 -45 157 -41 127 hhcurveto
          114 182 34 217 46 hvcurveto
          hintmask 0010000010000000
          -248 560 rmoveto
          3 -88 callgsubr
          -11 -12 -31 -7 hvcurveto
          hintmask 0010000100100000
          -86 callsubr
          hintmask 0011100001000000
          -82 callgsubr
          38 228 rmoveto
          -92 callsubr
        </CharString>
        <CharString name="Udieresiscaron">
          58 callgsubr
          72 103 73 -21 127 -20 63 callsubr
          -34 -12 callsubr
          151 -12 callsubr
          -89 136 hintmask 1100001000010000
          -97 callgsubr
          hintmask 0100010000000000
          -51 hlineto
          hintmask 0000001000000000
          170 callsubr
          -88 -416 rlineto
          -211 -45 157 -41 127 hhcurveto
          114 182 34 217 46 hvcurveto
          hintmask 0010000010000000
          -248 560 rmoveto
          3 -88 callgsubr
          -11 -12 -31 -7 hvcurveto
          hintmask 0010000100100000
          -86 callsubr
          hintmask 0011100001000000
          -82 callgsubr
          9 219 -94 callsubr
        </CharString>
        <CharString name="Udieresisgrave">
          58 callgsubr
          72 103 83 -21 129 -20 63 callsubr
          -34 -12 callsubr
          151 -12 callsubr
          -89 136 hintmask 1100001000010000
          -97 callgsubr
          hintmask 0100010000000000
          -51 hlineto
          hintmask 0000001000000000
          170 callsubr
          -88 -416 rlineto
          -211 -45 157 -41 127 hhcurveto
          114 182 34 217 46 hvcurveto
          hintmask 0010000010000000
          -248 560 rmoveto
          3 -88 callgsubr
          -11 -12 -31 -7 hvcurveto
          hintmask 0010000100100000
          -86 callsubr
          hintmask 0011100001000000
          -82 callgsubr
          -81 142 -61 callsubr
        </CharString>
        <CharString name="Udotbelow">
          764 -22 195 callgsubr
          -99 -52 callsubr
          246 136 hintmask 11010010
          -97 callgsubr
          hintmask 01100000
          -51 hlineto
          hintmask 00010000
          -78 callsubr
          hintmask 10100000
          -88 -416 rlineto
          -211 -45 157 -41 127 hhcurveto
          114 182 34 217 46 hvcurveto
          hintmask 00000100
          -298 -381 rmoveto
          -99 callsubr
          hintmask 00001000
          -89 callgsubr
        </CharString>
        <CharString name="Ugrave">
          58 callgsubr
          103 -21 129 -20 -95 callgsubr
          hintmask 00110000
          -76 547 -61 callsubr
        </CharString>
        <CharString name="Uhookabove">
          58 callgsubr
          93 -21 206 -20 -95 callgsubr
          hintmask 00110000
          -46 649 -102 callgsubr
        </CharString>
        <CharString name="Uhorn">
          825 -22 86 761 -20 hstem
          828 130 -120 133 -120 130 cntrmask 00111000
          135 callsubr
          136 callsubr
          -7 -6 -6 -7 -1 hvcurveto
          -23 -105 rlineto
          -7 122 callsubr
          5 hlineto
          -32 -23 rlineto
          14 -2 -12 9 -15 hhcurveto
          -23 callsubr
          91 427 rcurveline
          20 4 -12 16 -20 hhcurveto
          -70 hlineto
          -19 -21 -16 -20 -4 hvcurveto
          -36 callsubr
          endchar
        </CharString>
        <CharString name="Uhornacute">
          825 -22 86 713 -21 69 -20 80 -68 callgsubr
          -224 155 rmoveto
          -92 callsubr
        </CharString>
        <CharString name="Uhorndotbelow">
          825 -22 86 761 -20 134 callgsubr
          -66 -52 callsubr
          128 133 2 130 -23 130 -120 133 -120 130 hintmask 0000000000100000
          135 callsubr
          hintmask 0100000001000000
          136 callsubr
          hintmask 0000000000100000
          123 callgsubr
          -1 hvcurveto
          hintmask 0000000010000000
          -23 -105 rlineto
          hintmask 0000000001000000
          -7 122 callsubr
          5 hlineto
          -32 -23 rlineto
          14 -2 -12 9 -15 hhcurveto
          hintmask 1010001100000000
          -23 callsubr
          rrcurveto
          hintmask 0001000000000000
          91 427 rlineto
          20 4 -12 16 -20 hhcurveto
          -70 hlineto
          -19 -21 -16 -20 -4 hvcurveto
          hintmask 1010001010000000
          -36 callsubr
          hintmask 0000010000000000
          -504 -859 rmoveto
          -99 callsubr
          hintmask 0000100000000000
          -89 callgsubr
        </CharString>
        <CharString name="Uhorngrave">
          825 -22 86 713 -21 69 -20 80 -68 callgsubr
          -313 69 -61 callsubr
        </CharString>
        <CharString name="Uhornhookabove">
          825 -22 86 703 -21 79 -20 147 -68 callgsubr
          -283 171 -102 callgsubr
        </CharString>
        <CharString name="Uhorntilde">
          825 -22 86 682 72 -13 72 134 callgsubr
          213 133 2 130 -23 130 -120 133 -120 130 hintmask 0000000001000000
          135 callsubr
          hintmask 0000000010000000
          136 callsubr
          hintmask 0000000001000000
          123 callgsubr
          -1 hvcurveto
          hintmask 0000000100000000
          -23 -105 rlineto
          hintmask 0000000010000000
          -7 122 callsubr
          5 hlineto
          -32 -23 rlineto
          14 -2 -12 9 -15 hhcurveto
          hintmask 1001011000000000
          -23 callsubr
          rrcurveto
          hintmask 0000100000000000
          91 427 rlineto
          20 4 -12 16 -20 hhcurveto
          -70 hlineto
          -19 -21 -16 -20 -4 hvcurveto
          hintmask 1001010100000000
          -36 callsubr
          hintmask 0010000000000000
          -210 153 -59 callsubr
          hintmask 0100010000000000
          -35 callsubr
          -13 hvcurveto
          hintmask 0010000000000000
          44 callgsubr
          hintmask 0100000000000000
          32 callsubr
          hintmask 0010000000000000
          -32 callgsubr
          hintmask 0100000000000000
          -53 callsubr
          11 hvcurveto
          endchar
        </CharString>
        <CharString name="Uhungarumlaut">
          58 callgsubr
          103 148 callgsubr
          -95 callgsubr
          hintmask 00110000
          -149 671 rmoveto
          -35 callgsubr
          183 hmoveto
          -35 callgsubr
          endchar
        </CharString>
        <CharString name="Umacron">
          58 callgsubr
          92 85 25 callgsubr
          hintmask 11001100
          -97 callgsubr
          hintmask 01010000
          -51 hlineto
          hintmask 00001000
          -78 callsubr
          hintmask 10010000
          -88 -416 rlineto
          -211 -45 157 -41 127 hhcurveto
          114 182 34 217 46 hvcurveto
          hintmask 00100000
          28 564 -53 callgsubr
        </CharString>
        <CharString name="Uogonek">
          764 -213 87 104 195 callgsubr
          -27 136 189 136 hintmask 01101010
          -97 callgsubr
          hintmask 00110000
          -51 hlineto
          hintmask 00001000
          -78 callsubr
          hintmask 11010100
          -88 -416 -38 -176 104 -58 109 -14 rlinecurve
          -26 -26 -20 -33 -8 -35 rrcurveto
          143 callgsubr
          150 callgsubr
          23 11 22 16 19 114 5 164 41 44 205 rrcurveto
          endchar
        </CharString>
        <CharString name="Upsilon">
          856 21 -21 606 110 hstemhm
          180 136 48 147 -74 147 193 136 hintmask 01101000
          913 558 rmoveto
          89 19 -77 69 -103 hhcurveto
          -104 -66 -86 -104 -42 hvcurveto
          -1 hlineto
          120 1 -38 70 -95 hhcurveto
          -103 -105 -69 -89 -19 hvcurveto
          -39 -9 34 0 15 hhcurveto
          38 hlineto
          20 26 0 39 12 hvcurveto
          33 10 35 15 26 hhcurveto
          68 12 -73 -141 -30 hvcurveto
          hintmask 10010000
          -73 -344 4 callsubr
          hintmask 01001100
          73 344 rlineto
          141 30 43 73 69 hhcurveto
          28 26 -17 -31 -3 hvcurveto
          -39 -6 27 0 19 hhcurveto
          38 hlineto
          15 34 0 39 9 hvcurveto
          endchar
        </CharString>
        <CharString name="Uring">
          70 callgsubr
          45 68 45 25 callgsubr
          hintmask 11001100
          -97 callgsubr
          hintmask 01010000
          -51 hlineto
          hintmask 00001000
          -78 callsubr
          hintmask 10010000
          -88 -416 rlineto
          -211 -45 157 -41 127 hhcurveto
          114 182 34 217 46 hvcurveto
          hintmask 01100000
          -120 544 -36 callgsubr
          endchar
        </CharString>
        <CharString name="Utilde">
          58 callgsubr
          72 72 -13 72 -95 callgsubr
          hintmask 00010000
          27 631 -86 callgsubr
        </CharString>
        <CharString name="V">
          93 callsubr
          hstem
          847 667 rmoveto
          27 6 -25 0 -14 hhcurveto
          -39 hlineto
          -21 -29 0 -44 -26 hvcurveto
          -214 -371 -84 -154 -1 3 -3 35 -7 41 rlinecurve
          -67 447 rlineto
          43 -6 -28 0 -21 hhcurveto
          -54 hlineto
          -14 -25 0 -27 -6 hvcurveto
          -1 -5 0 -1 2 -12 95 -607 rcurveline
          -42 6 29 0 20 hhcurveto
          92 hlineto
          21 28 0 44 25 hvcurveto
          352 605 6 12 2 1 1 5 rlinecurve
          endchar
        </CharString>
        <CharString name="W">
          210 callgsubr
          hstem
          -89 callsubr
          endchar
        </CharString>
        <CharString name="Wacute">
          210 callgsubr
          103 -21 129 -20 hstemhm
          hintmask 11000000
          -89 callsubr
          hintmask 00110000
          -253 197 rmoveto
          -92 callsubr
        </CharString>
        <CharString name="Wcircumflex">
          210 callgsubr
          93 -21 127 -20 hstemhm
          hintmask 11000000
          -89 callsubr
          hintmask 00110000
          -300 103 -84 callsubr
        </CharString>
        <CharString name="Wdieresis">
          210 callgsubr
          72 103 hstemhm
          479 -12 callsubr
          151 -12 callsubr
          hintmask 11000000
          -89 callsubr
          hintmask 00101000
          -544 124 rmoveto
          3 -88 callgsubr
          -11 -12 -31 -7 hvcurveto
          hintmask 00110010
          -86 callsubr
          hintmask 00100100
          -82 callgsubr
          endchar
        </CharString>
        <CharString name="Wgrave">
          210 callgsubr
          103 -21 129 -20 hstemhm
          hintmask 11000000
          -89 callsubr
          hintmask 00110000
          -372 111 -61 callsubr
        </CharString>
        <CharString name="X">
          -3 callgsubr
        </CharString>
        <CharString name="Xi">
          733 0 120 -120 122 176 120 148 122 -120 120 hstemhm
          hintmask 00001000
          811 614 rmoveto
          5 26 -75 callgsubr
          -532 -71 callgsubr
          -5 -26 rlineto
          hintmask 00010000
          -48 -11 20 0 49 hhcurveto
          hintmask 00001000
          246 2 rlineto
          hintmask 01010000
          244 -2 rlineto
          50 19 0 48 11 hvcurveto
          -115 -566 rmoveto
          6 26 rlineto
          48 10 -19 0 -51 hhcurveto
          hintmask 10000000
          -250 -2 rlineto
          hintmask 01100000
          -250 2 rlineto
          -51 -19 0 -48 -10 hvcurveto
          -6 -26 -98 callsubr
          544 -104 callsubr
          -12 298 rmoveto
          5 24 -4 callgsubr
          -392 -71 callgsubr
          -5 -24 rlineto
          -32 -7 3 -16 41 hhcurveto
          392 hlineto
          38 13 13 35 8 hvcurveto
          endchar
        </CharString>
        <CharString name="Y">
          93 callsubr
          hstemhm
          304 144 -95 144 hintmask 01010000
          851 671 rmoveto
          23 5 -22 0 -14 hhcurveto
          -49 hlineto
          -21 -31 0 -38 -36 hvcurveto
          -127 -140 -46 -50 -25 -27 -24 -36 rlinecurve
          -9 31 -14 29 -14 28 -78 162 rcurveline
          33 -16 -20 8 -36 hhcurveto
          -66 hlineto
          -14 -22 0 -23 -5 hvcurveto
          -2 -7 2 -5 4 -8 182 -373 rcurveline
          hintmask 10100000
          -49 -230 72 callgsubr
          35 15 10 37 8 hvcurveto
          hintmask 00010000
          49 230 340 373 5 5 7 9 2 7 rlinecurve
          endchar
        </CharString>
        <CharString name="Yacute">
          93 callsubr
          103 -21 129 -20 hstemhm
          304 -81 callgsubr
          hintmask 00110000
          -102 191 rmoveto
          -92 callsubr
        </CharString>
        <CharString name="Ycircumflex">
          93 callsubr
          93 -21 127 -20 hstemhm
          304 -81 callgsubr
          hintmask 00110100
          -149 97 -84 callsubr
        </CharString>
        <CharString name="Ydieresis">
          93 callsubr
          72 103 hstemhm
          304 144 -122 -12 callsubr
          -108 144 115 -12 callsubr
          hintmask 0100010000000000
          851 671 rmoveto
          23 5 -22 0 -14 hhcurveto
          -49 hlineto
          -21 -31 0 -38 -36 hvcurveto
          -127 -140 -46 -50 -25 -27 -24 -36 rlinecurve
          -9 31 -14 29 -14 28 -78 162 rcurveline
          33 -16 -20 8 -36 hhcurveto
          -66 hlineto
          -14 -22 0 -23 -5 hvcurveto
          -2 -7 2 -5 4 -8 rrcurveto
          hintmask 0000001000000000
          182 -373 rlineto
          hintmask 1001000000000000
          -49 -230 72 callgsubr
          35 15 10 37 8 hvcurveto
          hintmask 0000001000000000
          49 230 340 373 5 5 7 9 2 7 rlinecurve
          hintmask 0010010000000000
          -393 118 rmoveto
          3 -88 callgsubr
          -11 -12 -31 -7 hvcurveto
          hintmask 0010100010000000
          -86 callsubr
          hintmask 0010000100000000
          -82 callgsubr
          endchar
        </CharString>
        <CharString name="Ydotbelow">
          733 21 -21 694 164 callsubr
          -108 -81 callgsubr
          hintmask 00010000
          -443 -823 rmoveto
          -99 callsubr
          hintmask 00100000
          -89 callgsubr
        </CharString>
        <CharString name="Ygrave">
          93 callsubr
          103 -21 129 -20 hstemhm
          304 -81 callgsubr
          hintmask 00110000
          -221 105 -61 callsubr
        </CharString>
        <CharString name="Yhookabove">
          93 callsubr
          93 -21 206 -20 hstemhm
          304 -81 callgsubr
          hintmask 00110000
          -191 207 -102 callgsubr
        </CharString>
        <CharString name="Ytilde">
          93 callsubr
          72 123 callsubr
          304 -81 callgsubr
          hintmask 00010000
          -118 189 -86 callgsubr
        </CharString>
        <CharString name="Z">
          139 callgsubr
          111 callsubr
          hintmask 11010000
          -60 callsubr
          hintmask 10100000
          -2 -8 -98 callsubr
          459 130 callgsubr
        </CharString>
        <CharString name="Zacute">
          139 callgsubr
          83 -21 129 -20 111 callsubr
          hintmask 11000100
          -60 callsubr
          hintmask 10001000
          -2 -8 -98 callsubr
          459 -104 callsubr
          hintmask 00110000
          92 814 rmoveto
          -92 callsubr
        </CharString>
        <CharString name="Zcaron">
          139 callgsubr
          73 -21 127 -20 111 callsubr
          hintmask 11000100
          -60 callsubr
          hintmask 10001000
          -2 -8 -98 callsubr
          459 -104 callsubr
          hintmask 00110000
          63 805 -94 callsubr
        </CharString>
        <CharString name="Zdotaccent">
          139 callgsubr
          52 115 111 callsubr
          -196 -52 callsubr
          hintmask 11001000
          -60 callsubr
          hintmask 10010000
          -2 -8 -98 callsubr
          459 -104 callsubr
          hintmask 00100010
          -47 746 4 callgsubr
          hintmask 00100100
          2 callgsubr
        </CharString>
        <CharString name="Zdotbelow">
          139 callgsubr
          111 callsubr
          -398 -52 callsubr
          hintmask 11010000
          -60 callsubr
          hintmask 10100000
          -2 -8 -98 callsubr
          459 -104 callsubr
          hintmask 00000100
          -249 149 callgsubr
          hintmask 00001000
          -89 callgsubr
        </CharString>
        <CharString name="Zeta">
          139 callgsubr
          111 callsubr
          hintmask 11010000
          -60 callsubr
          hintmask 10100000
          -2 -8 -98 callsubr
          459 130 callgsubr
        </CharString>
        <CharString name="a">
          22 callsubr
          hstem
          -107 callgsubr
          endchar
        </CharString>
        <CharString name="aacute">
          22 callsubr
          83 148 callgsubr
          hstemhm
          hintmask 11000000
          -107 callgsubr
          hintmask 00110000
          175 440 rmoveto
          -99 callgsubr
        </CharString>
        <CharString name="abreve">
          22 callsubr
          70 93 49 -29 callsubr
          endchar
        </CharString>
        <CharString name="abreveacute">
          22 callsubr
          70 93 228 -29 callsubr
          194 vmoveto
          -92 callsubr
        </CharString>
        <CharString name="abrevedotbelow">
          22 callsubr
          70 93 49 -20 hstemhm
          157 -52 callsubr
          hintmask 11110000
          -107 callgsubr
          -18 callsubr
          hintmask 00000100
          -286 -801 rmoveto
          -99 callsubr
          hintmask 00001000
          -89 callgsubr
        </CharString>
        <CharString name="abrevegrave">
          22 callsubr
          70 93 49 -29 callsubr
          -16 108 rmoveto
          -12 11 -13 -8 -14 hhcurveto
          -67 hlineto
          -196 106 rlineto
          7 -12 8 16 18 hhcurveto
          161 hlineto
          endchar
        </CharString>
        <CharString name="abrevehookabove">
          22 callsubr
          70 93 285 -29 callsubr
          -39 200 -102 callgsubr
        </CharString>
        <CharString name="abrevetilde">
          22 callsubr
          70 93 119 123 callsubr
          hintmask 11000000
          -107 callgsubr
          hintmask 00101000
          -18 callsubr
          41 222 -24 callsubr
        </CharString>
        <CharString name="acaron">
          22 callsubr
          81 -21 162 -20 hstemhm
          hintmask 11000000
          -107 callgsubr
          hintmask 00110000
          180 437 -90 callsubr
        </CharString>
        <CharString name="acircumflex">
          22 callsubr
          81 -21 162 -20 hstemhm
          hintmask 11000000
          -107 callgsubr
          hintmask 00110000
          154 315 -98 callgsubr
          endchar
        </CharString>
        <CharString name="acircumflexacute">
          22 callsubr
          81 -21 306 -28 callgsubr
          31 261 rmoveto
          14 callsubr
        </CharString>
        <CharString name="acircumflexdotbelow">
          22 callsubr
          81 -21 162 -20 hstemhm
          157 -52 callsubr
          hintmask 11110000
          -107 callgsubr
          154 315 -98 callgsubr
          hintmask 00000100
          -239 -708 rmoveto
          -99 callsubr
          hintmask 00001000
          -89 callgsubr
        </CharString>
        <CharString name="acircumflexgrave">
          22 callsubr
          81 -21 127 -28 callgsubr
          15 175 14 callgsubr
        </CharString>
        <CharString name="acircumflexhookabove">
          22 callsubr
          81 -21 363 -28 callgsubr
          99 267 -106 callgsubr
        </CharString>
        <CharString name="acircumflextilde">
          22 callsubr
          81 -21 197 123 callsubr
          hintmask 11000000
          -107 callgsubr
          hintmask 00101000
          164 316 -8 callsubr
        </CharString>
        <CharString name="acute">
          550 558 103 callsubr
          576 681 rmoveto
          -99 callgsubr
        </CharString>
        <CharString name="acute.cap">
          550 541 -21 129 -20 hstem
          607 626 rmoveto
          -92 callsubr
        </CharString>
        <CharString name="acute.dup">
          550 558 103 callsubr
          576 681 rmoveto
          -99 callgsubr
        </CharString>
        <CharString name="acute.ts1">
          550 568 -21 176 212 callgsubr
          hintmask 01000000
          608 711 rmoveto
          11 1 -10 1 -9 hhcurveto
          -74 hlineto
          hintmask 10100000
          -6 127 callsubr
          -6 -2 -4 -6 -5 -5 -28 -33 rcurveline
          -68 -79 -19 -21 -4 -5 -4 -4 -2 -6 rlinecurve
          -2 vlineto
          -12 -3 14 0 8 hhcurveto
          31 hlineto
          18 22 22 13 16 hvcurveto
          146 113 5 4 7 5 1 7 rlinecurve
          endchar
        </CharString>
        <CharString name="adblgrave">
          22 callsubr
          83 148 callgsubr
          hstemhm
          hintmask 11000000
          -107 callgsubr
          hintmask 00110000
          149 310 -87 callsubr
        </CharString>
        <CharString name="adieresis">
          22 callsubr
          89 103 hstemhm
          205 17 callsubr
          106 17 callsubr
          hintmask 11000000
          -107 callgsubr
          hintmask 00101000
          -52 366 rmoveto
          4 -88 callgsubr
          -12 -12 -31 -6 hvcurveto
          hintmask 00110010
          -83 callgsubr
          hintmask 00100100
          -78 callgsubr
          endchar
        </CharString>
        <CharString name="adotbelow">
          22 callsubr
          hstemhm
          157 -52 callsubr
          hintmask 11000000
          -107 callgsubr
          hintmask 00010000
          -85 -393 rmoveto
          -99 callsubr
          hintmask 00100000
          -89 callgsubr
        </CharString>
        <CharString name="ae">
          -50 callsubr
        </CharString>
        <CharString name="ae.dup">
          -50 callsubr
        </CharString>
        <CharString name="aeacute">
          794 -11 72 -17 53 -44 66 95 131 callsubr
          -66 66 83 148 callgsubr
          hstemhm
          57 130 184 137 -112 114 -101 114 73 137 hintmask 0000100001000000
          817 261 rmoveto
          130 28 -41 84 -138 hhcurveto
          -30 -67 -3 -38 -61 hvcurveto
          34 -35 -50 7 -60 hhcurveto
          -54 -49 -6 -27 -69 hvcurveto
          -22 -8 -5 -3 -3 -11 rrcurveto
          -1 -7 -7 -58 -8 vvcurveto
          -6 -1 4 -5 7 hhcurveto
          5 4 3 3 4 hvcurveto
          hintmask 1000010010100000
          45 52 55 22 63 hhcurveto
          57 5 -37 -55 -12 hvcurveto
          -13 -64 -89 -3 -212 -8 -25 -119 rlinecurve
          -44 -9 13 -90 115 hhcurveto
          hintmask 0100000000010000
          23 129 0 55 81 hvcurveto
          hintmask 1000000000001000
          -55 56 90 0 22 hhcurveto
          60 51 15 22 45 hvcurveto
          hintmask 0010000000000000
          31 16 1 1 2 10 rrcurveto
          hintmask 0100000000000000
          74 callsubr
          hintmask 0010000000000000
          -6 -2 -2 -8 -10 hvcurveto
          hintmask 1001000000101000
          -46 -55 -60 -12 -36 hhcurveto
          -91 -10 68 85 15 hvcurveto
          249 hlineto
          31 19 7 40 8 hvcurveto
          -112 6 rmoveto
          hintmask 1001100010010000
          -182 hlineto
          49 13 32 87 84 hhcurveto
          76 -13 -80 -56 -10 hvcurveto
          -333 -145 rmoveto
          -20 -4 -49 -41 -74 hhcurveto
          -50 -13 37 26 5 hvcurveto
          15 67 134 6 36 2 rrcurveto
          hintmask 0000000001000000
          -2 -27 -1 -9 2 -29 rrcurveto
          1 -5 0 -7 0 vvcurveto
          hintmask 0000001100000000
          326 559 rmoveto
          -99 callgsubr
        </CharString>
        <CharString name="agrave">
          22 callsubr
          83 148 callgsubr
          hstemhm
          hintmask 11000000
          -107 callgsubr
          hintmask 00110000
          69 309 -74 callsubr
        </CharString>
        <CharString name="ahookabove">
          22 callsubr
          59 -21 206 -20 hstemhm
          hintmask 11000000
          -107 callgsubr
          hintmask 00110000
          118 404 -106 callgsubr
        </CharString>
        <CharString name="amacron">
          22 callsubr
          98 85 hstemhm
          hintmask 11000000
          -107 callgsubr
          hintmask 00100000
          201 359 -87 callgsubr
        </CharString>
        <CharString name="ampersand">
          831 -22 100 24 72 161 72 237 72 hstem
          660 114 vstem
          774 25 rmoveto
          11 48 rlineto
          19 4 2 10 -13 hhcurveto
          -3 -2 -1 -3 -6 hvcurveto
          -19 -52 -42 -1 -13 hhcurveto
          -22 -31 3 21 -33 hvcurveto
          157 119 87 177 1 8 2 10 -7 2 -6 2 rrcurveto
          3 -10 -52 16 -7 hhcurveto
          -10 -2 -5 -21 -10 hvcurveto
          -67 -128 -88 -82 -56 -38 -8 9 -69 91 -26 75 137 85 74 61 15 67 rrcurveto
          83 17 -52 80 -99 hhcurveto
          -93 -109 -74 -119 -25 hvcurveto
          -16 -76 9 -73 9 -39 -32 -19 -68 -41 -19 -14 -19 -15 -42 -41 -13 -58 rrcurveto
          -94 -20 70 -75 115 hhcurveto
          116 102 53 2 4 hvcurveto
          -27 42 52 -28 79 hhcurveto
          65 54 17 2 3 hvcurveto
          10 3 1 5 4 20 rrcurveto
          -260 527 rmoveto
          -13 -63 -65 -51 -51 -31 -11 69 8 44 5 26 rrcurveto
          74 16 50 24 27 hhcurveto
          38 5 -53 -39 -9 hvcurveto
          -124 -450 rmoveto
          -23 -61 -53 -1 -9 hhcurveto
          -64 13 82 14 3 hvcurveto
          14 68 43 21 14 7 26 -72 45 -58 29 -38 rrcurveto
          endchar
        </CharString>
        <CharString name="anglearc">
          856 -96 -21 734 -20 hstemhm
          594 84 -40 84 hintmask 00100000
          803 42 rmoveto
          4 19 -9 16 -16 5 -104 36 rcurveline
          hintmask 01010000
          20 43 15 44 9 45 10 45 4 44 -2 43 120 36 rcurveline
          18 5 15 16 4 19 rrcurveto
          23 5 -15 19 -23 hhcurveto
          -4 -5 -1 -1 -4 hvcurveto
          -119 -36 -9 50 -17 47 -25 42 rlinecurve
          10 -6 -11 6 -13 hhcurveto
          hintmask 10100000
          -23 -23 -19 -23 -5 hvcurveto
          -2 -10 1 -9 5 -7 19 -35 15 -37 8 -40 -488 -147 rcurveline
          -18 -5 -16 -16 -4 -19 -4 -19 9 -16 16 -5 425 -147 rcurveline
          -24 -40 -31 -37 -34 -35 -8 -7 -5 -9 -2 -10 rrcurveto
          147 callgsubr
          13 13 6 10 11 hvcurveto
          42 42 37 47 31 50 103 -36 rcurveline
          -1 4 5 -1 4 hhcurveto
          23 23 19 23 5 hvcurveto
          -165 208 rmoveto
          -8 -36 -11 -36 -16 -35 -309 107 rcurveline
          355 107 rlineto
          hintmask 00010000
          -35 -3 -36 -8 -36 vhcurveto
          endchar
        </CharString>
        <CharString name="angleleft">
          428 -228 -21 999 212 callgsubr
          hintmask 00100000
          322 -208 rmoveto
          5 24 -10 26 -2 22 -50 360 rcurveline
          -2 8 -3 10 2 9 2 9 10 13 5 10 71 131 78 129 71 130 7 12 8 12 3 13 rrcurveto
          22 4 -14 19 -22 hhcurveto
          hintmask 11000000
          -3 -2 0 -1 -4 hvcurveto
          -25 -15 -30 -18 -10 hvcurveto
          -200 -356 -34 -60 -7 -11 -8 -12 -3 -12 rlinecurve
          -2 -12 3 -12 2 -11 33 -239 rcurveline
          25 -181 rlineto
          -23 3 5 -22 28 hhcurveto
          23 23 19 22 5 hvcurveto
          endchar
        </CharString>
        <CharString name="angleright">
          428 -228 -21 999 212 callgsubr
          hintmask 00100000
          360 252 rmoveto
          2 12 -4 11 -1 11 -9 82 -15 81 -9 81 -25 176 rcurveline
          25 -3 -7 20 -26 hhcurveto
          hintmask 11000000
          -8 -1 -21 -3 -18 -18 -4 -20 rlinecurve
          -4 -18 7 -22 2 -18 52 -373 rcurveline
          1 -8 3 -10 -2 -9 -4 -19 -33 -50 -19 -33 -179 -317 rcurveline
          -6 -12 -9 -12 -4 -13 rrcurveto
          -2 vlineto
          -24 -5 15 -18 24 hhcurveto
          2 hlineto
          27 2 13 23 13 21 236 419 rcurveline
          6 12 9 12 3 12 rrcurveto
          endchar
        </CharString>
        <CharString name="aogonek">
          205 callgsubr
          hstem
          478 -25 callsubr
          8 32 21 34 37 20 rrcurveto
          38 13 13 35 7 hvcurveto
          57 268 rlineto
          158 34 -152 1 -50 hhcurveto
          -47 -51 -4 -28 -73 hvcurveto
          -23 -9 -5 -3 -3 -11 rrcurveto
          -1 -7 -7 -58 -8 vvcurveto
          -6 -1 4 -5 7 hhcurveto
          5 4 3 3 4 hvcurveto
          45 52 55 22 62 hhcurveto
          54 9 -33 -59 -13 112 callsubr
          -35 -262 -2 -147 -32 hvcurveto
          -70 -15 41 -74 88 hhcurveto
          34 77 10 69 61 hvcurveto
          -4 -20 -2 -12 -2 -10 2 -8 rlinecurve
          -41 -33 -43 -53 -10 -44 rrcurveto
          -48 callgsubr
          rrcurveto
          -107 316 rmoveto
          -93 -20 -95 0 -3 hhcurveto
          -42 -19 36 38 8 hvcurveto
          21 98 140 7 28 1 rrcurveto
          endchar
        </CharString>
        <CharString name="aogonekacute">
          205 callgsubr
          83 148 callgsubr
          hstemhm
          hintmask 11100000
          478 -25 callsubr
          8 32 21 34 37 20 rrcurveto
          38 13 13 35 7 hvcurveto
          57 268 rlineto
          158 34 -152 1 -50 hhcurveto
          -47 -51 -4 -28 -73 hvcurveto
          -23 -9 -5 -3 -3 -11 rrcurveto
          -1 -7 -7 -58 -8 vvcurveto
          -6 -1 4 -5 7 hhcurveto
          5 4 3 3 4 hvcurveto
          45 52 55 22 62 hhcurveto
          54 9 -33 -59 -13 112 callsubr
          -35 -262 -2 -147 -32 hvcurveto
          -70 -15 41 -74 88 hhcurveto
          34 77 10 69 61 hvcurveto
          -4 -20 -2 -12 -2 -10 2 -8 rlinecurve
          -41 -33 -43 -53 -10 -44 rrcurveto
          -48 callgsubr
          rrcurveto
          -107 316 rmoveto
          -93 -20 -95 0 -3 hhcurveto
          -42 -19 36 38 8 hvcurveto
          21 98 140 7 28 1 rrcurveto
          hintmask 00011000
          175 440 rmoveto
          -99 callgsubr
        </CharString>
        <CharString name="aring">
          22 callsubr
          51 45 68 45 hstemhm
          hintmask 11000000
          -107 callgsubr
          hintmask 00110000
          57 364 13 callsubr
        </CharString>
        <CharString name="aringacute">
          22 callsubr
          51 45 68 45 179 -20 hstemhm
          hintmask 11000000
          -107 callgsubr
          hintmask 00111000
          57 364 -45 callsubr
          76 236 10 callgsubr
        </CharString>
        <CharString name="asciicircum">
          556 583 -21 123 59 hstem
          119 566 vstem
          685 584 rmoveto
          -249 160 -317 -160 6 -22 298 123 245 -123 rlineto
          endchar
        </CharString>
        <CharString name="asciitilde">
          556 193 213 callgsubr
          617 290 60 callgsubr
          26 -17 -20 30 120 callgsubr
        </CharString>
        <CharString name="asciitilde.low">
          556 0 213 callgsubr
          576 97 60 callgsubr
          25 -17 -20 31 120 callgsubr
        </CharString>
        <CharString name="asterisk">
          550 313 -21 458 -20 hstemhm
          293 105 -26 105 -8 105 hintmask 00001000
          574 436 rmoveto
          3 16 -2 19 -24 8 -125 42 rcurveline
          142 42 9 3 26 7 7 33 rlinecurve
          32 7 -22 26 -26 hhcurveto
          -15 -7 -6 -10 -13 hvcurveto
          -121 -92 56 131 rlineto
          hintmask 01010000
          1 2 7 17 0 vvcurveto
          25 5 -21 19 -27 hhcurveto
          -30 -27 -21 -23 -5 hvcurveto
          0 -1 -17 1 -2 vhcurveto
          -131 vlineto
          -80 92 rlineto
          16 -14 -9 0 -7 hhcurveto
          -26 -32 -26 -32 -7 hvcurveto
          -4 -16 2 -19 25 -8 125 -42 rcurveline
          -142 -42 -10 -3 -25 -7 -7 -33 rlinecurve
          -32 -7 21 -26 26 hhcurveto
          15 8 6 10 13 hvcurveto
          120 92 -56 -131 rlineto
          hintmask 10101000
          -1 -2 -7 -17 0 vvcurveto
          -25 -5 21 -19 27 hhcurveto
          30 28 21 23 4 hvcurveto
          0 1 17 -1 2 vhcurveto
          131 vlineto
          81 -92 rlineto
          -16 13 9 0 7 hhcurveto
          26 33 26 32 7 hvcurveto
          endchar
        </CharString>
        <CharString name="asterisk.math">
          550 44 -21 457 -20 hstemhm
          139 111 -16 111 -34 111 -16 111 hintmask 01101000
          517 168 rmoveto
          7 33 -23 10 -25 10 -24 10 -25 9 -24 11 29 11 29 9 28 10 29 10 27 10 7 33 rrcurveto
          30 6 -17 31 -32 hhcurveto
          -4 hlineto
          -18 -1 -15 -12 -15 -11 -26 -18 -27 -18 -25 -19 13 37 22 43 8 35 rrcurveto
          31 6 -24 18 -27 hhcurveto
          -27 -33 -17 -32 -6 hvcurveto
          -8 -35 4 -43 -3 -37 -17 19 -19 18 -18 18 -11 11 -9 12 -18 1 rrcurveto
          -4 hlineto
          -32 -31 -31 -30 -6 hvcurveto
          -7 -33 23 -10 25 -10 24 -10 25 -9 23 -11 -28 -11 -29 -9 -28 -10 -29 -10 -27 -10 -7 -33 rrcurveto
          -30 -7 18 -31 32 hhcurveto
          4 hlineto
          18 1 15 12 15 11 26 18 26 18 26 19 rrcurveto
          hintmask 10010100
          -13 -37 -22 -43 -8 -35 rrcurveto
          -32 -7 26 -16 27 hhcurveto
          27 31 16 32 7 hvcurveto
          8 35 -4 43 3 37 16 -19 20 -18 18 -18 11 -11 9 -12 18 -1 rrcurveto
          4 hlineto
          32 30 31 30 7 hvcurveto
          endchar
        </CharString>
        <CharString name="at">
          733 -11 72 57 72 314 72 57 72 hstem
          135 120 65 120 vstem
          690 88 rmoveto
          13 2 -11 0 -16 hhcurveto
          -38 hlineto
          -16 -2 0 -4 -7 hvcurveto
          -16 -38 -54 -20 -71 hhcurveto
          -89 -58 31 46 -26 hvcurveto
          -22 41 -13 55 24 113 17 80 26 68 51 55 rrcurveto
          80 75 106 3 27 hhcurveto
          47 33 -20 -44 8 hvcurveto
          7 -30 -23 0 -12 hhcurveto
          -153 -78 -93 -136 -29 hvcurveto
          -144 -31 47 -85 147 hhcurveto
          213 37 175 74 16 hvcurveto
          197 42 -4 141 -214 hhcurveto
          -235 -152 -118 -240 -51 hvcurveto
          -244 -52 107 -114 231 hhcurveto
          23 55 0 30 78 hvcurveto
          37 15 73 40 3 14 rrcurveto
          -65 259 rmoveto
          -38 -8 -26 -119 -92 hhcurveto
          -93 25 118 39 9 hvcurveto
          38 8 25 119 92 hhcurveto
          93 -25 -118 -39 -8 hvcurveto
          endchar
        </CharString>
        <CharString name="atilde">
          22 callsubr
          75 123 callsubr
          hintmask 11000000
          -107 callgsubr
          hintmask 00010000
          198 423 -64 callgsubr
        </CharString>
        <CharString name="b">
          220 callgsubr
          hstem
          436 136 vstem
          152 callsubr
          49 233 rlineto
          32 7 -3 16 -41 hhcurveto
          -37 hlineto
          -36 -15 -11 -37 -8 hvcurveto
          -127 -598 68 callgsubr
          181 callgsubr
        </CharString>
        <CharString name="backslash">
          575 750 -20 hstem
          463 -219 rmoveto
          2 6 -1 1 -2 13 -182 919 rcurveline
          17 -3 -3 13 -21 hhcurveto
          -14 -18 -11 -20 -4 hvcurveto
          -1 -6 0 -1 3 -13 181 -919 rcurveline
          -15 3 3 -15 21 hhcurveto
          14 18 11 20 4 hvcurveto
          endchar
        </CharString>
        <CharString name="baht">
          733 0 86 239 72 211 86 hstemhm
          228 136 -71 100 -84 100 -93 141 -130 100 -66 141 -89 141 -116 136 -117 100 -84 100 -96 136 -40 139 -99 136 hintmask 0010000000010001
          712 194 rmoveto
          30 141 -134 22 -36 6 97 21 64 52 16 78 34 157 -158 20 -68 3 rrcurveto
          hintmask 0000000001000010
          16 76 rlineto
          14 3 -9 10 -13 hhcurveto
          hintmask 0000000010000000
          -52 hlineto
          hintmask 0010001000001000
          -14 -12 -10 -14 -3 hvcurveto
          -16 -76 rlineto
          -170 hlineto
          hintmask 1001000000000000
          -79 callgsubr
          hintmask 1000010000000000
          170 hlineto
          hintmask 0000100000000000
          -16 -76 rlineto
          -13 -3 8 -11 14 hhcurveto
          hintmask 0001000000000000
          52 hlineto
          hintmask 0000100000000000
          118 callgsubr
          hintmask 1000010001000010
          16 76 rlineto
          4 hlineto
          74 187 13 181 38 hvcurveto
          -99 317 rmoveto
          -15 -71 -57 -27 -46 -10 42 200 rcurveline
          hintmask 0100001000000001
          43 -8 46 -22 -13 -62 rrcurveto
          -220 -114 rmoveto
          -77 hlineto
          hintmask 0010000010000000
          45 211 rlineto
          hintmask 0110100000100000
          77 hlineto
          136 -412 rmoveto
          hintmask 0000000100000100
          -18 -84 -75 -20 -54 -5 50 235 rcurveline
          hintmask 1100000100100000
          52 -8 64 -26 -19 -92 rrcurveto
          -247 -110 rmoveto
          -77 hlineto
          51 239 rlineto
          77 hlineto
          endchar
        </CharString>
        <CharString name="bar">
          319 750 -20 hstem
          85 61 133 61 vstem
          81 callgsubr
          endchar
        </CharString>
        <CharString name="bigcircle">
          127 callgsubr
          546 74 vstem
          -62 callsubr
          endchar
        </CharString>
        <CharString name="blanksymbol">
          561 -11 72 301 72 -37 72 119 72 -38 72 hstemhm
          436 136 hintmask 00110000
          152 callsubr
          26 121 81 54 rlineto
          hintmask 00001000
          13 8 5 15 -6 11 -23 41 rcurveline
          -6 11 -14 2 -13 -9 rrcurveto
          hintmask 00010000
          -12 -7 rlineto
          hintmask 11001100
          23 3 -7 11 -35 hhcurveto
          -37 hlineto
          -78 callsubr
          -18 -88 -61 -40 -12 -8 -5 -16 6 -10 rlinecurve
          23 -41 4 -8 9 -3 9 2 rlinecurve
          -82 -386 68 callgsubr
          hintmask 00100100
          181 callgsubr
        </CharString>
        <CharString name="braceleft">
          205 callsubr
          hstem
          253 111 cntrmask 11100000
          447 -232 rmoveto
          2 13 -4 4 -11 1 -83 5 -30 35 -4 36 -1 10 1 8 4 17 50 237 rcurveline
          8 42 -21 51 -81 23 126 32 15 69 9 45 45 210 rcurveline
          4 22 7 29 45 29 12 7 33 18 53 3 14 1 8 0 4 17 rrcurveto
          18 3 -9 0 -22 hhcurveto
          -142 -100 -50 -77 -18 hvcurveto
          -43 -206 -14 -62 -4 -21 -39 -29 rlinecurve
          -28 -21 -38 -14 -41 -2 -14 -1 -8 0 -4 -17 -3 -13 5 -4 11 -1 89 -5 27 -45 1 -36 rrcurveto
          -8 0 -2 -8 -37 vhcurveto
          -45 -210 rlineto
          -128 -27 164 -11 67 hhcurveto
          22 9 0 18 4 hvcurveto
          endchar
        </CharString>
        <CharString name="braceright">
          205 callsubr
          hstemhm
          254 111 -55 111 -104 111 cntrmask 11100000
          hintmask 11101000
          549 250 rmoveto
          3 13 -4 4 -12 1 -63 3 -47 26 -5 55 rrcurveto
          hintmask 11100100
          -1 8 0 2 8 39 45 210 rcurveline
          123 26 -149 16 -82 hhcurveto
          -21 -10 0 -18 -3 hvcurveto
          -3 -13 4 -4 12 -1 rrcurveto
          hintmask 11110000
          80 -4 34 -33 4 -39 rrcurveto
          -10 -1 -8 -4 -17 vhcurveto
          hintmask 11101000
          -50 -237 -8 -42 20 -50 82 -24 rlinecurve
          hintmask 11110000
          -126 -32 -14 -68 -10 -46 -45 -210 rcurveline
          -4 -23 -6 -26 -43 -29 -12 -7 -35 -20 -54 -3 -15 -1 -8 0 -3 -17 rrcurveto
          -18 -4 10 0 21 hhcurveto
          hintmask 11100100
          150 94 54 73 17 hvcurveto
          44 206 13 65 4 17 41 31 rlinecurve
          13 11 38 22 53 3 15 1 8 0 3 17 rrcurveto
          endchar
        </CharString>
        <CharString name="bracketleft">
          343 -250 72 856 72 hstem
          273 -214 rmoveto
          36 7 -36 0 -12 hhcurveto
          -53 hlineto
          182 856 rlineto
          53 hlineto
          12 36 0 36 8 hvcurveto
          36 7 -36 0 -12 hhcurveto
          -135 33 callgsubr
          -192 -904 rlineto
          -32 -7 4 -16 41 hhcurveto
          135 hlineto
          12 36 0 36 8 hvcurveto
          endchar
        </CharString>
        <CharString name="bracketright">
          343 -250 72 856 72 hstem
          212 -202 rmoveto
          192 904 -75 callgsubr
          -135 185 callsubr
          53 hlineto
          -182 -856 rlineto
          -53 185 callsubr
          135 130 callgsubr
        </CharString>
        <CharString name="breve">
          211 callgsubr
          49 7 callsubr
          endchar
        </CharString>
        <CharString name="breve.cap">
          550 520 93 49 -20 hstem
          56 callsubr
          endchar
        </CharString>
        <CharString name="breve.ts1">
          672 553 93 76 212 callgsubr
          hintmask 11000000
          730 683 rmoveto
          18 4 -4 21 -28 hhcurveto
          -14 -15 -8 -14 -9 hvcurveto
          -28 -15 2 -26 -159 hhcurveto
          -56 hlineto
          -44 -77 1 28 -10 hvcurveto
          -3 7 4 9 -1 8 rrcurveto
          hintmask 00100000
          14 -2 -12 10 -15 hhcurveto
          hintmask 11000000
          -7 -1 rlineto
          -21 -14 -24 -16 -3 hvcurveto
          -119 -25 161 -10 86 hhcurveto
          91 133 6 98 44 hvcurveto
          3 8 4 9 2 9 rrcurveto
          endchar
        </CharString>
        <CharString name="brokenbar">
          319 750 -20 hstemhm
          85 61 17 61 -23 61 17 61 hintmask 10011000
          262 341 rmoveto
          78 365 98 callgsubr
          -78 -365 rlineto
          -24 -5 4 -26 22 hhcurveto
          21 14 26 24 5 hvcurveto
          -116 -547 rmoveto
          hintmask 01100000
          78 365 rlineto
          24 5 -4 26 -21 hhcurveto
          -22 -14 -26 -24 -5 hvcurveto
          -78 -365 rlineto
          144 callgsubr
          endchar
        </CharString>
        <CharString name="bullet">
          856 114 304 hstemhm
          314 304 -267 304 hintmask 10100000
          125 callgsubr
          hintmask 11000000
          151 callsubr
          endchar
        </CharString>
        <CharString name="c">
          138 callsubr
          hstem
          86 136 vstem
          -80 callsubr
          endchar
        </CharString>
        <CharString name="cacute">
          138 callsubr
          83 148 callgsubr
          194 callsubr
          hintmask 11001000
          -80 callsubr
          hintmask 00110000
          102 631 rmoveto
          -99 callgsubr
        </CharString>
        <CharString name="caron">
          550 156 callsubr
          581 678 -90 callsubr
        </CharString>
        <CharString name="caron.cap">
          177 callsubr
          127 -20 hstem
          578 617 -94 callsubr
        </CharString>
        <CharString name="caron.ts1">
          672 524 -21 242 -20 hstem
          657 733 rmoveto
          9 2 -8 3 -8 hhcurveto
          -39 hlineto
          -12 -6 -8 -8 -7 hvcurveto
          -113 -119 -61 114 rlineto
          12 -8 0 9 -20 hhcurveto
          -29 hlineto
          -9 -9 -1 -9 -3 hvcurveto
          -1 -8 0 -6 4 -7 55 -192 rcurveline
          -9 2 1 -10 14 hhcurveto
          80 hlineto
          14 6 9 8 5 hvcurveto
          139 194 4 5 5 7 2 7 rlinecurve
          endchar
        </CharString>
        <CharString name="ccaron">
          138 callsubr
          81 -21 162 -20 194 callsubr
          hintmask 11001000
          -80 callsubr
          hintmask 00110000
          107 628 -90 callsubr
        </CharString>
        <CharString name="ccedilla">
          138 callsubr
          hstem
          86 136 vstem
          -80 callsubr
          -149 -109 rmoveto
          13 3 -13 callsubr
          11 hvcurveto
          77 121 rlineto
          8 13 0 3 0 vvcurveto
          endchar
        </CharString>
        <CharString name="ccircumflex">
          138 callsubr
          81 -21 162 -20 194 callsubr
          hintmask 11001000
          -80 callsubr
          hintmask 00110000
          81 506 -98 callgsubr
          endchar
        </CharString>
        <CharString name="cdotaccent">
          138 callsubr
          83 115 194 callsubr
          102 -52 callsubr
          hintmask 11010000
          -80 callsubr
          hintmask 00100100
          3 556 rmoveto
          -99 callsubr
          hintmask 00101000
          -21 callgsubr
          endchar
        </CharString>
        <CharString name="cedilla">
          50 callgsubr
        </CharString>
        <CharString name="cedilla.dup">
          50 callgsubr
        </CharString>
        <CharString name="cent">
          489 86 136 -19 100 0 100 -70 100 -71 136 -84 100 hintmask 00100000
          468 50 rmoveto
          2 11 6 46 1 13 rrcurveto
          3 0 10 -10 -4 -2 0 -10 -12 vhcurveto
          -16 -12 -41 -30 -58 -10 69 324 rcurveline
          38 -6 18 -15 24 -23 rrcurveto
          hintmask 00001000
          -11 9 161 callsubr
          hintmask 00000100
          10 4 9 4 2 hvcurveto
          4 8 22 56 1 5 2 9 -7 4 -15 8 -34 17 -24 10 -43 4 rrcurveto
          hintmask 00010000
          13 60 rlineto
          hintmask 00000100
          14 2 -8 10 -13 hhcurveto
          hintmask 00001000
          -52 hlineto
          hintmask 10010000
          -13 -14 -10 -14 -2 hvcurveto
          -14 -63 -118 -18 -83 -73 -32 -150 rlinecurve
          -31 -145 49 -75 114 -17 rrcurveto
          hintmask 01000000
          -15 -69 rlineto
          hintmask 10100000
          118 callsubr
          52 hlineto
          118 callgsubr
          14 67 rlineto
          hintmask 10010000
          31 4 40 8 45 21 31 15 2 1 2 10 rrcurveto
          -232 32 rmoveto
          -39 31 15 70 10 49 13 60 16 62 49 28 rrcurveto
          endchar
        </CharString>
        <CharString name="cent.oldstyle">
          489 -11 78 -77 78 329 78 194 callsubr
          109 136 hintmask 10001000
          468 50 rmoveto
          2 11 6 46 1 13 rrcurveto
          3 0 10 -10 -4 -2 0 -10 -12 vhcurveto
          -15 -20 -56 -41 -82 hhcurveto
          hintmask 01110000
          -6 -5 0 1 -5 hvcurveto
          156 320 21 -8 14 -12 17 -17 rlinecurve
          -11 9 71 callsubr
          4 8 22 56 1 5 2 9 -7 4 -15 8 -19 10 -15 7 -18 5 34 70 rcurveline
          12 6 -6 11 -12 hhcurveto
          -56 hlineto
          -14 -15 -9 -14 -6 hvcurveto
          -30 -60 -144 -3 -104 -71 -36 -171 rlinecurve
          -23 -109 22 -70 61 -35 -45 -93 rcurveline
          -12 -6 7 -11 12 hhcurveto
          56 hlineto
          14 14 9 14 7 hvcurveto
          33 67 rlineto
          hintmask 10011000
          -1 11 11 0 12 hhcurveto
          27 60 1 34 74 hvcurveto
          31 15 2 1 2 10 rrcurveto
          -137 343 rmoveto
          -121 -245 rlineto
          28 7 31 5 25 vhcurveto
          15 71 20 73 74 17 rrcurveto
          endchar
        </CharString>
        <CharString name="centigrade">
          947 -21 100 371 85 47 85 -56 85 -79 100 hstemhm
          380 142 hintmask 10001100
          901 48 rmoveto
          4 17 0 16 3 17 rrcurveto
          19 3 7 29 -16 hhcurveto
          -9 -10 -10 -5 -8 hvcurveto
          -38 -62 -52 -14 -71 hhcurveto
          -60 -59 15 45 -32 hvcurveto
          -43 56 11 86 15 73 rrcurveto
          120 26 63 143 195 hhcurveto
          57 50 -17 -40 37 hvcurveto
          -4 4 5 -5 6 hhcurveto
          hintmask 00100000
          16 36 98 18 4 hvcurveto
          6 31 -115 15 -54 3 rrcurveto
          hintmask 10001100
          1 -14 -15 0 -15 hhcurveto
          -18 hlineto
          -83 -8 -81 -12 -77 -54 -101 -70 -51 -114 -23 -108 -25 -117 0 -124 90 -72 rrcurveto
          -47 59 85 -12 82 hhcurveto
          70 62 11 38 73 hvcurveto
          9 5 14 3 2 12 rrcurveto
          -535 525 rmoveto
          hintmask 01010000
          75 16 -40 48 -73 -5 -5 -1 -4 hhcurveto
          -69 -7 -50 -47 -14 -68 rrcurveto
          -73 -16 39 -50 74 hhcurveto
          64 65 38 85 18 hvcurveto
          -84 hmoveto
          -25 -6 -13 -13 -26 hhcurveto
          -19 -16 4 25 2 hvcurveto
          2 9 rlineto
          23 5 9 15 33 hhcurveto
          hintmask 00100000
          21 11 -8 -21 -1 hvcurveto
          endchar
        </CharString>
        <CharString name="circumflex">
          550 156 callsubr
          555 556 -98 callgsubr
          endchar
        </CharString>
        <CharString name="circumflex.cap">
          177 callsubr
          127 -20 hstem
          560 532 -84 callsubr
        </CharString>
        <CharString name="circumflex.dup">
          550 156 callsubr
          555 556 -98 callgsubr
          endchar
        </CharString>
        <CharString name="colon">
          306 0 131 196 126 callsubr
          -78 131 -114 131 hintmask 01000100
          141 callgsubr
          hintmask 01001000
          -17 -77 75 callgsubr
          77 172 callgsubr
          -69 -327 rmoveto
          hintmask 10010000
          -5 callgsubr
          hintmask 10100000
          48 callgsubr
        </CharString>
        <CharString name="colonmonetary">
          178 callsubr
          28 100 101 100 -43 100 -76 147 hintmask 10100010
          133 callgsubr
          -62 -39 -38 -16 -83 -1 114 538 rcurveline
          70 -2 37 -22 33 -35 rrcurveto
          -5 5 3 -2 5 hhcurveto
          hintmask 01000001
          6 6 3 15 6 hvcurveto
          33 87 4 8 0 2 1 3 rlinecurve
          2 9 -1 1 -26 9 rrcurveto
          hintmask 00100100
          -38 15 -44 13 -81 1 22 104 rcurveline
          hintmask 00000001
          14 3 -9 10 -13 hhcurveto
          -52 hlineto
          hintmask 10011100
          -14 -12 -10 -14 -3 hvcurveto
          -23 -111 -198 -30 -112 -128 -43 -204 rlinecurve
          -47 -221 76 -113 170 -28 -24 -111 rcurveline
          -13 -3 8 -11 14 hhcurveto
          52 hlineto
          118 callgsubr
          22 104 79 1 43 10 70 34 rlinecurve
          30 15 1 1 2 10 rrcurveto
          -300 44 rmoveto
          -95 37 -4 103 24 114 16 78 38 132 129 44 rrcurveto
          endchar
        </CharString>
        <CharString name="comma">
          306 -85 -21 106 126 callsubr
          hintmask 01010000
          224 27 69 callgsubr
          hintmask 11100000
          73 callgsubr
        </CharString>
        <CharString name="copyleft">
          694 0 74 546 74 hstemhm
          74 74 109 74 -63 74 101 74 177 74 hintmask 11110110
          -62 callsubr
          -102 hmoveto
          121 25 -43 70 -131 hhcurveto
          -45 -26 -8 -7 -24 hvcurveto
          -15 -5 -1 0 -1 -5 rrcurveto
          -2 -1 -1 1 -4 vhcurveto
          -2 -45 rlineto
          -7 2 -2 3 vhcurveto
          hintmask 00001100
          3 1 1 3 4 hvcurveto
          18 27 24 12 39 hhcurveto
          106 -11 -90 -49 -10 hvcurveto
          -74 -16 -36 -65 -94 hhcurveto
          -45 -16 9 20 -24 hvcurveto
          6 -5 -1 0 -2 hhcurveto
          -5 -2 -5 -4 -2 hvcurveto
          hintmask 00010000
          -2 -8 -8 -26 -2 -7 rrcurveto
          hintmask 00001000
          -1 -5 1 0 11 -8 rrcurveto
          -18 30 20 -5 43 hhcurveto
          120 82 57 133 29 hvcurveto
          endchar
        </CharString>
        <CharString name="copyright">
          127 callgsubr
          546 74 vstem
          -62 callsubr
          -175 -153 rmoveto
          2 6 3 27 1 7 rrcurveto
          4 1 0 5 -5 hhcurveto
          -3 -1 0 -6 -8 hvcurveto
          -20 -33 -20 -8 -45 hhcurveto
          -93 -8 64 74 16 hvcurveto
          49 10 26 90 106 hhcurveto
          40 20 -12 -18 18 hvcurveto
          -3 2 2 -1 2 hhcurveto
          3 3 1 8 3 hvcurveto
          18 45 rlineto
          1 4 1 1 2 vvcurveto
          1 4 0 1 -14 5 rrcurveto
          7 -19 -25 7 -44 hhcurveto
          -132 -73 -69 -121 -25 hvcurveto
          -133 -29 58 -57 120 hhcurveto
          43 22 5 18 38 hvcurveto
          16 8 0 0 1 6 rrcurveto
          endchar
        </CharString>
        <CharString name="copyright.alt">
          733 -137 74 426 90 -21 90 0 74 hstemhm
          49 74 291 74 220 74 hintmask 11011110
          782 229 rmoveto
          225 47 -111 142 -225 hhcurveto
          -224 -173 -142 -225 -47 hvcurveto
          -225 -48 112 -141 224 hhcurveto
          225 172 141 225 48 hvcurveto
          -74 hmoveto
          -179 -38 -137 -113 -180 hhcurveto
          -179 -89 113 179 38 hvcurveto
          180 38 137 113 179 hhcurveto
          180 89 -113 -180 -38 hvcurveto
          -156 -197 rmoveto
          2 8 4 35 1 9 rrcurveto
          5 1 -1 7 -6 hhcurveto
          -3 -1 0 -8 -10 hvcurveto
          -26 -42 -25 -11 -58 hhcurveto
          -120 -11 83 95 21 hvcurveto
          62 13 35 116 136 hhcurveto
          50 24 -16 -23 24 hvcurveto
          -4 2 2 -1 4 hhcurveto
          4 4 2 10 4 hvcurveto
          hintmask 00100000
          22 57 2 6 0 1 1 2 rlinecurve
          hintmask 01000000
          1 6 0 0 -18 6 rrcurveto
          10 -26 -29 10 -57 hhcurveto
          -168 -95 -90 -154 -32 hvcurveto
          -170 -36 74 -74 154 hhcurveto
          55 28 7 23 48 hvcurveto
          19 10 2 1 1 6 rrcurveto
          endchar
        </CharString>
</ttFont>
